# WaveFront *.obj file (generated by Autodesk ATF)

mtllib e207c83b-d8ef-4173-b2ad-5f9f2d6ac700.mtl

g Body1

v -9.000000 -9.000000 0.000000
v -9.000000 9.000000 0.000000
v -9.000000 9.000000 1.000000
v -9.000000 -9.000000 1.000000
v 9.000000 -9.000000 0.000000
v 9.000000 -9.000000 1.000000
v 9.000000 9.000000 0.000000
v 9.000000 9.000000 1.000000
v -10.000000 10.000000 0.000000
v -10.000000 -10.000000 0.000000
v -10.000000 -10.000000 1.000000
v -10.000000 10.000000 1.000000
v 10.000000 10.000000 0.000000
v 10.000000 10.000000 1.000000
v 10.000000 -10.000000 0.000000
v 10.000000 -10.000000 1.000000
vt -0.000000 0.100000 0.000000
vt -1.800000 0.100000 0.000000
vt -0.000000 0.000000 0.000000
vt -1.800000 0.000000 0.000000
vt -0.000000 0.000000 0.000000
vt 1.800000 0.000000 0.000000
vt -0.000000 0.100000 0.000000
vt 1.800000 0.100000 0.000000
vt -0.000000 0.000000 0.000000
vt 1.800000 0.000000 0.000000
vt -0.000000 0.100000 0.000000
vt 1.800000 0.100000 0.000000
vt -1.500000 0.000000 0.000000
vt 0.300000 0.000000 0.000000
vt -1.500000 0.100000 0.000000
vt 0.300000 0.100000 0.000000
vt -0.000000 0.000000 0.000000
vt 2.000000 0.000000 0.000000
vt -0.000000 0.100000 0.000000
vt 2.000000 0.100000 0.000000
vt -0.000000 0.000000 0.000000
vt 2.000000 0.000000 0.000000
vt -0.000000 0.100000 0.000000
vt 2.000000 0.100000 0.000000
vt 0.000000 0.000000 0.000000
vt 2.000000 0.000000 0.000000
vt 0.000000 0.100000 0.000000
vt 2.000000 0.100000 0.000000
vt 0.000000 0.000000 0.000000
vt 2.000000 0.000000 0.000000
vt 0.000000 0.100000 0.000000
vt 2.000000 0.100000 0.000000
vt 0.900000 0.900000 0.000000
vt -1.000000 1.000000 0.000000
vt -0.900000 0.900000 0.000000
vt -1.000000 -1.000000 0.000000
vt -0.900000 -0.900000 0.000000
vt 1.000000 -1.000000 0.000000
vt 0.900000 -0.900000 0.000000
vt 1.000000 1.000000 0.000000
vt 0.900000 0.900000 0.000000
vt 0.900000 -0.900000 0.000000
vt 1.000000 -1.000000 0.000000
vt -0.900000 -0.900000 0.000000
vt -1.000000 -1.000000 0.000000
vt -0.900000 0.900000 0.000000
vt -1.000000 1.000000 0.000000
vt 1.000000 1.000000 0.000000
vn 0.100000 0.000000 0.000000
vn 0.100000 0.000000 0.000000
vn 0.100000 0.000000 0.000000
vn 0.100000 0.000000 0.000000
vn 0.000000 0.100000 0.000000
vn 0.000000 0.100000 0.000000
vn 0.000000 0.100000 0.000000
vn 0.000000 0.100000 0.000000
vn -0.100000 0.000000 0.000000
vn -0.100000 0.000000 0.000000
vn -0.100000 0.000000 0.000000
vn -0.100000 0.000000 0.000000
vn 0.000000 -0.100000 0.000000
vn 0.000000 -0.100000 0.000000
vn 0.000000 -0.100000 0.000000
vn 0.000000 -0.100000 0.000000
vn -0.100000 0.000000 0.000000
vn -0.100000 0.000000 0.000000
vn -0.100000 0.000000 0.000000
vn -0.100000 0.000000 0.000000
vn 0.000000 0.100000 0.000000
vn 0.000000 0.100000 0.000000
vn 0.000000 0.100000 0.000000
vn 0.000000 0.100000 0.000000
vn 0.100000 0.000000 0.000000
vn 0.100000 0.000000 0.000000
vn 0.100000 0.000000 0.000000
vn 0.100000 0.000000 0.000000
vn 0.000000 -0.100000 0.000000
vn 0.000000 -0.100000 0.000000
vn 0.000000 -0.100000 0.000000
vn 0.000000 -0.100000 0.000000
vn 0.000000 0.000000 0.100000
vn 0.000000 0.000000 0.100000
vn 0.000000 0.000000 0.100000
vn 0.000000 0.000000 0.100000
vn 0.000000 0.000000 0.100000
vn 0.000000 0.000000 0.100000
vn 0.000000 0.000000 0.100000
vn 0.000000 0.000000 0.100000
vn -0.000000 0.000000 -0.100000
vn -0.000000 0.000000 -0.100000
vn -0.000000 0.000000 -0.100000
vn -0.000000 0.000000 -0.100000
vn -0.000000 0.000000 -0.100000
vn -0.000000 0.000000 -0.100000
vn -0.000000 0.000000 -0.100000
vn -0.000000 0.000000 -0.100000
usemtl Steel_-_Satin
f 1/1/1 2/2/2 4/3/3
f 4/3/3 2/2/2 3/4/4
f 5/5/5 1/6/6 6/7/7
f 6/7/7 1/6/6 4/8/8
f 7/9/9 5/10/10 8/11/11
f 8/11/11 5/10/10 6/12/12
f 2/13/13 7/14/14 3/15/15
f 3/15/15 7/14/14 8/16/16
f 9/17/17 10/18/18 12/19/19
f 12/19/19 10/18/18 11/20/20
f 13/21/21 9/22/22 14/23/23
f 14/23/23 9/22/22 12/24/24
f 15/25/25 13/26/26 16/27/27
f 16/27/27 13/26/26 14/28/28
f 10/29/29 15/30/30 11/31/31
f 11/31/31 15/30/30 16/32/32
f 8/33/33 12/34/34 3/35/35
f 3/35/35 12/34/34 11/36/36
f 3/35/35 11/36/36 4/37/37
f 4/37/37 11/36/36 16/38/38
f 4/37/37 16/38/38 6/39/39
f 6/39/39 16/38/38 8/33/33
f 8/33/33 16/38/38 14/40/40
f 8/33/33 14/40/40 12/34/34
f 2/41/41 1/42/42 10/43/43
f 10/43/43 1/42/42 5/44/44
f 10/43/43 5/44/44 15/45/45
f 15/45/45 5/44/44 7/46/46
f 15/45/45 7/46/46 13/47/47
f 13/47/47 7/46/46 2/41/41
f 13/47/47 2/41/41 9/48/48
f 9/48/48 2/41/41 10/43/43
g Body2

v -5.750000 -0.000000 1.000000
v -5.724444 -0.194114 1.000000
v -5.649519 -0.375000 1.000000
v -5.530330 -0.530330 1.000000
v -5.375000 -0.649519 1.000000
v -5.194114 -0.724444 1.000000
v -5.000000 -0.750000 1.000000
v -4.805886 -0.724444 1.000000
v -4.625000 -0.649519 1.000000
v -4.469670 -0.530330 1.000000
v -4.350481 -0.375000 1.000000
v -4.275556 -0.194114 1.000000
v -4.250000 0.000000 1.000000
v -4.275556 0.194114 1.000000
v -4.350481 0.375000 1.000000
v -4.469670 0.530330 1.000000
v -4.625000 0.649519 1.000000
v -4.805886 0.724444 1.000000
v -5.000000 0.750000 1.000000
v -5.194114 0.724444 1.000000
v -5.375000 0.649519 1.000000
v -5.530330 0.530330 1.000000
v -5.649519 0.375000 1.000000
v -5.724444 0.194114 1.000000
v -5.750000 -0.000000 0.000000
v -5.724444 0.194114 0.000000
v -5.649519 0.375000 0.000000
v -5.530330 0.530330 0.000000
v -5.375000 0.649519 0.000000
v -5.194114 0.724444 0.000000
v -5.000000 0.750000 0.000000
v -4.805886 0.724444 0.000000
v -4.625000 0.649519 0.000000
v -4.469670 0.530330 0.000000
v -4.350481 0.375000 0.000000
v -4.275556 0.194114 0.000000
v -4.250000 0.000000 0.000000
v -4.275556 -0.194114 0.000000
v -4.350481 -0.375000 0.000000
v -4.469670 -0.530330 0.000000
v -4.625000 -0.649519 0.000000
v -4.805886 -0.724444 0.000000
v -5.000000 -0.750000 0.000000
v -5.194114 -0.724444 0.000000
v -5.375000 -0.649519 0.000000
v -5.530330 -0.530330 0.000000
v -5.649519 -0.375000 0.000000
v -5.724444 -0.194114 0.000000
v 7.000000 -8.000000 0.000000
v 7.000000 8.000000 0.000000
v 7.000000 8.000000 1.000000
v 7.000000 -8.000000 1.000000
v -8.000000 0.000000 0.000000
v -8.000000 0.000000 1.000000
vt 0.100000 -0.215984 0.000000
vt 0.000000 -0.215984 0.000000
vt 0.100000 -0.235619 0.000000
vt 0.000000 -0.235619 0.000000
vt 0.100000 0.235619 0.000000
vt 0.000000 0.235619 0.000000
vt 0.100000 0.215984 0.000000
vt 0.000000 0.215984 0.000000
vt 0.100000 0.196350 0.000000
vt -0.000000 0.196350 0.000000
vt 0.100000 0.176715 0.000000
vt 0.000000 0.176715 0.000000
vt 0.100000 0.157080 0.000000
vt -0.000000 0.157080 0.000000
vt 0.100000 0.137445 0.000000
vt 0.000000 0.137445 0.000000
vt 0.100000 0.117810 0.000000
vt 0.000000 0.117810 0.000000
vt 0.100000 0.098175 0.000000
vt 0.000000 0.098175 0.000000
vt 0.100000 0.078540 0.000000
vt 0.000000 0.078540 0.000000
vt 0.100000 0.058905 0.000000
vt -0.000000 0.058905 0.000000
vt 0.100000 0.039270 0.000000
vt 0.000000 0.039270 0.000000
vt 0.100000 0.019635 0.000000
vt 0.000000 0.019635 0.000000
vt 0.100000 0.000000 0.000000
vt 0.000000 0.000000 0.000000
vt 0.100000 -0.019635 0.000000
vt 0.000000 -0.019635 0.000000
vt 0.100000 -0.039270 0.000000
vt -0.000000 -0.039270 0.000000
vt 0.100000 -0.058905 0.000000
vt 0.000000 -0.058905 0.000000
vt 0.100000 -0.078540 0.000000
vt -0.000000 -0.078540 0.000000
vt 0.100000 -0.098175 0.000000
vt 0.000000 -0.098175 0.000000
vt 0.100000 -0.117810 0.000000
vt 0.000000 -0.117810 0.000000
vt 0.100000 -0.137445 0.000000
vt -0.000000 -0.137445 0.000000
vt 0.100000 -0.157080 0.000000
vt 0.000000 -0.157080 0.000000
vt 0.100000 -0.176715 0.000000
vt 0.000000 -0.176715 0.000000
vt 0.100000 -0.196350 0.000000
vt -0.000000 -0.196350 0.000000
vt 0.000000 0.000000 0.000000
vt 1.600000 0.000000 0.000000
vt 0.000000 0.100000 0.000000
vt 1.600000 0.100000 0.000000
vt 0.000000 0.000000 0.000000
vt 1.700000 0.000000 0.000000
vt 0.000000 0.100000 0.000000
vt 1.700000 0.100000 0.000000
vt -0.000000 0.000000 0.000000
vt 1.700000 0.000000 0.000000
vt -0.000000 0.100000 0.000000
vt 1.700000 0.100000 0.000000
vt -0.522444 -0.019411 0.000000
vt -0.525000 -0.000000 0.000000
vt -0.750000 0.000000 0.000000
vt -0.522444 0.019411 0.000000
vt -0.514952 0.037500 0.000000
vt -0.503033 0.053033 0.000000
vt -0.487500 0.064952 0.000000
vt -0.469411 0.072444 0.000000
vt 0.750000 0.800000 0.000000
vt -0.450000 0.075000 0.000000
vt -0.430589 0.072444 0.000000
vt -0.412500 0.064952 0.000000
vt -0.396967 0.053033 0.000000
vt -0.385048 0.037500 0.000000
vt -0.377556 0.019411 0.000000
vt -0.375000 0.000000 0.000000
vt 0.750000 -0.800000 0.000000
vt -0.377556 -0.019411 0.000000
vt -0.385048 -0.037500 0.000000
vt -0.396967 -0.053033 0.000000
vt -0.412500 -0.064952 0.000000
vt -0.430589 -0.072444 0.000000
vt -0.450000 -0.075000 0.000000
vt -0.469411 -0.072444 0.000000
vt -0.487500 -0.064952 0.000000
vt -0.503033 -0.053033 0.000000
vt -0.514952 -0.037500 0.000000
vt 0.522444 0.019411 0.000000
vt 0.525000 -0.000000 0.000000
vt 0.750000 0.000000 0.000000
vt 0.522444 -0.019411 0.000000
vt 0.514952 -0.037500 0.000000
vt 0.503033 -0.053033 0.000000
vt 0.487500 -0.064952 0.000000
vt 0.469411 -0.072444 0.000000
vt -0.750000 -0.800000 0.000000
vt 0.450000 -0.075000 0.000000
vt 0.430589 -0.072444 0.000000
vt 0.412500 -0.064952 0.000000
vt 0.396967 -0.053033 0.000000
vt 0.385048 -0.037500 0.000000
vt 0.377556 -0.019411 0.000000
vt 0.375000 0.000000 0.000000
vt -0.750000 0.800000 0.000000
vt 0.377556 0.019411 0.000000
vt 0.385048 0.037500 0.000000
vt 0.396967 0.053033 0.000000
vt 0.412500 0.064952 0.000000
vt 0.430589 0.072444 0.000000
vt 0.450000 0.075000 0.000000
vt 0.469411 0.072444 0.000000
vt 0.487500 0.064952 0.000000
vt 0.503033 0.053033 0.000000
vt 0.514952 0.037500 0.000000
vn 0.096593 0.025882 0.000000
vn 0.096593 0.025882 0.000000
vn 0.100000 0.000000 0.000000
vn 0.100000 0.000000 0.000000
vn 0.096593 -0.025882 0.000000
vn 0.096593 -0.025882 0.000000
vn 0.086603 -0.050000 0.000000
vn 0.086603 -0.050000 0.000000
vn 0.070711 -0.070711 0.000000
vn 0.070711 -0.070711 0.000000
vn 0.050000 -0.086603 0.000000
vn 0.050000 -0.086603 0.000000
vn 0.025882 -0.096593 0.000000
vn 0.025882 -0.096593 0.000000
vn -0.000000 -0.100000 0.000000
vn -0.000000 -0.100000 0.000000
vn -0.025882 -0.096593 0.000000
vn -0.025882 -0.096593 0.000000
vn -0.050000 -0.086603 0.000000
vn -0.050000 -0.086603 0.000000
vn -0.070711 -0.070711 0.000000
vn -0.070711 -0.070711 0.000000
vn -0.086603 -0.050000 0.000000
vn -0.086603 -0.050000 0.000000
vn -0.096593 -0.025882 0.000000
vn -0.096593 -0.025882 0.000000
vn -0.100000 0.000000 0.000000
vn -0.100000 0.000000 0.000000
vn -0.096593 0.025882 0.000000
vn -0.096593 0.025882 0.000000
vn -0.086603 0.050000 0.000000
vn -0.086603 0.050000 0.000000
vn -0.070711 0.070711 0.000000
vn -0.070711 0.070711 0.000000
vn -0.050000 0.086603 0.000000
vn -0.050000 0.086603 0.000000
vn -0.025882 0.096593 0.000000
vn -0.025882 0.096593 0.000000
vn -0.000000 0.100000 0.000000
vn -0.000000 0.100000 0.000000
vn 0.025882 0.096593 0.000000
vn 0.025882 0.096593 0.000000
vn 0.050000 0.086603 0.000000
vn 0.050000 0.086603 0.000000
vn 0.070711 0.070711 0.000000
vn 0.070711 0.070711 0.000000
vn 0.086603 0.050000 0.000000
vn 0.086603 0.050000 0.000000
vn 0.100000 0.000000 0.000000
vn 0.100000 0.000000 0.000000
vn 0.100000 0.000000 0.000000
vn 0.100000 0.000000 0.000000
vn -0.047059 -0.088235 0.000000
vn -0.047059 -0.088235 0.000000
vn -0.047059 -0.088235 0.000000
vn -0.047059 -0.088235 0.000000
vn -0.047059 0.088235 0.000000
vn -0.047059 0.088235 0.000000
vn -0.047059 0.088235 0.000000
vn -0.047059 0.088235 0.000000
vn 0.000000 0.000000 0.100000
vn 0.000000 0.000000 0.100000
vn 0.000000 0.000000 0.100000
vn 0.000000 0.000000 0.100000
vn 0.000000 0.000000 0.100000
vn 0.000000 0.000000 0.100000
vn 0.000000 0.000000 0.100000
vn 0.000000 0.000000 0.100000
vn 0.000000 0.000000 0.100000
vn 0.000000 0.000000 0.100000
vn 0.000000 0.000000 0.100000
vn 0.000000 0.000000 0.100000
vn 0.000000 0.000000 0.100000
vn 0.000000 0.000000 0.100000
vn 0.000000 0.000000 0.100000
vn 0.000000 0.000000 0.100000
vn 0.000000 0.000000 0.100000
vn 0.000000 0.000000 0.100000
vn 0.000000 0.000000 0.100000
vn 0.000000 0.000000 0.100000
vn 0.000000 0.000000 0.100000
vn 0.000000 0.000000 0.100000
vn 0.000000 0.000000 0.100000
vn 0.000000 0.000000 0.100000
vn 0.000000 0.000000 0.100000
vn 0.000000 0.000000 0.100000
vn 0.000000 0.000000 0.100000
vn -0.000000 0.000000 -0.100000
vn -0.000000 0.000000 -0.100000
vn -0.000000 0.000000 -0.100000
vn -0.000000 0.000000 -0.100000
vn -0.000000 0.000000 -0.100000
vn -0.000000 0.000000 -0.100000
vn -0.000000 0.000000 -0.100000
vn -0.000000 0.000000 -0.100000
vn -0.000000 0.000000 -0.100000
vn -0.000000 0.000000 -0.100000
vn -0.000000 0.000000 -0.100000
vn -0.000000 0.000000 -0.100000
vn -0.000000 0.000000 -0.100000
vn -0.000000 0.000000 -0.100000
vn -0.000000 0.000000 -0.100000
vn -0.000000 0.000000 -0.100000
vn -0.000000 0.000000 -0.100000
vn -0.000000 0.000000 -0.100000
vn -0.000000 0.000000 -0.100000
vn -0.000000 0.000000 -0.100000
vn -0.000000 0.000000 -0.100000
vn -0.000000 0.000000 -0.100000
vn -0.000000 0.000000 -0.100000
vn -0.000000 0.000000 -0.100000
vn -0.000000 0.000000 -0.100000
vn -0.000000 0.000000 -0.100000
vn -0.000000 0.000000 -0.100000
f 18/49/49 64/50/50 17/51/51
f 17/51/51 64/50/50 41/52/52
f 17/53/51 41/54/52 40/55/53
f 40/55/53 41/54/52 42/56/54
f 40/55/53 42/56/54 39/57/55
f 39/57/55 42/56/54 43/58/56
f 39/57/55 43/58/56 38/59/57
f 38/59/57 43/58/56 44/60/58
f 38/59/57 44/60/58 37/61/59
f 37/61/59 44/60/58 45/62/60
f 37/61/59 45/62/60 36/63/61
f 36/63/61 45/62/60 46/64/62
f 36/63/61 46/64/62 35/65/63
f 35/65/63 46/64/62 47/66/64
f 35/65/63 47/66/64 34/67/65
f 34/67/65 47/66/64 48/68/66
f 34/67/65 48/68/66 33/69/67
f 33/69/67 48/68/66 49/70/68
f 33/69/67 49/70/68 32/71/69
f 32/71/69 49/70/68 50/72/70
f 32/71/69 50/72/70 31/73/71
f 31/73/71 50/72/70 51/74/72
f 31/73/71 51/74/72 30/75/73
f 30/75/73 51/74/72 52/76/74
f 30/75/73 52/76/74 29/77/75
f 29/77/75 52/76/74 53/78/76
f 29/77/75 53/78/76 28/79/77
f 28/79/77 53/78/76 54/80/78
f 28/79/77 54/80/78 27/81/79
f 27/81/79 54/80/78 55/82/80
f 27/81/79 55/82/80 26/83/81
f 26/83/81 55/82/80 56/84/82
f 26/83/81 56/84/82 25/85/83
f 25/85/83 56/84/82 57/86/84
f 25/85/83 57/86/84 24/87/85
f 24/87/85 57/86/84 58/88/86
f 24/87/85 58/88/86 23/89/87
f 23/89/87 58/88/86 59/90/88
f 23/89/87 59/90/88 22/91/89
f 22/91/89 59/90/88 60/92/90
f 22/91/89 60/92/90 21/93/91
f 21/93/91 60/92/90 61/94/92
f 21/93/91 61/94/92 20/95/93
f 20/95/93 61/94/92 62/96/94
f 20/95/93 62/96/94 19/97/95
f 19/97/95 62/96/94 63/98/96
f 19/97/95 63/98/96 18/49/49
f 18/49/49 63/98/96 64/50/50
f 65/99/97 66/100/98 68/101/99
f 68/101/99 66/100/98 67/102/100
f 69/103/101 65/104/102 70/105/103
f 70/105/103 65/104/102 68/106/104
f 66/107/105 69/108/106 67/109/107
f 67/109/107 69/108/106 70/110/108
f 18/111/109 17/112/110 70/113/111
f 70/113/111 17/112/110 40/114/112
f 70/113/111 40/114/112 39/115/113
f 39/115/113 38/116/114 70/113/111
f 70/113/111 38/116/114 37/117/115
f 70/113/111 37/117/115 36/118/116
f 70/113/111 36/118/116 67/119/117
f 67/119/117 36/118/116 35/120/118
f 67/119/117 35/120/118 34/121/119
f 34/121/119 33/122/120 67/119/117
f 67/119/117 33/122/120 32/123/121
f 67/119/117 32/123/121 31/124/122
f 31/124/122 30/125/123 67/119/117
f 67/119/117 30/125/123 29/126/124
f 67/119/117 29/126/124 68/127/125
f 68/127/125 29/126/124 28/128/126
f 68/127/125 28/128/126 27/129/127
f 27/129/127 26/130/128 68/127/125
f 68/127/125 26/130/128 25/131/129
f 68/127/125 25/131/129 24/132/130
f 24/132/130 23/133/131 68/127/125
f 68/127/125 23/133/131 22/134/132
f 68/127/125 22/134/132 70/113/111
f 70/113/111 22/134/132 21/135/133
f 70/113/111 21/135/133 20/136/134
f 20/136/134 19/137/135 70/113/111
f 70/113/111 19/137/135 18/111/109
f 42/138/136 41/139/137 69/140/138
f 69/140/138 41/139/137 64/141/139
f 69/140/138 64/141/139 63/142/140
f 63/142/140 62/143/141 69/140/138
f 69/140/138 62/143/141 61/144/142
f 69/140/138 61/144/142 60/145/143
f 69/140/138 60/145/143 65/146/144
f 65/146/144 60/145/143 59/147/145
f 65/146/144 59/147/145 58/148/146
f 58/148/146 57/149/147 65/146/144
f 65/146/144 57/149/147 56/150/148
f 65/146/144 56/150/148 55/151/149
f 55/151/149 54/152/150 65/146/144
f 65/146/144 54/152/150 53/153/151
f 65/146/144 53/153/151 66/154/152
f 66/154/152 53/153/151 52/155/153
f 66/154/152 52/155/153 51/156/154
f 51/156/154 50/157/155 66/154/152
f 66/154/152 50/157/155 49/158/156
f 66/154/152 49/158/156 48/159/157
f 48/159/157 47/160/158 66/154/152
f 66/154/152 47/160/158 46/161/159
f 66/154/152 46/161/159 69/140/138
f 69/140/138 46/161/159 45/162/160
f 69/140/138 45/162/160 44/163/161
f 44/163/161 43/164/162 69/140/138
f 69/140/138 43/164/162 42/138/136
# 70 vertices
# 164 texture params
# 162 normals
# 140 facets

# 2 groups
