# WaveFront *.obj file (generated by Autodesk ATF)

mtllib 64ab26ea-62e7-4484-a8f7-34a20307b5ed.mtl

g Body7

v 13.000000 13.000000 0.000000
v 13.000000 -13.000000 0.000000
v 13.000000 -13.000000 1.000000
v 13.000000 13.000000 1.000000
v -13.000000 13.000000 0.000000
v -13.000000 13.000000 1.000000
v -13.000000 -13.000000 0.000000
v -13.000000 -13.000000 1.000000
v -15.000000 15.000000 0.000000
v -15.000000 -15.000000 0.000000
v -15.000000 -15.000000 1.000000
v -15.000000 15.000000 1.000000
v 15.000000 15.000000 0.000000
v 15.000000 15.000000 1.000000
v 15.000000 -15.000000 0.000000
v 15.000000 -15.000000 1.000000
vt 0.000000 0.000000 0.000000
vt 2.600000 0.000000 0.000000
vt 0.000000 0.100000 0.000000
vt 2.600000 0.100000 0.000000
vt 0.000000 0.000000 0.000000
vt 2.600000 0.000000 0.000000
vt 0.000000 0.100000 0.000000
vt 2.600000 0.100000 0.000000
vt 0.000000 0.000000 0.000000
vt 2.600000 0.000000 0.000000
vt 0.000000 0.100000 0.000000
vt 2.600000 0.100000 0.000000
vt 0.000000 0.000000 0.000000
vt 2.600000 0.000000 0.000000
vt 0.000000 0.100000 0.000000
vt 2.600000 0.100000 0.000000
vt -0.000000 0.000000 0.000000
vt 3.000000 0.000000 0.000000
vt -0.000000 0.100000 0.000000
vt 3.000000 0.100000 0.000000
vt -0.000000 0.000000 0.000000
vt 3.000000 0.000000 0.000000
vt -0.000000 0.100000 0.000000
vt 3.000000 0.100000 0.000000
vt 0.000000 0.000000 0.000000
vt 3.000000 0.000000 0.000000
vt 0.000000 0.100000 0.000000
vt 3.000000 0.100000 0.000000
vt 0.000000 0.000000 0.000000
vt 3.000000 0.000000 0.000000
vt 0.000000 0.100000 0.000000
vt 3.000000 0.100000 0.000000
vt 1.300000 1.300000 0.000000
vt 1.300000 -1.300000 0.000000
vt 1.500000 -1.500000 0.000000
vt -1.300000 -1.300000 0.000000
vt -1.500000 -1.500000 0.000000
vt -1.300000 1.300000 0.000000
vt -1.500000 1.500000 0.000000
vt 1.500000 1.500000 0.000000
vt 1.300000 1.300000 0.000000
vt 1.300000 -1.300000 0.000000
vt 1.500000 -1.500000 0.000000
vt -1.300000 -1.300000 0.000000
vt -1.500000 -1.500000 0.000000
vt -1.300000 1.300000 0.000000
vt -1.500000 1.500000 0.000000
vt 1.500000 1.500000 0.000000
vn -0.100000 0.000000 0.000000
vn -0.100000 0.000000 0.000000
vn -0.100000 0.000000 0.000000
vn -0.100000 0.000000 0.000000
vn 0.000000 -0.100000 0.000000
vn 0.000000 -0.100000 0.000000
vn 0.000000 -0.100000 0.000000
vn 0.000000 -0.100000 0.000000
vn 0.100000 0.000000 0.000000
vn 0.100000 0.000000 0.000000
vn 0.100000 0.000000 0.000000
vn 0.100000 0.000000 0.000000
vn 0.000000 0.100000 0.000000
vn 0.000000 0.100000 0.000000
vn 0.000000 0.100000 0.000000
vn 0.000000 0.100000 0.000000
vn -0.100000 0.000000 0.000000
vn -0.100000 0.000000 0.000000
vn -0.100000 0.000000 0.000000
vn -0.100000 0.000000 0.000000
vn 0.000000 0.100000 0.000000
vn 0.000000 0.100000 0.000000
vn 0.000000 0.100000 0.000000
vn 0.000000 0.100000 0.000000
vn 0.100000 0.000000 0.000000
vn 0.100000 0.000000 0.000000
vn 0.100000 0.000000 0.000000
vn 0.100000 0.000000 0.000000
vn 0.000000 -0.100000 0.000000
vn 0.000000 -0.100000 0.000000
vn 0.000000 -0.100000 0.000000
vn 0.000000 -0.100000 0.000000
vn 0.000000 0.000000 0.100000
vn 0.000000 0.000000 0.100000
vn 0.000000 0.000000 0.100000
vn 0.000000 0.000000 0.100000
vn 0.000000 0.000000 0.100000
vn 0.000000 0.000000 0.100000
vn 0.000000 0.000000 0.100000
vn 0.000000 0.000000 0.100000
vn -0.000000 0.000000 -0.100000
vn -0.000000 0.000000 -0.100000
vn -0.000000 0.000000 -0.100000
vn -0.000000 0.000000 -0.100000
vn -0.000000 0.000000 -0.100000
vn -0.000000 0.000000 -0.100000
vn -0.000000 0.000000 -0.100000
vn -0.000000 0.000000 -0.100000
usemtl Steel_-_Satin
f 1/1/1 2/2/2 4/3/3
f 4/3/3 2/2/2 3/4/4
f 5/5/5 1/6/6 6/7/7
f 6/7/7 1/6/6 4/8/8
f 7/9/9 5/10/10 8/11/11
f 8/11/11 5/10/10 6/12/12
f 2/13/13 7/14/14 3/15/15
f 3/15/15 7/14/14 8/16/16
f 9/17/17 10/18/18 12/19/19
f 12/19/19 10/18/18 11/20/20
f 13/21/21 9/22/22 14/23/23
f 14/23/23 9/22/22 12/24/24
f 15/25/25 13/26/26 16/27/27
f 16/27/27 13/26/26 14/28/28
f 10/29/29 15/30/30 11/31/31
f 11/31/31 15/30/30 16/32/32
f 4/33/33 3/34/34 16/35/35
f 16/35/35 3/34/34 8/36/36
f 16/35/35 8/36/36 11/37/37
f 11/37/37 8/36/36 6/38/38
f 11/37/37 6/38/38 12/39/39
f 12/39/39 6/38/38 4/33/33
f 12/39/39 4/33/33 14/40/40
f 14/40/40 4/33/33 16/35/35
f 5/41/41 7/42/42 10/43/43
f 10/43/43 7/42/42 2/44/44
f 10/43/43 2/44/44 15/45/45
f 15/45/45 2/44/44 1/46/46
f 15/45/45 1/46/46 13/47/47
f 13/47/47 1/46/46 5/41/41
f 13/47/47 5/41/41 9/48/48
f 9/48/48 5/41/41 10/43/43
# 16 vertices
# 48 texture params
# 48 normals
# 32 facets

# 1 groups
