# WaveFront *.obj file (generated by Autodesk ATF)

mtllib ec95dfa1-5e30-4864-9e8f-91fb9aa5bed9.mtl

g Body3

v 13.000000 12.500000 1.000000
v 13.000000 12.500000 0.000000
v 13.000000 13.000000 0.000000
v 13.000000 13.000000 1.000000
v 12.500000 13.000000 0.000000
v 12.500000 13.000000 1.000000
v 2.914214 2.414214 1.000000
v 2.914214 2.414214 0.000000
v 2.414214 2.914214 1.000000
v 2.414214 2.914214 0.000000
vt -0.050000 0.000000 0.000000
vt -0.000000 0.000000 0.000000
vt -0.050000 0.100000 0.000000
vt -0.000000 0.100000 0.000000
vt -2.550000 0.100000 0.000000
vt -2.600000 0.100000 0.000000
vt -2.550000 0.000000 0.000000
vt -2.600000 0.000000 0.000000
vt 0.058579 0.000000 0.000000
vt 1.484924 0.000000 0.000000
vt 0.058579 0.100000 0.000000
vt 1.484924 0.100000 0.000000
vt -0.508579 -0.508579 0.000000
vt -0.458579 -0.508579 0.000000
vt -0.508579 -0.458579 0.000000
vt 0.550000 0.500000 0.000000
vt 0.500000 0.550000 0.000000
vt 1.426346 0.100000 0.000000
vt 0.000000 0.100000 0.000000
vt 1.426346 0.000000 0.000000
vt 0.000000 0.000000 0.000000
vt 0.000000 0.000000 0.000000
vt 0.070711 0.000000 0.000000
vt 0.000000 0.100000 0.000000
vt 0.070711 0.100000 0.000000
vt -0.508579 0.508579 0.000000
vt -0.508579 0.458579 0.000000
vt -0.458579 0.508579 0.000000
vt 0.550000 -0.500000 0.000000
vt 0.500000 -0.550000 0.000000
vn 0.100000 0.000000 0.000000
vn 0.100000 0.000000 0.000000
vn 0.100000 0.000000 0.000000
vn 0.100000 0.000000 0.000000
vn -0.000000 0.100000 -0.000000
vn -0.000000 0.100000 -0.000000
vn -0.000000 0.100000 -0.000000
vn -0.000000 0.100000 -0.000000
vn 0.070711 -0.070711 0.000000
vn 0.070711 -0.070711 0.000000
vn 0.070711 -0.070711 0.000000
vn 0.070711 -0.070711 0.000000
vn 0.000000 0.000000 0.100000
vn 0.000000 0.000000 0.100000
vn 0.000000 0.000000 0.100000
vn 0.000000 0.000000 0.100000
vn 0.000000 0.000000 0.100000
vn -0.070711 0.070711 0.000000
vn -0.070711 0.070711 0.000000
vn -0.070711 0.070711 0.000000
vn -0.070711 0.070711 0.000000
vn -0.070711 -0.070711 0.000000
vn -0.070711 -0.070711 0.000000
vn -0.070711 -0.070711 0.000000
vn -0.070711 -0.070711 0.000000
vn 0.000000 0.000000 -0.100000
vn 0.000000 0.000000 -0.100000
vn 0.000000 0.000000 -0.100000
vn 0.000000 0.000000 -0.100000
vn 0.000000 0.000000 -0.100000
usemtl Steel_-_Satin
f 2/1/1 3/2/2 1/3/3
f 1/3/3 3/2/2 4/4/4
f 6/5/5 4/6/6 5/7/7
f 5/7/7 4/6/6 3/8/8
f 1/9/9 7/10/10 2/11/11
f 2/11/11 7/10/10 8/12/12
f 4/13/13 6/14/14 1/15/15
f 1/15/15 6/14/14 9/16/16
f 1/15/15 9/16/16 7/17/17
f 5/18/18 10/19/19 6/20/20
f 6/20/20 10/19/19 9/21/21
f 7/22/22 9/23/23 8/24/24
f 8/24/24 9/23/23 10/25/25
f 3/26/26 2/27/27 5/28/28
f 5/28/28 2/27/27 10/29/29
f 10/29/29 2/27/27 8/30/30
g Body4

v 13.000000 -12.500000 0.000000
v 13.000000 -12.500000 1.000000
v 13.000000 -13.000000 1.000000
v 13.000000 -13.000000 0.000000
v 12.500000 -13.000000 1.000000
v 12.500000 -13.000000 0.000000
v 2.914214 -2.414214 0.000000
v 2.914214 -2.414214 1.000000
v 2.414214 -2.914214 0.000000
v 2.414214 -2.914214 1.000000
vt -2.550000 0.100000 0.000000
vt -2.600000 0.100000 0.000000
vt -2.550000 0.000000 0.000000
vt -2.600000 0.000000 0.000000
vt -0.050000 0.000000 0.000000
vt -0.000000 0.000000 0.000000
vt -0.050000 0.100000 0.000000
vt -0.000000 0.100000 0.000000
vt 1.426346 0.100000 0.000000
vt 0.000000 0.100000 0.000000
vt 1.426346 0.000000 0.000000
vt 0.000000 0.000000 0.000000
vt -0.508579 -0.508579 0.000000
vt -0.458579 -0.508579 0.000000
vt -0.508579 -0.458579 0.000000
vt 0.550000 0.500000 0.000000
vt 0.500000 0.550000 0.000000
vt 0.058579 0.000000 0.000000
vt 1.484924 0.000000 0.000000
vt 0.058579 0.100000 0.000000
vt 1.484924 0.100000 0.000000
vt 0.000000 0.000000 0.000000
vt 0.070711 0.000000 0.000000
vt 0.000000 0.100000 0.000000
vt 0.070711 0.100000 0.000000
vt -0.508579 0.508579 0.000000
vt -0.508579 0.458579 0.000000
vt -0.458579 0.508579 0.000000
vt 0.550000 -0.500000 0.000000
vt 0.500000 -0.550000 0.000000
vn 0.100000 0.000000 0.000000
vn 0.100000 0.000000 0.000000
vn 0.100000 0.000000 0.000000
vn 0.100000 0.000000 0.000000
vn 0.000000 -0.100000 0.000000
vn 0.000000 -0.100000 0.000000
vn 0.000000 -0.100000 0.000000
vn 0.000000 -0.100000 0.000000
vn 0.070711 0.070711 0.000000
vn 0.070711 0.070711 0.000000
vn 0.070711 0.070711 0.000000
vn 0.070711 0.070711 0.000000
vn 0.000000 0.000000 -0.100000
vn 0.000000 0.000000 -0.100000
vn 0.000000 0.000000 -0.100000
vn 0.000000 0.000000 -0.100000
vn 0.000000 0.000000 -0.100000
vn -0.070711 -0.070711 0.000000
vn -0.070711 -0.070711 0.000000
vn -0.070711 -0.070711 0.000000
vn -0.070711 -0.070711 0.000000
vn -0.070711 0.070711 0.000000
vn -0.070711 0.070711 0.000000
vn -0.070711 0.070711 0.000000
vn -0.070711 0.070711 0.000000
vn 0.000000 0.000000 0.100000
vn 0.000000 0.000000 0.100000
vn 0.000000 0.000000 0.100000
vn 0.000000 0.000000 0.100000
vn 0.000000 0.000000 0.100000
f 12/31/31 13/32/32 11/33/33
f 11/33/33 13/32/32 14/34/34
f 16/35/35 14/36/36 15/37/37
f 15/37/37 14/36/36 13/38/38
f 11/39/39 17/40/40 12/41/41
f 12/41/41 17/40/40 18/42/42
f 14/43/43 16/44/44 11/45/45
f 11/45/45 16/44/44 19/46/46
f 11/45/45 19/46/46 17/47/47
f 15/48/48 20/49/49 16/50/50
f 16/50/50 20/49/49 19/51/51
f 20/52/52 18/53/53 19/54/54
f 19/54/54 18/53/53 17/55/55
f 13/56/56 12/57/57 15/58/58
f 15/58/58 12/57/57 20/59/59
f 20/59/59 12/57/57 18/60/60
g Body5

v -13.000000 12.500000 0.000000
v -13.000000 12.500000 1.000000
v -13.000000 13.000000 1.000000
v -13.000000 13.000000 0.000000
v -12.500000 13.000000 1.000000
v -12.500000 13.000000 0.000000
v -2.914214 2.414214 0.000000
v -2.914214 2.414214 1.000000
v -2.414214 2.914214 0.000000
v -2.414214 2.914214 1.000000
vt -2.550000 0.100000 0.000000
vt -2.600000 0.100000 0.000000
vt -2.550000 0.000000 0.000000
vt -2.600000 0.000000 0.000000
vt -0.050000 0.000000 0.000000
vt -0.000000 0.000000 0.000000
vt -0.050000 0.100000 0.000000
vt -0.000000 0.100000 0.000000
vt 1.426346 0.100000 0.000000
vt 0.000000 0.100000 0.000000
vt 1.426346 0.000000 0.000000
vt 0.000000 0.000000 0.000000
vt 0.508579 0.508579 0.000000
vt 0.458579 0.508579 0.000000
vt 0.508579 0.458579 0.000000
vt -0.550000 -0.500000 0.000000
vt -0.500000 -0.550000 0.000000
vt -0.000000 0.000000 0.000000
vt 0.070711 -0.000000 0.000000
vt 0.000000 0.100000 0.000000
vt 0.070711 0.100000 0.000000
vt 0.058579 0.000000 0.000000
vt 1.484924 0.000000 0.000000
vt 0.058579 0.100000 0.000000
vt 1.484924 0.100000 0.000000
vt 0.508579 -0.508579 0.000000
vt 0.508579 -0.458579 0.000000
vt 0.458579 -0.508579 0.000000
vt -0.550000 0.500000 0.000000
vt -0.500000 0.550000 0.000000
vn -0.100000 0.000000 0.000000
vn -0.100000 0.000000 0.000000
vn -0.100000 0.000000 0.000000
vn -0.100000 0.000000 0.000000
vn -0.000000 0.100000 -0.000000
vn -0.000000 0.100000 -0.000000
vn -0.000000 0.100000 -0.000000
vn -0.000000 0.100000 -0.000000
vn -0.070711 -0.070711 0.000000
vn -0.070711 -0.070711 0.000000
vn -0.070711 -0.070711 0.000000
vn -0.070711 -0.070711 0.000000
vn 0.000000 0.000000 -0.100000
vn 0.000000 0.000000 -0.100000
vn 0.000000 0.000000 -0.100000
vn 0.000000 0.000000 -0.100000
vn 0.000000 0.000000 -0.100000
vn 0.070711 -0.070711 0.000000
vn 0.070711 -0.070711 0.000000
vn 0.070711 -0.070711 0.000000
vn 0.070711 -0.070711 0.000000
vn 0.070711 0.070711 0.000000
vn 0.070711 0.070711 0.000000
vn 0.070711 0.070711 0.000000
vn 0.070711 0.070711 0.000000
vn 0.000000 0.000000 0.100000
vn 0.000000 0.000000 0.100000
vn 0.000000 0.000000 0.100000
vn 0.000000 0.000000 0.100000
vn 0.000000 0.000000 0.100000
f 22/61/61 23/62/62 21/63/63
f 21/63/63 23/62/62 24/64/64
f 26/65/65 24/66/66 25/67/67
f 25/67/67 24/66/66 23/68/68
f 21/69/69 27/70/70 22/71/71
f 22/71/71 27/70/70 28/72/72
f 24/73/73 26/74/74 21/75/75
f 21/75/75 26/74/74 29/76/76
f 21/75/75 29/76/76 27/77/77
f 30/78/78 28/79/79 29/80/80
f 29/80/80 28/79/79 27/81/81
f 25/82/82 30/83/83 26/84/84
f 26/84/84 30/83/83 29/85/85
f 23/86/86 22/87/87 25/88/88
f 25/88/88 22/87/87 30/89/89
f 30/89/89 22/87/87 28/90/90
g Body6

v -12.500000 -13.000000 0.000000
v -12.500000 -13.000000 1.000000
v -13.000000 -13.000000 1.000000
v -13.000000 -13.000000 0.000000
v -13.000000 -12.500000 1.000000
v -13.000000 -12.500000 0.000000
v -2.414214 -2.914214 0.000000
v -2.414214 -2.914214 1.000000
v -2.914214 -2.414214 0.000000
v -2.914214 -2.414214 1.000000
vt -2.550000 0.100000 0.000000
vt -2.600000 0.100000 0.000000
vt -2.550000 0.000000 0.000000
vt -2.600000 0.000000 0.000000
vt -0.050000 0.000000 0.000000
vt -0.000000 0.000000 0.000000
vt -0.050000 0.100000 0.000000
vt -0.000000 0.100000 0.000000
vt 1.426346 0.100000 0.000000
vt -0.000000 0.100000 0.000000
vt 1.426346 0.000000 0.000000
vt 0.000000 0.000000 0.000000
vt 0.508579 -0.508579 0.000000
vt 0.508579 -0.458579 0.000000
vt 0.458579 -0.508579 0.000000
vt -0.550000 0.500000 0.000000
vt -0.500000 0.550000 0.000000
vt 0.000000 0.000000 0.000000
vt 0.070711 0.000000 0.000000
vt 0.000000 0.100000 0.000000
vt 0.070711 0.100000 0.000000
vt 0.058579 0.000000 0.000000
vt 1.484924 0.000000 0.000000
vt 0.058579 0.100000 0.000000
vt 1.484924 0.100000 0.000000
vt 0.508579 0.508579 0.000000
vt 0.458579 0.508579 0.000000
vt 0.508579 0.458579 0.000000
vt -0.550000 -0.500000 0.000000
vt -0.500000 -0.550000 0.000000
vn 0.000000 -0.100000 0.000000
vn 0.000000 -0.100000 0.000000
vn 0.000000 -0.100000 0.000000
vn 0.000000 -0.100000 0.000000
vn -0.100000 0.000000 0.000000
vn -0.100000 0.000000 0.000000
vn -0.100000 0.000000 0.000000
vn -0.100000 0.000000 0.000000
vn 0.070711 -0.070711 0.000000
vn 0.070711 -0.070711 0.000000
vn 0.070711 -0.070711 0.000000
vn 0.070711 -0.070711 0.000000
vn 0.000000 0.000000 -0.100000
vn 0.000000 0.000000 -0.100000
vn 0.000000 0.000000 -0.100000
vn 0.000000 0.000000 -0.100000
vn 0.000000 0.000000 -0.100000
vn 0.070711 0.070711 0.000000
vn 0.070711 0.070711 0.000000
vn 0.070711 0.070711 0.000000
vn 0.070711 0.070711 0.000000
vn -0.070711 0.070711 0.000000
vn -0.070711 0.070711 0.000000
vn -0.070711 0.070711 0.000000
vn -0.070711 0.070711 0.000000
vn 0.000000 0.000000 0.100000
vn 0.000000 0.000000 0.100000
vn 0.000000 0.000000 0.100000
vn 0.000000 0.000000 0.100000
vn 0.000000 0.000000 0.100000
f 32/91/91 33/92/92 31/93/93
f 31/93/93 33/92/92 34/94/94
f 36/95/95 34/96/96 35/97/97
f 35/97/97 34/96/96 33/98/98
f 31/99/99 37/100/100 32/101/101
f 32/101/101 37/100/100 38/102/102
f 34/103/103 36/104/104 31/105/105
f 31/105/105 36/104/104 37/106/106
f 37/106/106 36/104/104 39/107/107
f 40/108/108 38/109/109 39/110/110
f 39/110/110 38/109/109 37/111/111
f 35/112/112 40/113/113 36/114/114
f 36/114/114 40/113/113 39/115/115
f 33/116/116 32/117/117 35/118/118
f 35/118/118 32/117/117 38/119/119
f 35/118/118 38/119/119 40/120/120
# 40 vertices
# 120 texture params
# 120 normals
# 64 facets

# 4 groups
