# WaveFront *.obj file (generated by Autodesk ATF)

mtllib 3b9f1086-3c3b-4b3d-bf0c-06eac9f029da.mtl

g Body8

v -25.000000 -15.000000 4.000000
v -25.000000 15.000000 4.000000
v -25.000000 15.000000 4.500000
v -25.000000 -15.000000 4.500000
v 25.000000 15.000000 4.000000
v 25.000000 15.000000 4.500000
v 25.000000 5.000000 4.000000
v 25.000000 5.000000 2.500000
v 25.000000 -5.000000 2.500000
v 25.000000 -5.000000 4.000000
v 25.000000 -15.000000 4.000000
v 25.000000 -15.000000 4.500000
v 30.000000 20.000000 4.500000
v 30.000000 -20.000000 4.500000
v 30.000000 -20.000000 2.500000
v 30.000000 20.000000 2.500000
v -30.000000 20.000000 4.500000
v -30.000000 20.000000 2.500000
v -30.000000 -20.000000 4.500000
v -30.000000 -20.000000 2.500000
v -22.000000 5.000000 2.500000
v -22.000000 5.000000 4.000000
v -22.000000 -5.000000 2.500000
v -22.000000 -5.000000 4.000000
vt 3.000000 0.050000 0.000000
vt 0.000000 0.050000 0.000000
vt 3.000000 0.000000 0.000000
vt -0.000000 0.000000 0.000000
vt 5.000000 0.050000 0.000000
vt 0.000000 0.050000 0.000000
vt 5.000000 0.000000 0.000000
vt -0.000000 0.000000 0.000000
vt 2.000000 0.200000 0.000000
vt 1.000000 0.200000 0.000000
vt 2.000000 0.050000 0.000000
vt 1.000000 0.050000 0.000000
vt 3.000000 0.000000 0.000000
vt 0.000000 0.000000 0.000000
vt 0.000000 0.050000 0.000000
vt 3.000000 0.050000 0.000000
vt 5.000000 0.050000 0.000000
vt 0.000000 0.050000 0.000000
vt 5.000000 0.000000 0.000000
vt 0.000000 0.000000 0.000000
vt 0.000000 0.000000 0.000000
vt 4.000000 0.000000 0.000000
vt 0.000000 0.200000 0.000000
vt 4.000000 0.200000 0.000000
vt 0.000000 0.000000 0.000000
vt 6.000000 0.000000 0.000000
vt 0.000000 0.200000 0.000000
vt 6.000000 0.200000 0.000000
vt 0.000000 0.000000 0.000000
vt 4.000000 0.000000 0.000000
vt 0.000000 0.200000 0.000000
vt 4.000000 0.200000 0.000000
vt 0.000000 0.000000 0.000000
vt 6.000000 0.000000 0.000000
vt 0.000000 0.200000 0.000000
vt 6.000000 0.200000 0.000000
vt 2.500000 1.500000 0.000000
vt -3.000000 2.000000 0.000000
vt -2.500000 1.500000 0.000000
vt -3.000000 -2.000000 0.000000
vt -2.500000 -1.500000 0.000000
vt 3.000000 -2.000000 0.000000
vt 2.500000 -1.500000 0.000000
vt 3.000000 2.000000 0.000000
vt 0.000000 0.000000 0.000000
vt 4.700000 0.000000 0.000000
vt 0.000000 0.150000 0.000000
vt 4.700000 0.150000 0.000000
vt 0.000000 0.000000 0.000000
vt 1.000000 0.000000 0.000000
vt 0.000000 0.150000 0.000000
vt 1.000000 0.150000 0.000000
vt 0.000000 0.000000 0.000000
vt 4.700000 0.000000 0.000000
vt 0.000000 0.150000 0.000000
vt 4.700000 0.150000 0.000000
vt 2.500000 -1.500000 0.000000
vt -2.200000 -0.500000 0.000000
vt -2.500000 -1.500000 0.000000
vt -2.200000 0.500000 0.000000
vt -2.500000 1.500000 0.000000
vt 2.500000 1.500000 0.000000
vt 2.500000 0.500000 0.000000
vt 2.500000 -0.500000 0.000000
vt 3.000000 -2.000000 0.000000
vt 2.200000 -0.500000 0.000000
vt -3.000000 -2.000000 0.000000
vt -2.500000 -0.500000 0.000000
vt -2.500000 0.500000 0.000000
vt 2.200000 0.500000 0.000000
vt 3.000000 2.000000 0.000000
vt -3.000000 2.000000 0.000000
vn 0.100000 -0.000000 0.000000
vn 0.100000 -0.000000 0.000000
vn 0.100000 -0.000000 0.000000
vn 0.100000 -0.000000 0.000000
vn 0.000000 -0.100000 0.000000
vn 0.000000 -0.100000 0.000000
vn 0.000000 -0.100000 0.000000
vn 0.000000 -0.100000 0.000000
vn -0.100000 0.000000 0.000000
vn -0.100000 0.000000 0.000000
vn -0.100000 0.000000 0.000000
vn -0.100000 0.000000 0.000000
vn -0.100000 0.000000 0.000000
vn -0.100000 0.000000 0.000000
vn -0.100000 0.000000 0.000000
vn -0.100000 0.000000 0.000000
vn 0.000000 0.100000 0.000000
vn 0.000000 0.100000 0.000000
vn 0.000000 0.100000 0.000000
vn 0.000000 0.100000 0.000000
vn 0.100000 0.000000 0.000000
vn 0.100000 0.000000 0.000000
vn 0.100000 0.000000 0.000000
vn 0.100000 0.000000 0.000000
vn 0.000000 0.100000 0.000000
vn 0.000000 0.100000 0.000000
vn 0.000000 0.100000 0.000000
vn 0.000000 0.100000 0.000000
vn -0.100000 0.000000 0.000000
vn -0.100000 0.000000 0.000000
vn -0.100000 0.000000 0.000000
vn -0.100000 0.000000 0.000000
vn 0.000000 -0.100000 0.000000
vn 0.000000 -0.100000 0.000000
vn 0.000000 -0.100000 0.000000
vn 0.000000 -0.100000 0.000000
vn 0.000000 0.000000 0.100000
vn 0.000000 0.000000 0.100000
vn 0.000000 0.000000 0.100000
vn 0.000000 0.000000 0.100000
vn 0.000000 0.000000 0.100000
vn 0.000000 0.000000 0.100000
vn 0.000000 0.000000 0.100000
vn 0.000000 0.000000 0.100000
vn 0.000000 -0.100000 0.000000
vn 0.000000 -0.100000 0.000000
vn 0.000000 -0.100000 0.000000
vn 0.000000 -0.100000 0.000000
vn 0.100000 0.000000 0.000000
vn 0.100000 0.000000 0.000000
vn 0.100000 0.000000 0.000000
vn 0.100000 0.000000 0.000000
vn 0.000000 0.100000 0.000000
vn 0.000000 0.100000 0.000000
vn 0.000000 0.100000 0.000000
vn 0.000000 0.100000 0.000000
vn 0.000000 0.000000 0.100000
vn 0.000000 0.000000 0.100000
vn 0.000000 0.000000 0.100000
vn 0.000000 0.000000 0.100000
vn 0.000000 0.000000 0.100000
vn 0.000000 0.000000 0.100000
vn 0.000000 0.000000 0.100000
vn 0.000000 0.000000 0.100000
vn 0.000000 0.000000 -0.100000
vn 0.000000 0.000000 -0.100000
vn 0.000000 0.000000 -0.100000
vn 0.000000 0.000000 -0.100000
vn 0.000000 0.000000 -0.100000
vn 0.000000 0.000000 -0.100000
vn 0.000000 0.000000 -0.100000
vn 0.000000 0.000000 -0.100000
usemtl Steel_-_Satin
f 1/1/1 2/2/2 4/3/3
f 4/3/3 2/2/2 3/4/4
f 2/5/5 5/6/6 3/7/7
f 3/7/7 5/6/6 6/8/8
f 8/9/9 9/10/10 7/11/11
f 7/11/11 9/10/10 10/12/12
f 7/11/11 10/12/12 6/13/13
f 6/13/13 10/12/12 12/14/14
f 12/14/14 10/12/12 11/15/15
f 6/13/13 5/16/16 7/11/11
f 11/17/17 1/18/18 12/19/19
f 12/19/19 1/18/18 4/20/20
f 13/21/21 14/22/22 16/23/23
f 16/23/23 14/22/22 15/24/24
f 17/25/25 13/26/26 18/27/27
f 18/27/27 13/26/26 16/28/28
f 19/29/29 17/30/30 20/31/31
f 20/31/31 17/30/30 18/32/32
f 14/33/33 19/34/34 15/35/35
f 15/35/35 19/34/34 20/36/36
f 4/37/37 14/38/38 12/39/39
f 12/39/39 14/38/38 13/40/40
f 12/39/39 13/40/40 6/41/41
f 6/41/41 13/40/40 17/42/42
f 6/41/41 17/42/42 3/43/43
f 3/43/43 17/42/42 4/37/37
f 4/37/37 17/42/42 19/44/44
f 4/37/37 19/44/44 14/38/38
f 21/45/45 8/46/46 22/47/47
f 22/47/47 8/46/46 7/48/48
f 23/49/49 21/50/50 24/51/51
f 24/51/51 21/50/50 22/52/52
f 9/53/53 23/54/54 10/55/55
f 10/55/55 23/54/54 24/56/56
f 11/57/57 24/58/58 1/59/59
f 1/59/59 24/58/58 22/60/60
f 1/59/59 22/60/60 2/61/61
f 2/61/61 22/60/60 5/62/62
f 5/62/62 22/60/60 7/63/63
f 11/57/57 10/64/64 24/58/58
f 20/65/65 23/66/66 15/67/67
f 15/67/67 23/66/66 9/68/68
f 15/67/67 9/68/68 8/69/69
f 23/66/66 20/65/65 21/70/70
f 21/70/70 20/65/65 18/71/71
f 21/70/70 18/71/71 16/72/72
f 21/70/70 16/72/72 8/69/69
f 8/69/69 16/72/72 15/67/67
# 24 vertices
# 72 texture params
# 72 normals
# 48 facets

# 1 groups
