# WaveFront *.obj file (generated by Autodesk ATF)

mtllib fa0d5c4b-e928-4f9a-98a2-47acb01f9567.mtl

g Body11

v -2.000000 28.000000 0.000000
v -2.000000 2.000000 0.000000
v -2.000000 2.000000 2.000000
v -2.000000 28.000000 2.000000
v -28.000000 28.000000 0.000000
v -28.000000 28.000000 2.000000
v -28.000000 2.000000 0.000000
v -28.000000 2.000000 2.000000
v -30.000000 30.000000 0.000000
v -30.000000 0.000000 0.000000
v -30.000000 0.000000 2.000000
v -30.000000 30.000000 2.000000
v 0.000000 30.000000 0.000000
v 0.000000 30.000000 2.000000
v 0.000000 0.000000 0.000000
v 0.000000 0.000000 2.000000
vt 0.000000 0.000000 0.000000
vt 2.600000 0.000000 0.000000
vt 0.000000 0.200000 0.000000
vt 2.600000 0.200000 0.000000
vt 0.000000 0.000000 0.000000
vt 2.600000 0.000000 0.000000
vt 0.000000 0.200000 0.000000
vt 2.600000 0.200000 0.000000
vt 0.000000 0.000000 0.000000
vt 2.600000 0.000000 0.000000
vt 0.000000 0.200000 0.000000
vt 2.600000 0.200000 0.000000
vt 0.000000 0.000000 0.000000
vt 2.600000 0.000000 0.000000
vt 0.000000 0.200000 0.000000
vt 2.600000 0.200000 0.000000
vt -0.000000 0.000000 0.000000
vt 3.000000 0.000000 0.000000
vt -0.000000 0.200000 0.000000
vt 3.000000 0.200000 0.000000
vt -0.000000 0.000000 0.000000
vt 3.000000 0.000000 0.000000
vt -0.000000 0.200000 0.000000
vt 3.000000 0.200000 0.000000
vt 0.000000 0.000000 0.000000
vt 3.000000 0.000000 0.000000
vt 0.000000 0.200000 0.000000
vt 3.000000 0.200000 0.000000
vt 0.000000 0.000000 0.000000
vt 3.000000 0.000000 0.000000
vt 0.000000 0.200000 0.000000
vt 3.000000 0.200000 0.000000
vt -1.300000 -1.300000 0.000000
vt -1.500000 -1.500000 0.000000
vt 1.300000 -1.300000 0.000000
vt 1.500000 -1.500000 0.000000
vt 1.500000 1.500000 0.000000
vt -1.500000 1.500000 0.000000
vt -1.300000 1.300000 0.000000
vt 1.300000 1.300000 0.000000
vt -1.300000 -1.300000 0.000000
vt 1.500000 -1.500000 0.000000
vt 1.300000 -1.300000 0.000000
vt 1.500000 1.500000 0.000000
vt 1.300000 1.300000 0.000000
vt -1.300000 1.300000 0.000000
vt -1.500000 1.500000 0.000000
vt -1.500000 -1.500000 0.000000
vn -0.100000 0.000000 0.000000
vn -0.100000 0.000000 0.000000
vn -0.100000 0.000000 0.000000
vn -0.100000 0.000000 0.000000
vn 0.000000 -0.100000 0.000000
vn 0.000000 -0.100000 0.000000
vn 0.000000 -0.100000 0.000000
vn 0.000000 -0.100000 0.000000
vn 0.100000 0.000000 0.000000
vn 0.100000 0.000000 0.000000
vn 0.100000 0.000000 0.000000
vn 0.100000 0.000000 0.000000
vn 0.000000 0.100000 0.000000
vn 0.000000 0.100000 0.000000
vn 0.000000 0.100000 0.000000
vn 0.000000 0.100000 0.000000
vn -0.100000 0.000000 0.000000
vn -0.100000 0.000000 0.000000
vn -0.100000 0.000000 0.000000
vn -0.100000 0.000000 0.000000
vn 0.000000 0.100000 0.000000
vn 0.000000 0.100000 0.000000
vn 0.000000 0.100000 0.000000
vn 0.000000 0.100000 0.000000
vn 0.100000 0.000000 0.000000
vn 0.100000 0.000000 0.000000
vn 0.100000 0.000000 0.000000
vn 0.100000 0.000000 0.000000
vn 0.000000 -0.100000 0.000000
vn 0.000000 -0.100000 0.000000
vn 0.000000 -0.100000 0.000000
vn 0.000000 -0.100000 0.000000
vn 0.000000 0.000000 0.100000
vn 0.000000 0.000000 0.100000
vn 0.000000 0.000000 0.100000
vn 0.000000 0.000000 0.100000
vn 0.000000 0.000000 0.100000
vn 0.000000 0.000000 0.100000
vn 0.000000 0.000000 0.100000
vn 0.000000 0.000000 0.100000
vn -0.000000 0.000000 -0.100000
vn -0.000000 0.000000 -0.100000
vn -0.000000 0.000000 -0.100000
vn -0.000000 0.000000 -0.100000
vn -0.000000 0.000000 -0.100000
vn -0.000000 0.000000 -0.100000
vn -0.000000 0.000000 -0.100000
vn -0.000000 0.000000 -0.100000
usemtl Steel_-_Satin
f 1/1/1 2/2/2 4/3/3
f 4/3/3 2/2/2 3/4/4
f 5/5/5 1/6/6 6/7/7
f 6/7/7 1/6/6 4/8/8
f 7/9/9 5/10/10 8/11/11
f 8/11/11 5/10/10 6/12/12
f 2/13/13 7/14/14 3/15/15
f 3/15/15 7/14/14 8/16/16
f 9/17/17 10/18/18 12/19/19
f 12/19/19 10/18/18 11/20/20
f 13/21/21 9/22/22 14/23/23
f 14/23/23 9/22/22 12/24/24
f 15/25/25 13/26/26 16/27/27
f 16/27/27 13/26/26 14/28/28
f 10/29/29 15/30/30 11/31/31
f 11/31/31 15/30/30 16/32/32
f 8/33/33 11/34/34 3/35/35
f 3/35/35 11/34/34 16/36/36
f 3/35/35 16/36/36 14/37/37
f 11/34/34 8/33/33 12/38/38
f 12/38/38 8/33/33 6/39/39
f 12/38/38 6/39/39 4/40/40
f 12/38/38 4/40/40 14/37/37
f 14/37/37 4/40/40 3/35/35
f 2/41/41 10/42/42 7/43/43
f 7/43/43 10/42/42 9/44/44
f 7/43/43 9/44/44 5/45/45
f 5/45/45 9/44/44 1/46/46
f 1/46/46 9/44/44 13/47/47
f 1/46/46 13/47/47 2/41/41
f 2/41/41 13/47/47 15/48/48
f 2/41/41 15/48/48 10/42/42
g Body12

v -17.000000 17.000000 0.000000
v -18.000000 16.000000 0.000000
v -18.000000 16.000000 2.000000
v -17.000000 17.000000 2.000000
v -16.000000 17.000000 0.000000
v -16.000000 17.000000 2.000000
v -16.000000 16.000000 0.000000
v -16.000000 16.000000 2.000000
v -14.000000 16.000000 0.000000
v -14.000000 16.000000 2.000000
v -14.000000 17.000000 0.000000
v -14.000000 17.000000 2.000000
v -13.000000 17.000000 0.000000
v -13.000000 17.000000 2.000000
v -12.000000 16.000000 0.000000
v -12.000000 16.000000 2.000000
v -12.000000 15.000000 0.000000
v -12.000000 15.000000 2.000000
v -13.000000 15.000000 0.000000
v -13.000000 15.000000 2.000000
v -13.000000 13.000000 0.000000
v -13.000000 13.000000 2.000000
v -12.000000 13.000000 0.000000
v -12.000000 13.000000 2.000000
v -12.000000 12.000000 0.000000
v -12.000000 12.000000 2.000000
v -13.000000 11.000000 0.000000
v -13.000000 11.000000 2.000000
v -14.000000 11.000000 0.000000
v -14.000000 11.000000 2.000000
v -14.000000 12.000000 0.000000
v -14.000000 12.000000 2.000000
v -16.000000 12.000000 0.000000
v -16.000000 12.000000 2.000000
v -16.000000 11.000000 0.000000
v -16.000000 11.000000 2.000000
v -17.000000 11.000000 0.000000
v -17.000000 11.000000 2.000000
v -18.000000 12.000000 0.000000
v -18.000000 12.000000 2.000000
v -18.000000 13.000000 0.000000
v -18.000000 13.000000 2.000000
v -17.000000 13.000000 0.000000
v -17.000000 13.000000 2.000000
v -17.000000 15.000000 0.000000
v -17.000000 15.000000 2.000000
v -18.000000 15.000000 0.000000
v -18.000000 15.000000 2.000000
vt -0.000000 0.000000 0.000000
vt 0.141421 0.000000 0.000000
vt -0.000000 0.200000 0.000000
vt 0.141421 0.200000 0.000000
vt -0.000000 0.000000 0.000000
vt 0.100000 0.000000 0.000000
vt -0.000000 0.200000 0.000000
vt 0.100000 0.200000 0.000000
vt 0.000000 0.000000 0.000000
vt 0.100000 0.000000 0.000000
vt 0.000000 0.200000 0.000000
vt 0.100000 0.200000 0.000000
vt -0.000000 0.000000 0.000000
vt 0.200000 0.000000 0.000000
vt -0.000000 0.200000 0.000000
vt 0.200000 0.200000 0.000000
vt -0.000000 0.000000 0.000000
vt 0.100000 0.000000 0.000000
vt -0.000000 0.200000 0.000000
vt 0.100000 0.200000 0.000000
vt -0.000000 0.000000 0.000000
vt 0.100000 0.000000 0.000000
vt -0.000000 0.200000 0.000000
vt 0.100000 0.200000 0.000000
vt 0.000000 0.000000 0.000000
vt 0.141421 0.000000 0.000000
vt 0.000000 0.200000 0.000000
vt 0.141421 0.200000 0.000000
vt 0.000000 0.000000 0.000000
vt 0.100000 0.000000 0.000000
vt 0.000000 0.200000 0.000000
vt 0.100000 0.200000 0.000000
vt 0.000000 0.000000 0.000000
vt 0.100000 0.000000 0.000000
vt 0.000000 0.200000 0.000000
vt 0.100000 0.200000 0.000000
vt 0.000000 0.000000 0.000000
vt 0.200000 0.000000 0.000000
vt 0.000000 0.200000 0.000000
vt 0.200000 0.200000 0.000000
vt -0.000000 0.000000 0.000000
vt 0.100000 0.000000 0.000000
vt -0.000000 0.200000 0.000000
vt 0.100000 0.200000 0.000000
vt 0.000000 0.000000 0.000000
vt 0.100000 0.000000 0.000000
vt 0.000000 0.200000 0.000000
vt 0.100000 0.200000 0.000000
vt 0.000000 0.000000 0.000000
vt 0.141421 0.000000 0.000000
vt 0.000000 0.200000 0.000000
vt 0.141421 0.200000 0.000000
vt 0.000000 0.000000 0.000000
vt 0.100000 0.000000 0.000000
vt 0.000000 0.200000 0.000000
vt 0.100000 0.200000 0.000000
vt -0.000000 0.000000 0.000000
vt 0.100000 0.000000 0.000000
vt -0.000000 0.200000 0.000000
vt 0.100000 0.200000 0.000000
vt 0.000000 0.000000 0.000000
vt 0.200000 0.000000 0.000000
vt 0.000000 0.200000 0.000000
vt 0.200000 0.200000 0.000000
vt 0.000000 0.000000 0.000000
vt 0.100000 0.000000 0.000000
vt 0.000000 0.200000 0.000000
vt 0.100000 0.200000 0.000000
vt 0.000000 0.000000 0.000000
vt 0.100000 0.000000 0.000000
vt 0.000000 0.200000 0.000000
vt 0.100000 0.200000 0.000000
vt 0.000000 0.000000 0.000000
vt 0.141421 0.000000 0.000000
vt 0.000000 0.200000 0.000000
vt 0.141421 0.200000 0.000000
vt -0.000000 0.000000 0.000000
vt 0.100000 0.000000 0.000000
vt -0.000000 0.200000 0.000000
vt 0.100000 0.200000 0.000000
vt -0.000000 0.000000 0.000000
vt 0.100000 0.000000 0.000000
vt -0.000000 0.200000 0.000000
vt 0.100000 0.200000 0.000000
vt -0.000000 0.000000 0.000000
vt 0.200000 0.000000 0.000000
vt -0.000000 0.200000 0.000000
vt 0.200000 0.200000 0.000000
vt 0.000000 0.000000 0.000000
vt 0.100000 0.000000 0.000000
vt 0.000000 0.200000 0.000000
vt 0.100000 0.200000 0.000000
vt -0.000000 0.000000 0.000000
vt 0.100000 0.000000 0.000000
vt -0.000000 0.200000 0.000000
vt 0.100000 0.200000 0.000000
vt -0.300000 0.100000 0.000000
vt -0.200000 0.100000 0.000000
vt -0.300000 0.200000 0.000000
vt -0.100000 0.200000 0.000000
vt -0.200000 0.300000 0.000000
vt -0.100000 0.300000 0.000000
vt -0.200000 -0.100000 0.000000
vt 0.100000 -0.200000 0.000000
vt 0.200000 -0.100000 0.000000
vt 0.200000 0.100000 0.000000
vt 0.100000 0.200000 0.000000
vt 0.300000 0.200000 0.000000
vt 0.200000 0.300000 0.000000
vt -0.300000 -0.100000 0.000000
vt -0.300000 -0.200000 0.000000
vt -0.100000 -0.200000 0.000000
vt -0.200000 -0.300000 0.000000
vt -0.100000 -0.300000 0.000000
vt 0.100000 -0.300000 0.000000
vt 0.200000 -0.300000 0.000000
vt 0.300000 -0.200000 0.000000
vt 0.300000 -0.100000 0.000000
vt 0.300000 0.100000 0.000000
vt 0.100000 0.300000 0.000000
vt 0.300000 0.100000 0.000000
vt 0.300000 0.200000 0.000000
vt 0.200000 0.100000 0.000000
vt 0.100000 0.200000 0.000000
vt -0.100000 0.200000 0.000000
vt 0.200000 0.300000 0.000000
vt 0.100000 0.300000 0.000000
vt -0.100000 0.300000 0.000000
vt -0.200000 0.300000 0.000000
vt -0.300000 0.200000 0.000000
vt -0.200000 0.100000 0.000000
vt -0.300000 0.100000 0.000000
vt -0.200000 -0.100000 0.000000
vt 0.100000 -0.200000 0.000000
vt 0.200000 -0.100000 0.000000
vt -0.300000 -0.100000 0.000000
vt -0.300000 -0.200000 0.000000
vt -0.100000 -0.200000 0.000000
vt -0.200000 -0.300000 0.000000
vt -0.100000 -0.300000 0.000000
vt 0.100000 -0.300000 0.000000
vt 0.200000 -0.300000 0.000000
vt 0.300000 -0.200000 0.000000
vt 0.300000 -0.100000 0.000000
vn -0.070711 0.070711 0.000000
vn -0.070711 0.070711 0.000000
vn -0.070711 0.070711 0.000000
vn -0.070711 0.070711 0.000000
vn 0.000000 0.100000 0.000000
vn 0.000000 0.100000 0.000000
vn 0.000000 0.100000 0.000000
vn 0.000000 0.100000 0.000000
vn 0.100000 0.000000 0.000000
vn 0.100000 0.000000 0.000000
vn 0.100000 0.000000 0.000000
vn 0.100000 0.000000 0.000000
vn 0.000000 0.100000 0.000000
vn 0.000000 0.100000 0.000000
vn 0.000000 0.100000 0.000000
vn 0.000000 0.100000 0.000000
vn -0.100000 0.000000 0.000000
vn -0.100000 0.000000 0.000000
vn -0.100000 0.000000 0.000000
vn -0.100000 0.000000 0.000000
vn 0.000000 0.100000 0.000000
vn 0.000000 0.100000 0.000000
vn 0.000000 0.100000 0.000000
vn 0.000000 0.100000 0.000000
vn 0.070711 0.070711 0.000000
vn 0.070711 0.070711 0.000000
vn 0.070711 0.070711 0.000000
vn 0.070711 0.070711 0.000000
vn 0.100000 0.000000 0.000000
vn 0.100000 0.000000 0.000000
vn 0.100000 0.000000 0.000000
vn 0.100000 0.000000 0.000000
vn 0.000000 -0.100000 0.000000
vn 0.000000 -0.100000 0.000000
vn 0.000000 -0.100000 0.000000
vn 0.000000 -0.100000 0.000000
vn 0.100000 0.000000 0.000000
vn 0.100000 0.000000 0.000000
vn 0.100000 0.000000 0.000000
vn 0.100000 0.000000 0.000000
vn 0.000000 0.100000 0.000000
vn 0.000000 0.100000 0.000000
vn 0.000000 0.100000 0.000000
vn 0.000000 0.100000 0.000000
vn 0.100000 0.000000 0.000000
vn 0.100000 0.000000 0.000000
vn 0.100000 0.000000 0.000000
vn 0.100000 0.000000 0.000000
vn 0.070711 -0.070711 0.000000
vn 0.070711 -0.070711 0.000000
vn 0.070711 -0.070711 0.000000
vn 0.070711 -0.070711 0.000000
vn 0.000000 -0.100000 0.000000
vn 0.000000 -0.100000 0.000000
vn 0.000000 -0.100000 0.000000
vn 0.000000 -0.100000 0.000000
vn -0.100000 0.000000 0.000000
vn -0.100000 0.000000 0.000000
vn -0.100000 0.000000 0.000000
vn -0.100000 0.000000 0.000000
vn 0.000000 -0.100000 0.000000
vn 0.000000 -0.100000 0.000000
vn 0.000000 -0.100000 0.000000
vn 0.000000 -0.100000 0.000000
vn 0.100000 0.000000 0.000000
vn 0.100000 0.000000 0.000000
vn 0.100000 0.000000 0.000000
vn 0.100000 0.000000 0.000000
vn 0.000000 -0.100000 0.000000
vn 0.000000 -0.100000 0.000000
vn 0.000000 -0.100000 0.000000
vn 0.000000 -0.100000 0.000000
vn -0.070711 -0.070711 0.000000
vn -0.070711 -0.070711 0.000000
vn -0.070711 -0.070711 0.000000
vn -0.070711 -0.070711 0.000000
vn -0.100000 0.000000 0.000000
vn -0.100000 0.000000 0.000000
vn -0.100000 0.000000 0.000000
vn -0.100000 0.000000 0.000000
vn 0.000000 0.100000 0.000000
vn 0.000000 0.100000 0.000000
vn 0.000000 0.100000 0.000000
vn 0.000000 0.100000 0.000000
vn -0.100000 0.000000 0.000000
vn -0.100000 0.000000 0.000000
vn -0.100000 0.000000 0.000000
vn -0.100000 0.000000 0.000000
vn 0.000000 -0.100000 0.000000
vn 0.000000 -0.100000 0.000000
vn 0.000000 -0.100000 0.000000
vn 0.000000 -0.100000 0.000000
vn -0.100000 0.000000 0.000000
vn -0.100000 0.000000 0.000000
vn -0.100000 0.000000 0.000000
vn -0.100000 0.000000 0.000000
vn 0.000000 0.000000 0.100000
vn 0.000000 0.000000 0.100000
vn 0.000000 0.000000 0.100000
vn 0.000000 0.000000 0.100000
vn 0.000000 0.000000 0.100000
vn 0.000000 0.000000 0.100000
vn 0.000000 0.000000 0.100000
vn 0.000000 0.000000 0.100000
vn 0.000000 0.000000 0.100000
vn 0.000000 0.000000 0.100000
vn 0.000000 0.000000 0.100000
vn 0.000000 0.000000 0.100000
vn 0.000000 0.000000 0.100000
vn 0.000000 0.000000 0.100000
vn 0.000000 0.000000 0.100000
vn 0.000000 0.000000 0.100000
vn 0.000000 0.000000 0.100000
vn 0.000000 0.000000 0.100000
vn 0.000000 0.000000 0.100000
vn 0.000000 0.000000 0.100000
vn 0.000000 0.000000 0.100000
vn 0.000000 0.000000 0.100000
vn 0.000000 0.000000 0.100000
vn 0.000000 0.000000 0.100000
vn -0.000000 0.000000 -0.100000
vn -0.000000 0.000000 -0.100000
vn -0.000000 0.000000 -0.100000
vn -0.000000 0.000000 -0.100000
vn -0.000000 0.000000 -0.100000
vn -0.000000 0.000000 -0.100000
vn -0.000000 0.000000 -0.100000
vn -0.000000 0.000000 -0.100000
vn -0.000000 0.000000 -0.100000
vn -0.000000 0.000000 -0.100000
vn -0.000000 0.000000 -0.100000
vn -0.000000 0.000000 -0.100000
vn -0.000000 0.000000 -0.100000
vn -0.000000 0.000000 -0.100000
vn -0.000000 0.000000 -0.100000
vn -0.000000 0.000000 -0.100000
vn -0.000000 0.000000 -0.100000
vn -0.000000 0.000000 -0.100000
vn -0.000000 0.000000 -0.100000
vn -0.000000 0.000000 -0.100000
vn -0.000000 0.000000 -0.100000
vn -0.000000 0.000000 -0.100000
vn -0.000000 0.000000 -0.100000
vn -0.000000 0.000000 -0.100000
f 17/49/49 18/50/50 20/51/51
f 20/51/51 18/50/50 19/52/52
f 21/53/53 17/54/54 22/55/55
f 22/55/55 17/54/54 20/56/56
f 23/57/57 21/58/58 24/59/59
f 24/59/59 21/58/58 22/60/60
f 25/61/61 23/62/62 26/63/63
f 26/63/63 23/62/62 24/64/64
f 27/65/65 25/66/66 28/67/67
f 28/67/67 25/66/66 26/68/68
f 29/69/69 27/70/70 30/71/71
f 30/71/71 27/70/70 28/72/72
f 31/73/73 29/74/74 32/75/75
f 32/75/75 29/74/74 30/76/76
f 33/77/77 31/78/78 34/79/79
f 34/79/79 31/78/78 32/80/80
f 35/81/81 33/82/82 36/83/83
f 36/83/83 33/82/82 34/84/84
f 37/85/85 35/86/86 38/87/87
f 38/87/87 35/86/86 36/88/88
f 39/89/89 37/90/90 40/91/91
f 40/91/91 37/90/90 38/92/92
f 41/93/93 39/94/94 42/95/95
f 42/95/95 39/94/94 40/96/96
f 43/97/97 41/98/98 44/99/99
f 44/99/99 41/98/98 42/100/100
f 45/101/101 43/102/102 46/103/103
f 46/103/103 43/102/102 44/104/104
f 47/105/105 45/106/106 48/107/107
f 48/107/107 45/106/106 46/108/108
f 49/109/109 47/110/110 50/111/111
f 50/111/111 47/110/110 48/112/112
f 51/113/113 49/114/114 52/115/115
f 52/115/115 49/114/114 50/116/116
f 53/117/117 51/118/118 54/119/119
f 54/119/119 51/118/118 52/120/120
f 55/121/121 53/122/122 56/123/123
f 56/123/123 53/122/122 54/124/124
f 57/125/125 55/126/126 58/127/127
f 58/127/127 55/126/126 56/128/128
f 59/129/129 57/130/130 60/131/131
f 60/131/131 57/130/130 58/132/132
f 61/133/133 59/134/134 62/135/135
f 62/135/135 59/134/134 60/136/136
f 63/137/137 61/138/138 64/139/139
f 64/139/139 61/138/138 62/140/140
f 18/141/141 63/142/142 19/143/143
f 19/143/143 63/142/142 64/144/144
f 64/145/145 62/146/146 19/147/147
f 19/147/147 62/146/146 24/148/148
f 19/147/147 24/148/148 20/149/149
f 20/149/149 24/148/148 22/150/150
f 60/151/151 48/152/152 62/146/146
f 62/146/146 48/152/152 38/153/153
f 62/146/146 38/153/153 24/148/148
f 24/148/148 38/153/153 36/154/154
f 24/148/148 36/154/154 26/155/155
f 26/155/155 36/154/154 32/156/156
f 26/155/155 32/156/156 30/157/157
f 58/158/158 56/159/159 60/151/151
f 60/151/151 56/159/159 50/160/160
f 60/151/151 50/160/160 48/152/152
f 56/159/159 54/161/161 50/160/160
f 50/160/160 54/161/161 52/162/162
f 46/163/163 44/164/164 48/152/152
f 48/152/152 44/164/164 42/165/165
f 48/152/152 42/165/165 38/153/153
f 38/153/153 42/165/165 40/166/166
f 36/154/154 34/167/167 32/156/156
f 30/157/157 28/168/168 26/155/155
f 63/169/169 18/170/170 61/171/171
f 61/171/171 18/170/170 23/172/172
f 61/171/171 23/172/172 25/173/173
f 18/170/170 17/174/174 23/172/172
f 23/172/172 17/174/174 21/175/175
f 27/176/176 29/177/177 25/173/173
f 25/173/173 29/177/177 31/178/178
f 25/173/173 31/178/178 35/179/179
f 35/179/179 31/178/178 33/180/180
f 37/181/181 49/182/182 35/179/179
f 35/179/179 49/182/182 59/183/183
f 35/179/179 59/183/183 25/173/173
f 25/173/173 59/183/183 61/171/171
f 39/184/184 41/185/185 37/181/181
f 37/181/181 41/185/185 47/186/186
f 37/181/181 47/186/186 49/182/182
f 41/185/185 43/187/187 47/186/186
f 47/186/186 43/187/187 45/188/188
f 51/189/189 53/190/190 49/182/182
f 49/182/182 53/190/190 55/191/191
f 49/182/182 55/191/191 59/183/183
f 59/183/183 55/191/191 57/192/192
# 64 vertices
# 192 texture params
# 192 normals
# 124 facets

# 2 groups
