# WaveFront *.obj file (generated by Autodesk ATF)

mtllib 6c1ac233-9073-4259-ad47-9a61b7820f20.mtl

g Body1

v 6.000000 -9.000000 0.000000
v 6.000000 -8.233333 0.000000
v 6.000000 -8.233333 1.000000
v 6.000000 -9.000000 1.000000
v 9.000000 -9.000000 0.000000
v 9.000000 -9.000000 1.000000
v 9.000000 9.000000 0.000000
v 9.000000 9.000000 1.000000
v 6.000000 9.000000 0.000000
v 6.000000 9.000000 1.000000
v 6.000000 8.233333 0.000000
v 6.000000 8.233333 1.000000
v -9.000000 0.000000 0.000000
v -9.000000 0.000000 1.000000
v -10.000000 10.000000 0.000000
v -10.000000 -10.000000 0.000000
v -10.000000 -10.000000 1.000000
v -10.000000 10.000000 1.000000
v 10.000000 10.000000 0.000000
v 10.000000 10.000000 1.000000
v 10.000000 -10.000000 0.000000
v 10.000000 -10.000000 1.000000
vt 0.000000 0.000000 0.000000
vt 0.076667 0.000000 0.000000
vt 0.000000 0.100000 0.000000
vt 0.076667 0.100000 0.000000
vt -0.000000 0.000000 0.000000
vt 0.300000 0.000000 0.000000
vt -0.000000 0.100000 0.000000
vt 0.300000 0.100000 0.000000
vt -0.000000 0.000000 0.000000
vt 1.800000 0.000000 0.000000
vt -0.000000 0.100000 0.000000
vt 1.800000 0.100000 0.000000
vt 0.000000 0.000000 0.000000
vt 0.300000 0.000000 0.000000
vt 0.000000 0.100000 0.000000
vt 0.300000 0.100000 0.000000
vt 0.000000 0.000000 0.000000
vt 0.076667 0.000000 0.000000
vt 0.000000 0.100000 0.000000
vt 0.076667 0.100000 0.000000
vt 0.000000 0.000000 0.000000
vt 1.711104 0.000000 0.000000
vt 0.000000 0.100000 0.000000
vt 1.711104 0.100000 0.000000
vt 0.000000 0.000000 0.000000
vt 1.711104 0.000000 0.000000
vt 0.000000 0.100000 0.000000
vt 1.711104 0.100000 0.000000
vt -0.000000 0.000000 0.000000
vt 2.000000 0.000000 0.000000
vt -0.000000 0.100000 0.000000
vt 2.000000 0.100000 0.000000
vt -0.000000 0.000000 0.000000
vt 2.000000 0.000000 0.000000
vt -0.000000 0.100000 0.000000
vt 2.000000 0.100000 0.000000
vt 0.000000 0.000000 0.000000
vt 2.000000 0.000000 0.000000
vt 0.000000 0.100000 0.000000
vt 2.000000 0.100000 0.000000
vt 0.000000 0.000000 0.000000
vt 2.000000 0.000000 0.000000
vt 0.000000 0.100000 0.000000
vt 2.000000 0.100000 0.000000
vt 0.600000 -0.900000 0.000000
vt 0.600000 -0.823333 0.000000
vt -1.000000 -1.000000 0.000000
vt -0.900000 0.000000 0.000000
vt -1.000000 1.000000 0.000000
vt 0.600000 0.823333 0.000000
vt 0.600000 0.900000 0.000000
vt 1.000000 1.000000 0.000000
vt 0.900000 0.900000 0.000000
vt 1.000000 -1.000000 0.000000
vt 0.900000 -0.900000 0.000000
vt -0.600000 -0.823333 0.000000
vt 1.000000 -1.000000 0.000000
vt 0.900000 0.000000 0.000000
vt 1.000000 1.000000 0.000000
vt -0.600000 0.823333 0.000000
vt -0.600000 0.900000 0.000000
vt -1.000000 1.000000 0.000000
vt -0.900000 0.900000 0.000000
vt -1.000000 -1.000000 0.000000
vt -0.900000 -0.900000 0.000000
vt -0.600000 -0.900000 0.000000
vn 0.100000 0.000000 0.000000
vn 0.100000 0.000000 0.000000
vn 0.100000 0.000000 0.000000
vn 0.100000 0.000000 0.000000
vn 0.000000 0.100000 0.000000
vn 0.000000 0.100000 0.000000
vn 0.000000 0.100000 0.000000
vn 0.000000 0.100000 0.000000
vn -0.100000 0.000000 0.000000
vn -0.100000 0.000000 0.000000
vn -0.100000 0.000000 0.000000
vn -0.100000 0.000000 0.000000
vn 0.000000 -0.100000 0.000000
vn 0.000000 -0.100000 0.000000
vn 0.000000 -0.100000 0.000000
vn 0.000000 -0.100000 0.000000
vn 0.100000 0.000000 0.000000
vn 0.100000 0.000000 0.000000
vn 0.100000 0.000000 0.000000
vn 0.100000 0.000000 0.000000
vn 0.048117 -0.087663 0.000000
vn 0.048117 -0.087663 0.000000
vn 0.048117 -0.087663 0.000000
vn 0.048117 -0.087663 0.000000
vn 0.048117 0.087663 0.000000
vn 0.048117 0.087663 0.000000
vn 0.048117 0.087663 0.000000
vn 0.048117 0.087663 0.000000
vn -0.100000 0.000000 0.000000
vn -0.100000 0.000000 0.000000
vn -0.100000 0.000000 0.000000
vn -0.100000 0.000000 0.000000
vn 0.000000 0.100000 0.000000
vn 0.000000 0.100000 0.000000
vn 0.000000 0.100000 0.000000
vn 0.000000 0.100000 0.000000
vn 0.100000 0.000000 0.000000
vn 0.100000 0.000000 0.000000
vn 0.100000 0.000000 0.000000
vn 0.100000 0.000000 0.000000
vn 0.000000 -0.100000 0.000000
vn 0.000000 -0.100000 0.000000
vn 0.000000 -0.100000 0.000000
vn 0.000000 -0.100000 0.000000
vn 0.000000 0.000000 0.100000
vn 0.000000 0.000000 0.100000
vn 0.000000 0.000000 0.100000
vn 0.000000 0.000000 0.100000
vn 0.000000 0.000000 0.100000
vn 0.000000 0.000000 0.100000
vn 0.000000 0.000000 0.100000
vn 0.000000 0.000000 0.100000
vn 0.000000 0.000000 0.100000
vn 0.000000 0.000000 0.100000
vn 0.000000 0.000000 0.100000
vn -0.000000 0.000000 -0.100000
vn -0.000000 0.000000 -0.100000
vn -0.000000 0.000000 -0.100000
vn -0.000000 0.000000 -0.100000
vn -0.000000 0.000000 -0.100000
vn -0.000000 0.000000 -0.100000
vn -0.000000 0.000000 -0.100000
vn -0.000000 0.000000 -0.100000
vn -0.000000 0.000000 -0.100000
vn -0.000000 0.000000 -0.100000
vn -0.000000 0.000000 -0.100000
usemtl Steel_-_Satin
f 1/1/1 2/2/2 4/3/3
f 4/3/3 2/2/2 3/4/4
f 5/5/5 1/6/6 6/7/7
f 6/7/7 1/6/6 4/8/8
f 7/9/9 5/10/10 8/11/11
f 8/11/11 5/10/10 6/12/12
f 9/13/13 7/14/14 10/15/15
f 10/15/15 7/14/14 8/16/16
f 11/17/17 9/18/18 12/19/19
f 12/19/19 9/18/18 10/20/20
f 13/21/21 11/22/22 14/23/23
f 14/23/23 11/22/22 12/24/24
f 2/25/25 13/26/26 3/27/27
f 3/27/27 13/26/26 14/28/28
f 15/29/29 16/30/30 18/31/31
f 18/31/31 16/30/30 17/32/32
f 19/33/33 15/34/34 20/35/35
f 20/35/35 15/34/34 18/36/36
f 21/37/37 19/38/38 22/39/39
f 22/39/39 19/38/38 20/40/40
f 16/41/41 21/42/42 17/43/43
f 17/43/43 21/42/42 22/44/44
f 4/45/45 3/46/46 17/47/47
f 17/47/47 3/46/46 14/48/48
f 17/47/47 14/48/48 18/49/49
f 18/49/49 14/48/48 12/50/50
f 18/49/49 12/50/50 10/51/51
f 18/49/49 10/51/51 20/52/52
f 20/52/52 10/51/51 8/53/53
f 20/52/52 8/53/53 22/54/54
f 22/54/54 8/53/53 6/55/55
f 22/54/54 6/55/55 4/45/45
f 22/54/54 4/45/45 17/47/47
f 2/56/56 16/57/57 13/58/58
f 13/58/58 16/57/57 15/59/59
f 13/58/58 15/59/59 11/60/60
f 11/60/60 15/59/59 9/61/61
f 9/61/61 15/59/59 19/62/62
f 9/61/61 19/62/62 7/63/63
f 7/63/63 19/62/62 21/64/64
f 7/63/63 21/64/64 5/65/65
f 5/65/65 21/64/64 1/66/66
f 1/66/66 21/64/64 16/57/57
f 1/66/66 16/57/57 2/56/56
g Body2

v -5.750000 -0.000000 1.000000
v -5.724444 -0.194114 1.000000
v -5.649519 -0.375000 1.000000
v -5.530330 -0.530330 1.000000
v -5.375000 -0.649519 1.000000
v -5.194114 -0.724444 1.000000
v -5.000000 -0.750000 1.000000
v -4.805886 -0.724444 1.000000
v -4.625000 -0.649519 1.000000
v -4.469670 -0.530330 1.000000
v -4.350481 -0.375000 1.000000
v -4.275556 -0.194114 1.000000
v -4.250000 0.000000 1.000000
v -4.275556 0.194114 1.000000
v -4.350481 0.375000 1.000000
v -4.469670 0.530330 1.000000
v -4.625000 0.649519 1.000000
v -4.805886 0.724444 1.000000
v -5.000000 0.750000 1.000000
v -5.194114 0.724444 1.000000
v -5.375000 0.649519 1.000000
v -5.530330 0.530330 1.000000
v -5.649519 0.375000 1.000000
v -5.724444 0.194114 1.000000
v -5.750000 -0.000000 0.000000
v -5.724444 0.194114 0.000000
v -5.649519 0.375000 0.000000
v -5.530330 0.530330 0.000000
v -5.375000 0.649519 0.000000
v -5.194114 0.724444 0.000000
v -5.000000 0.750000 0.000000
v -4.805886 0.724444 0.000000
v -4.625000 0.649519 0.000000
v -4.469670 0.530330 0.000000
v -4.350481 0.375000 0.000000
v -4.275556 0.194114 0.000000
v -4.250000 0.000000 0.000000
v -4.275556 -0.194114 0.000000
v -4.350481 -0.375000 0.000000
v -4.469670 -0.530330 0.000000
v -4.625000 -0.649519 0.000000
v -4.805886 -0.724444 0.000000
v -5.000000 -0.750000 0.000000
v -5.194114 -0.724444 0.000000
v -5.375000 -0.649519 0.000000
v -5.530330 -0.530330 0.000000
v -5.649519 -0.375000 0.000000
v -5.724444 -0.194114 0.000000
v 7.000000 -8.000000 0.000000
v 7.000000 8.000000 0.000000
v 7.000000 8.000000 1.000000
v 7.000000 -8.000000 1.000000
v -8.000000 0.000000 0.000000
v -8.000000 0.000000 1.000000
vt 0.100000 -0.215984 0.000000
vt 0.000000 -0.215984 0.000000
vt 0.100000 -0.235619 0.000000
vt 0.000000 -0.235619 0.000000
vt 0.100000 0.235619 0.000000
vt 0.000000 0.235619 0.000000
vt 0.100000 0.215984 0.000000
vt 0.000000 0.215984 0.000000
vt 0.100000 0.196350 0.000000
vt -0.000000 0.196350 0.000000
vt 0.100000 0.176715 0.000000
vt 0.000000 0.176715 0.000000
vt 0.100000 0.157080 0.000000
vt -0.000000 0.157080 0.000000
vt 0.100000 0.137445 0.000000
vt 0.000000 0.137445 0.000000
vt 0.100000 0.117810 0.000000
vt 0.000000 0.117810 0.000000
vt 0.100000 0.098175 0.000000
vt 0.000000 0.098175 0.000000
vt 0.100000 0.078540 0.000000
vt 0.000000 0.078540 0.000000
vt 0.100000 0.058905 0.000000
vt -0.000000 0.058905 0.000000
vt 0.100000 0.039270 0.000000
vt 0.000000 0.039270 0.000000
vt 0.100000 0.019635 0.000000
vt 0.000000 0.019635 0.000000
vt 0.100000 0.000000 0.000000
vt 0.000000 0.000000 0.000000
vt 0.100000 -0.019635 0.000000
vt 0.000000 -0.019635 0.000000
vt 0.100000 -0.039270 0.000000
vt -0.000000 -0.039270 0.000000
vt 0.100000 -0.058905 0.000000
vt 0.000000 -0.058905 0.000000
vt 0.100000 -0.078540 0.000000
vt -0.000000 -0.078540 0.000000
vt 0.100000 -0.098175 0.000000
vt 0.000000 -0.098175 0.000000
vt 0.100000 -0.117810 0.000000
vt 0.000000 -0.117810 0.000000
vt 0.100000 -0.137445 0.000000
vt -0.000000 -0.137445 0.000000
vt 0.100000 -0.157080 0.000000
vt 0.000000 -0.157080 0.000000
vt 0.100000 -0.176715 0.000000
vt 0.000000 -0.176715 0.000000
vt 0.100000 -0.196350 0.000000
vt -0.000000 -0.196350 0.000000
vt 0.000000 0.000000 0.000000
vt 1.600000 0.000000 0.000000
vt 0.000000 0.100000 0.000000
vt 1.600000 0.100000 0.000000
vt 0.000000 0.000000 0.000000
vt 1.700000 0.000000 0.000000
vt 0.000000 0.100000 0.000000
vt 1.700000 0.100000 0.000000
vt -0.000000 0.000000 0.000000
vt 1.700000 0.000000 0.000000
vt -0.000000 0.100000 0.000000
vt 1.700000 0.100000 0.000000
vt -0.522444 -0.019411 0.000000
vt -0.525000 -0.000000 0.000000
vt -0.750000 0.000000 0.000000
vt -0.522444 0.019411 0.000000
vt -0.514952 0.037500 0.000000
vt -0.503033 0.053033 0.000000
vt -0.487500 0.064952 0.000000
vt -0.469411 0.072444 0.000000
vt 0.750000 0.800000 0.000000
vt -0.450000 0.075000 0.000000
vt -0.430589 0.072444 0.000000
vt -0.412500 0.064952 0.000000
vt -0.396967 0.053033 0.000000
vt -0.385048 0.037500 0.000000
vt -0.377556 0.019411 0.000000
vt -0.375000 0.000000 0.000000
vt 0.750000 -0.800000 0.000000
vt -0.377556 -0.019411 0.000000
vt -0.385048 -0.037500 0.000000
vt -0.396967 -0.053033 0.000000
vt -0.412500 -0.064952 0.000000
vt -0.430589 -0.072444 0.000000
vt -0.450000 -0.075000 0.000000
vt -0.469411 -0.072444 0.000000
vt -0.487500 -0.064952 0.000000
vt -0.503033 -0.053033 0.000000
vt -0.514952 -0.037500 0.000000
vt 0.522444 0.019411 0.000000
vt 0.525000 -0.000000 0.000000
vt 0.750000 0.000000 0.000000
vt 0.522444 -0.019411 0.000000
vt 0.514952 -0.037500 0.000000
vt 0.503033 -0.053033 0.000000
vt 0.487500 -0.064952 0.000000
vt 0.469411 -0.072444 0.000000
vt -0.750000 -0.800000 0.000000
vt 0.450000 -0.075000 0.000000
vt 0.430589 -0.072444 0.000000
vt 0.412500 -0.064952 0.000000
vt 0.396967 -0.053033 0.000000
vt 0.385048 -0.037500 0.000000
vt 0.377556 -0.019411 0.000000
vt 0.375000 0.000000 0.000000
vt -0.750000 0.800000 0.000000
vt 0.377556 0.019411 0.000000
vt 0.385048 0.037500 0.000000
vt 0.396967 0.053033 0.000000
vt 0.412500 0.064952 0.000000
vt 0.430589 0.072444 0.000000
vt 0.450000 0.075000 0.000000
vt 0.469411 0.072444 0.000000
vt 0.487500 0.064952 0.000000
vt 0.503033 0.053033 0.000000
vt 0.514952 0.037500 0.000000
vn 0.096593 0.025882 0.000000
vn 0.096593 0.025882 0.000000
vn 0.100000 0.000000 0.000000
vn 0.100000 0.000000 0.000000
vn 0.096593 -0.025882 0.000000
vn 0.096593 -0.025882 0.000000
vn 0.086603 -0.050000 0.000000
vn 0.086603 -0.050000 0.000000
vn 0.070711 -0.070711 0.000000
vn 0.070711 -0.070711 0.000000
vn 0.050000 -0.086603 0.000000
vn 0.050000 -0.086603 0.000000
vn 0.025882 -0.096593 0.000000
vn 0.025882 -0.096593 0.000000
vn -0.000000 -0.100000 0.000000
vn -0.000000 -0.100000 0.000000
vn -0.025882 -0.096593 0.000000
vn -0.025882 -0.096593 0.000000
vn -0.050000 -0.086603 0.000000
vn -0.050000 -0.086603 0.000000
vn -0.070711 -0.070711 0.000000
vn -0.070711 -0.070711 0.000000
vn -0.086603 -0.050000 0.000000
vn -0.086603 -0.050000 0.000000
vn -0.096593 -0.025882 0.000000
vn -0.096593 -0.025882 0.000000
vn -0.100000 0.000000 0.000000
vn -0.100000 0.000000 0.000000
vn -0.096593 0.025882 0.000000
vn -0.096593 0.025882 0.000000
vn -0.086603 0.050000 0.000000
vn -0.086603 0.050000 0.000000
vn -0.070711 0.070711 0.000000
vn -0.070711 0.070711 0.000000
vn -0.050000 0.086603 0.000000
vn -0.050000 0.086603 0.000000
vn -0.025882 0.096593 0.000000
vn -0.025882 0.096593 0.000000
vn -0.000000 0.100000 0.000000
vn -0.000000 0.100000 0.000000
vn 0.025882 0.096593 0.000000
vn 0.025882 0.096593 0.000000
vn 0.050000 0.086603 0.000000
vn 0.050000 0.086603 0.000000
vn 0.070711 0.070711 0.000000
vn 0.070711 0.070711 0.000000
vn 0.086603 0.050000 0.000000
vn 0.086603 0.050000 0.000000
vn 0.100000 0.000000 0.000000
vn 0.100000 0.000000 0.000000
vn 0.100000 0.000000 0.000000
vn 0.100000 0.000000 0.000000
vn -0.047059 -0.088235 0.000000
vn -0.047059 -0.088235 0.000000
vn -0.047059 -0.088235 0.000000
vn -0.047059 -0.088235 0.000000
vn -0.047059 0.088235 0.000000
vn -0.047059 0.088235 0.000000
vn -0.047059 0.088235 0.000000
vn -0.047059 0.088235 0.000000
vn 0.000000 0.000000 0.100000
vn 0.000000 0.000000 0.100000
vn 0.000000 0.000000 0.100000
vn 0.000000 0.000000 0.100000
vn 0.000000 0.000000 0.100000
vn 0.000000 0.000000 0.100000
vn 0.000000 0.000000 0.100000
vn 0.000000 0.000000 0.100000
vn 0.000000 0.000000 0.100000
vn 0.000000 0.000000 0.100000
vn 0.000000 0.000000 0.100000
vn 0.000000 0.000000 0.100000
vn 0.000000 0.000000 0.100000
vn 0.000000 0.000000 0.100000
vn 0.000000 0.000000 0.100000
vn 0.000000 0.000000 0.100000
vn 0.000000 0.000000 0.100000
vn 0.000000 0.000000 0.100000
vn 0.000000 0.000000 0.100000
vn 0.000000 0.000000 0.100000
vn 0.000000 0.000000 0.100000
vn 0.000000 0.000000 0.100000
vn 0.000000 0.000000 0.100000
vn 0.000000 0.000000 0.100000
vn 0.000000 0.000000 0.100000
vn 0.000000 0.000000 0.100000
vn 0.000000 0.000000 0.100000
vn -0.000000 0.000000 -0.100000
vn -0.000000 0.000000 -0.100000
vn -0.000000 0.000000 -0.100000
vn -0.000000 0.000000 -0.100000
vn -0.000000 0.000000 -0.100000
vn -0.000000 0.000000 -0.100000
vn -0.000000 0.000000 -0.100000
vn -0.000000 0.000000 -0.100000
vn -0.000000 0.000000 -0.100000
vn -0.000000 0.000000 -0.100000
vn -0.000000 0.000000 -0.100000
vn -0.000000 0.000000 -0.100000
vn -0.000000 0.000000 -0.100000
vn -0.000000 0.000000 -0.100000
vn -0.000000 0.000000 -0.100000
vn -0.000000 0.000000 -0.100000
vn -0.000000 0.000000 -0.100000
vn -0.000000 0.000000 -0.100000
vn -0.000000 0.000000 -0.100000
vn -0.000000 0.000000 -0.100000
vn -0.000000 0.000000 -0.100000
vn -0.000000 0.000000 -0.100000
vn -0.000000 0.000000 -0.100000
vn -0.000000 0.000000 -0.100000
vn -0.000000 0.000000 -0.100000
vn -0.000000 0.000000 -0.100000
vn -0.000000 0.000000 -0.100000
f 24/67/67 70/68/68 23/69/69
f 23/69/69 70/68/68 47/70/70
f 23/71/69 47/72/70 46/73/71
f 46/73/71 47/72/70 48/74/72
f 46/73/71 48/74/72 45/75/73
f 45/75/73 48/74/72 49/76/74
f 45/75/73 49/76/74 44/77/75
f 44/77/75 49/76/74 50/78/76
f 44/77/75 50/78/76 43/79/77
f 43/79/77 50/78/76 51/80/78
f 43/79/77 51/80/78 42/81/79
f 42/81/79 51/80/78 52/82/80
f 42/81/79 52/82/80 41/83/81
f 41/83/81 52/82/80 53/84/82
f 41/83/81 53/84/82 40/85/83
f 40/85/83 53/84/82 54/86/84
f 40/85/83 54/86/84 39/87/85
f 39/87/85 54/86/84 55/88/86
f 39/87/85 55/88/86 38/89/87
f 38/89/87 55/88/86 56/90/88
f 38/89/87 56/90/88 37/91/89
f 37/91/89 56/90/88 57/92/90
f 37/91/89 57/92/90 36/93/91
f 36/93/91 57/92/90 58/94/92
f 36/93/91 58/94/92 35/95/93
f 35/95/93 58/94/92 59/96/94
f 35/95/93 59/96/94 34/97/95
f 34/97/95 59/96/94 60/98/96
f 34/97/95 60/98/96 33/99/97
f 33/99/97 60/98/96 61/100/98
f 33/99/97 61/100/98 32/101/99
f 32/101/99 61/100/98 62/102/100
f 32/101/99 62/102/100 31/103/101
f 31/103/101 62/102/100 63/104/102
f 31/103/101 63/104/102 30/105/103
f 30/105/103 63/104/102 64/106/104
f 30/105/103 64/106/104 29/107/105
f 29/107/105 64/106/104 65/108/106
f 29/107/105 65/108/106 28/109/107
f 28/109/107 65/108/106 66/110/108
f 28/109/107 66/110/108 27/111/109
f 27/111/109 66/110/108 67/112/110
f 27/111/109 67/112/110 26/113/111
f 26/113/111 67/112/110 68/114/112
f 26/113/111 68/114/112 25/115/113
f 25/115/113 68/114/112 69/116/114
f 25/115/113 69/116/114 24/67/67
f 24/67/67 69/116/114 70/68/68
f 71/117/115 72/118/116 74/119/117
f 74/119/117 72/118/116 73/120/118
f 75/121/119 71/122/120 76/123/121
f 76/123/121 71/122/120 74/124/122
f 72/125/123 75/126/124 73/127/125
f 73/127/125 75/126/124 76/128/126
f 24/129/127 23/130/128 76/131/129
f 76/131/129 23/130/128 46/132/130
f 76/131/129 46/132/130 45/133/131
f 45/133/131 44/134/132 76/131/129
f 76/131/129 44/134/132 43/135/133
f 76/131/129 43/135/133 42/136/134
f 76/131/129 42/136/134 73/137/135
f 73/137/135 42/136/134 41/138/136
f 73/137/135 41/138/136 40/139/137
f 40/139/137 39/140/138 73/137/135
f 73/137/135 39/140/138 38/141/139
f 73/137/135 38/141/139 37/142/140
f 37/142/140 36/143/141 73/137/135
f 73/137/135 36/143/141 35/144/142
f 73/137/135 35/144/142 74/145/143
f 74/145/143 35/144/142 34/146/144
f 74/145/143 34/146/144 33/147/145
f 33/147/145 32/148/146 74/145/143
f 74/145/143 32/148/146 31/149/147
f 74/145/143 31/149/147 30/150/148
f 30/150/148 29/151/149 74/145/143
f 74/145/143 29/151/149 28/152/150
f 74/145/143 28/152/150 76/131/129
f 76/131/129 28/152/150 27/153/151
f 76/131/129 27/153/151 26/154/152
f 26/154/152 25/155/153 76/131/129
f 76/131/129 25/155/153 24/129/127
f 48/156/154 47/157/155 75/158/156
f 75/158/156 47/157/155 70/159/157
f 75/158/156 70/159/157 69/160/158
f 69/160/158 68/161/159 75/158/156
f 75/158/156 68/161/159 67/162/160
f 75/158/156 67/162/160 66/163/161
f 75/158/156 66/163/161 71/164/162
f 71/164/162 66/163/161 65/165/163
f 71/164/162 65/165/163 64/166/164
f 64/166/164 63/167/165 71/164/162
f 71/164/162 63/167/165 62/168/166
f 71/164/162 62/168/166 61/169/167
f 61/169/167 60/170/168 71/164/162
f 71/164/162 60/170/168 59/171/169
f 71/164/162 59/171/169 72/172/170
f 72/172/170 59/171/169 58/173/171
f 72/172/170 58/173/171 57/174/172
f 57/174/172 56/175/173 72/172/170
f 72/172/170 56/175/173 55/176/174
f 72/172/170 55/176/174 54/177/175
f 54/177/175 53/178/176 72/172/170
f 72/172/170 53/178/176 52/179/177
f 72/172/170 52/179/177 75/158/156
f 75/158/156 52/179/177 51/180/178
f 75/158/156 51/180/178 50/181/179
f 50/181/179 49/182/180 75/158/156
f 75/158/156 49/182/180 48/156/154
# 76 vertices
# 182 texture params
# 180 normals
# 152 facets

# 2 groups
