# WaveFront *.obj file (generated by Autodesk ATF)

mtllib 3c897d9d-026f-4db1-9f8f-7f610323b427.mtl

g Body8

v -22.000000 20.000000 0.100000
v -21.931852 19.482362 0.100000
v -21.732051 19.000000 0.100000
v -21.414214 18.585787 0.100000
v -21.000000 18.267949 0.100000
v -20.517638 18.068149 0.100000
v -20.000000 18.000000 0.100000
v -19.482362 18.068149 0.100000
v -19.000000 18.267949 0.100000
v -18.585787 18.585787 0.100000
v -18.267949 19.000000 0.100000
v -18.068149 19.482362 0.100000
v -18.000000 20.000000 0.100000
v -18.068149 20.517638 0.100000
v -18.267949 21.000000 0.100000
v -18.585787 21.414214 0.100000
v -19.000000 21.732051 0.100000
v -19.482362 21.931852 0.100000
v -20.000000 22.000000 0.100000
v -20.517638 21.931852 0.100000
v -21.000000 21.732051 0.100000
v -21.414214 21.414214 0.100000
v -21.732051 21.000000 0.100000
v -21.931852 20.517638 0.100000
v -22.000000 20.000000 2.000000
v -21.931852 19.482362 2.000000
v -21.732051 19.000000 2.000000
v -21.414214 18.585787 2.000000
v -21.000000 18.267949 2.000000
v -20.517638 18.068149 2.000000
v -20.000000 18.000000 2.000000
v -19.482362 18.068149 2.000000
v -19.000000 18.267949 2.000000
v -18.585787 18.585787 2.000000
v -18.267949 19.000000 2.000000
v -18.068149 19.482362 2.000000
v -18.000000 20.000000 2.000000
v -18.068149 20.517638 2.000000
v -18.267949 21.000000 2.000000
v -18.585787 21.414214 2.000000
v -19.000000 21.732051 2.000000
v -19.482362 21.931852 2.000000
v -20.000000 22.000000 2.000000
v -20.517638 21.931852 2.000000
v -21.000000 21.732051 2.000000
v -21.414214 21.414214 2.000000
v -21.732051 21.000000 2.000000
v -21.931852 20.517638 2.000000
v 0.000000 35.000001 2.000000
v -5.000000 35.000001 2.000000
v -5.000000 40.000001 2.000000
v -35.000001 40.000001 2.000000
v -35.000001 35.000001 2.000000
v -40.000001 35.000001 2.000000
v -40.000001 5.000000 2.000000
v -35.000001 5.000000 2.000000
v -35.000001 0.000000 2.000000
v -5.000000 0.000000 2.000000
v -5.000000 5.000000 2.000000
v 0.000000 5.000000 2.000000
v -5.000000 35.000001 12.000000
v -5.000000 40.000001 12.000000
v 0.000000 35.000001 12.000000
v 0.000000 40.000001 12.000000
v -5.000000 5.000000 12.000000
v 0.000000 5.000000 12.000000
v -5.000000 0.000000 12.000000
v 0.000000 0.000000 0.000000
v 0.000000 40.000001 0.000000
v 0.000000 0.000000 12.000000
v -35.000001 5.000000 12.000000
v -35.000001 0.000000 12.000000
v -40.000001 5.000000 12.000000
v -40.000001 0.000000 0.000000
v -40.000001 0.000000 12.000000
v -35.000001 35.000001 12.000000
v -40.000001 35.000001 12.000000
v -35.000001 40.000001 12.000000
v -40.000001 40.000001 0.000000
v -40.000001 40.000001 12.000000
vt -0.193185 -0.051764 0.000000
vt 0.193185 -0.051764 0.000000
vt -0.200000 0.000000 0.000000
vt 0.200000 0.000000 0.000000
vt -0.193185 0.051764 0.000000
vt 0.193185 0.051764 0.000000
vt -0.173205 0.100000 0.000000
vt 0.173205 0.100000 0.000000
vt -0.141421 0.141421 0.000000
vt 0.141421 0.141421 0.000000
vt -0.100000 0.173205 0.000000
vt 0.100000 0.173205 0.000000
vt -0.051764 0.193185 0.000000
vt 0.051764 0.193185 0.000000
vt 0.000000 0.200000 0.000000
vt 0.173205 -0.100000 0.000000
vt -0.173205 -0.100000 0.000000
vt 0.141421 -0.141421 0.000000
vt -0.141421 -0.141421 0.000000
vt 0.100000 -0.173205 0.000000
vt -0.100000 -0.173205 0.000000
vt 0.051764 -0.193185 0.000000
vt -0.051764 -0.193185 0.000000
vt 0.000000 -0.200000 0.000000
vt 0.010000 0.575959 0.000000
vt 0.200000 0.575959 0.000000
vt 0.010000 0.628319 0.000000
vt 0.200000 0.628319 0.000000
vt 0.010000 -0.628319 0.000000
vt 0.200000 -0.628319 0.000000
vt 0.010000 -0.575959 0.000000
vt 0.200000 -0.575959 0.000000
vt 0.010000 -0.523599 0.000000
vt 0.200000 -0.523599 0.000000
vt 0.010000 -0.471239 0.000000
vt 0.200000 -0.471239 0.000000
vt 0.010000 -0.418879 0.000000
vt 0.200000 -0.418879 0.000000
vt 0.010000 -0.366519 0.000000
vt 0.200000 -0.366519 0.000000
vt 0.010000 -0.314159 0.000000
vt 0.200000 -0.314159 0.000000
vt 0.010000 -0.261799 0.000000
vt 0.200000 -0.261799 0.000000
vt 0.010000 -0.209440 0.000000
vt 0.200000 -0.209440 0.000000
vt 0.010000 -0.157080 0.000000
vt 0.200000 -0.157080 0.000000
vt 0.010000 -0.104720 0.000000
vt 0.200000 -0.104720 0.000000
vt 0.010000 -0.052360 0.000000
vt 0.200000 -0.052360 0.000000
vt 0.010000 0.000000 0.000000
vt 0.200000 0.000000 0.000000
vt 0.010000 0.052360 0.000000
vt 0.200000 0.052360 0.000000
vt 0.010000 0.104720 0.000000
vt 0.200000 0.104720 0.000000
vt 0.010000 0.157080 0.000000
vt 0.200000 0.157080 0.000000
vt 0.010000 0.209440 0.000000
vt 0.200000 0.209440 0.000000
vt 0.010000 0.261799 0.000000
vt 0.200000 0.261799 0.000000
vt 0.010000 0.314159 0.000000
vt 0.200000 0.314159 0.000000
vt 0.010000 0.366519 0.000000
vt 0.200000 0.366519 0.000000
vt 0.010000 0.418879 0.000000
vt 0.200000 0.418879 0.000000
vt 0.010000 0.471239 0.000000
vt 0.200000 0.471239 0.000000
vt 0.010000 0.523599 0.000000
vt 0.200000 0.523599 0.000000
vt -0.193185 0.051764 0.000000
vt -1.500000 1.500000 0.000000
vt -0.200000 0.000000 0.000000
vt -1.500000 -1.500000 0.000000
vt -0.193185 -0.051764 0.000000
vt -0.173205 -0.100000 0.000000
vt -0.141421 -0.141421 0.000000
vt -0.100000 -0.173205 0.000000
vt -0.051764 -0.193185 0.000000
vt 0.000000 -0.200000 0.000000
vt 1.500000 -1.500000 0.000000
vt 0.051764 -0.193185 0.000000
vt 0.100000 -0.173205 0.000000
vt 0.141421 -0.141421 0.000000
vt 0.173205 -0.100000 0.000000
vt 0.193185 -0.051764 0.000000
vt 0.200000 0.000000 0.000000
vt 1.500000 1.500000 0.000000
vt 0.193185 0.051764 0.000000
vt 0.173205 0.100000 0.000000
vt 0.141421 0.141421 0.000000
vt 0.100000 0.173205 0.000000
vt 0.051764 0.193185 0.000000
vt 0.000000 0.200000 0.000000
vt -0.051764 0.193185 0.000000
vt -0.100000 0.173205 0.000000
vt -0.141421 0.141421 0.000000
vt -0.173205 0.100000 0.000000
vt 2.000000 1.500000 0.000000
vt 2.000000 -1.500000 0.000000
vt 1.500000 2.000000 0.000000
vt -1.500000 2.000000 0.000000
vt -2.000000 1.500000 0.000000
vt -2.000000 -1.500000 0.000000
vt -1.500000 -2.000000 0.000000
vt 1.500000 -2.000000 0.000000
vt -0.000000 0.200000 0.000000
vt 0.500000 0.200000 0.000000
vt -0.000000 1.200000 0.000000
vt 0.500000 1.200000 0.000000
vt 0.000000 0.200000 0.000000
vt 0.500000 0.200000 0.000000
vt 0.000000 1.200000 0.000000
vt 0.500000 1.200000 0.000000
vt -0.250000 -0.250000 0.000000
vt 0.250000 -0.250000 0.000000
vt -0.250000 0.250000 0.000000
vt 0.250000 0.250000 0.000000
vt 0.000000 0.200000 0.000000
vt 0.500000 0.200000 0.000000
vt 0.000000 1.200000 0.000000
vt 0.500000 1.200000 0.000000
vt 0.000000 0.200000 0.000000
vt 0.500000 0.200000 0.000000
vt 0.000000 1.200000 0.000000
vt 0.500000 1.200000 0.000000
vt 0.000000 1.200000 0.000000
vt 0.000000 0.000000 0.000000
vt 0.500000 0.200000 0.000000
vt 4.000000 0.000000 0.000000
vt 3.500000 0.200000 0.000000
vt 4.000000 1.200000 0.000000
vt 3.500000 1.200000 0.000000
vt 0.500000 1.200000 0.000000
vt -0.250000 -0.250000 0.000000
vt 0.250000 -0.250000 0.000000
vt -0.250000 0.250000 0.000000
vt 0.250000 0.250000 0.000000
vt 0.000000 0.200000 0.000000
vt 0.500000 0.200000 0.000000
vt 0.000000 1.200000 0.000000
vt 0.500000 1.200000 0.000000
vt -0.000000 0.200000 0.000000
vt 0.500000 0.200000 0.000000
vt -0.000000 1.200000 0.000000
vt 0.500000 1.200000 0.000000
vt 0.000000 1.200000 0.000000
vt 0.000000 0.000000 0.000000
vt 0.500000 0.200000 0.000000
vt 4.000000 0.000000 0.000000
vt 3.500000 0.200000 0.000000
vt 4.000000 1.200000 0.000000
vt 3.500000 1.200000 0.000000
vt 0.500000 1.200000 0.000000
vt -0.250000 -0.250000 0.000000
vt 0.250000 -0.250000 0.000000
vt -0.250000 0.250000 0.000000
vt 0.250000 0.250000 0.000000
vt 0.000000 0.200000 0.000000
vt 0.500000 0.200000 0.000000
vt 0.000000 1.200000 0.000000
vt 0.500000 1.200000 0.000000
vt 0.000000 0.200000 0.000000
vt 0.500000 0.200000 0.000000
vt 0.000000 1.200000 0.000000
vt 0.500000 1.200000 0.000000
vt -0.000000 1.200000 0.000000
vt -0.000000 0.000000 0.000000
vt 0.500000 0.200000 0.000000
vt 4.000000 0.000000 0.000000
vt 3.500000 0.200000 0.000000
vt 4.000000 1.200000 0.000000
vt 3.500000 1.200000 0.000000
vt 0.500000 1.200000 0.000000
vt -3.500000 1.200000 0.000000
vt -3.500000 0.000000 0.000000
vt -3.000000 0.200000 0.000000
vt 0.500000 0.000000 0.000000
vt -0.000000 0.200000 0.000000
vt 0.500000 1.200000 0.000000
vt -0.000000 1.200000 0.000000
vt -3.000000 1.200000 0.000000
vt -0.250000 -0.250000 0.000000
vt 0.250000 -0.250000 0.000000
vt -0.250000 0.250000 0.000000
vt 0.250000 0.250000 0.000000
vt 0.250000 0.250000 0.000000
vt -3.750000 0.250000 0.000000
vt 0.250000 -3.750000 0.000000
vt -3.750000 -3.750000 0.000000
vn 0.000000 0.000000 0.100000
vn 0.000000 0.000000 0.100000
vn 0.000000 0.000000 0.100000
vn 0.000000 0.000000 0.100000
vn 0.000000 0.000000 0.100000
vn 0.000000 0.000000 0.100000
vn 0.000000 0.000000 0.100000
vn 0.000000 0.000000 0.100000
vn 0.000000 0.000000 0.100000
vn 0.000000 0.000000 0.100000
vn 0.000000 0.000000 0.100000
vn 0.000000 0.000000 0.100000
vn 0.000000 0.000000 0.100000
vn 0.000000 0.000000 0.100000
vn 0.000000 0.000000 0.100000
vn 0.000000 0.000000 0.100000
vn 0.000000 0.000000 0.100000
vn 0.000000 0.000000 0.100000
vn 0.000000 0.000000 0.100000
vn 0.000000 0.000000 0.100000
vn 0.000000 0.000000 0.100000
vn 0.000000 0.000000 0.100000
vn 0.000000 0.000000 0.100000
vn 0.000000 0.000000 0.100000
vn 0.096593 -0.025882 0.000000
vn 0.096593 -0.025882 0.000000
vn 0.100000 -0.000000 0.000000
vn 0.100000 -0.000000 0.000000
vn 0.096593 0.025882 0.000000
vn 0.096593 0.025882 0.000000
vn 0.086603 0.050000 0.000000
vn 0.086603 0.050000 0.000000
vn 0.070711 0.070711 0.000000
vn 0.070711 0.070711 0.000000
vn 0.050000 0.086603 0.000000
vn 0.050000 0.086603 0.000000
vn 0.025882 0.096593 0.000000
vn 0.025882 0.096593 0.000000
vn -0.000000 0.100000 0.000000
vn -0.000000 0.100000 0.000000
vn -0.025882 0.096593 0.000000
vn -0.025882 0.096593 0.000000
vn -0.050000 0.086603 0.000000
vn -0.050000 0.086603 0.000000
vn -0.070711 0.070711 0.000000
vn -0.070711 0.070711 0.000000
vn -0.086603 0.050000 0.000000
vn -0.086603 0.050000 0.000000
vn -0.096593 0.025882 0.000000
vn -0.096593 0.025882 0.000000
vn -0.100000 0.000000 0.000000
vn -0.100000 0.000000 0.000000
vn -0.096593 -0.025882 0.000000
vn -0.096593 -0.025882 0.000000
vn -0.086603 -0.050000 0.000000
vn -0.086603 -0.050000 0.000000
vn -0.070711 -0.070711 0.000000
vn -0.070711 -0.070711 0.000000
vn -0.050000 -0.086603 0.000000
vn -0.050000 -0.086603 0.000000
vn -0.025882 -0.096593 0.000000
vn -0.025882 -0.096593 0.000000
vn -0.000000 -0.100000 0.000000
vn -0.000000 -0.100000 0.000000
vn 0.025882 -0.096593 0.000000
vn 0.025882 -0.096593 0.000000
vn 0.050000 -0.086603 0.000000
vn 0.050000 -0.086603 0.000000
vn 0.070711 -0.070711 0.000000
vn 0.070711 -0.070711 0.000000
vn 0.086603 -0.050000 0.000000
vn 0.086603 -0.050000 0.000000
vn 0.000000 0.000000 0.100000
vn 0.000000 0.000000 0.100000
vn 0.000000 0.000000 0.100000
vn 0.000000 0.000000 0.100000
vn 0.000000 0.000000 0.100000
vn 0.000000 0.000000 0.100000
vn 0.000000 0.000000 0.100000
vn 0.000000 0.000000 0.100000
vn 0.000000 0.000000 0.100000
vn 0.000000 0.000000 0.100000
vn 0.000000 0.000000 0.100000
vn 0.000000 0.000000 0.100000
vn 0.000000 0.000000 0.100000
vn 0.000000 0.000000 0.100000
vn 0.000000 0.000000 0.100000
vn 0.000000 0.000000 0.100000
vn 0.000000 0.000000 0.100000
vn 0.000000 0.000000 0.100000
vn 0.000000 0.000000 0.100000
vn 0.000000 0.000000 0.100000
vn 0.000000 0.000000 0.100000
vn 0.000000 0.000000 0.100000
vn 0.000000 0.000000 0.100000
vn 0.000000 0.000000 0.100000
vn 0.000000 0.000000 0.100000
vn 0.000000 0.000000 0.100000
vn 0.000000 0.000000 0.100000
vn 0.000000 0.000000 0.100000
vn 0.000000 0.000000 0.100000
vn 0.000000 0.000000 0.100000
vn 0.000000 0.000000 0.100000
vn 0.000000 0.000000 0.100000
vn 0.000000 0.000000 0.100000
vn 0.000000 0.000000 0.100000
vn 0.000000 0.000000 0.100000
vn 0.000000 0.000000 0.100000
vn -0.100000 0.000000 0.000000
vn -0.100000 0.000000 0.000000
vn -0.100000 0.000000 0.000000
vn -0.100000 0.000000 0.000000
vn 0.000000 -0.100000 0.000000
vn 0.000000 -0.100000 0.000000
vn 0.000000 -0.100000 0.000000
vn 0.000000 -0.100000 0.000000
vn 0.000000 0.000000 0.100000
vn 0.000000 0.000000 0.100000
vn 0.000000 0.000000 0.100000
vn 0.000000 0.000000 0.100000
vn 0.000000 0.100000 0.000000
vn 0.000000 0.100000 0.000000
vn 0.000000 0.100000 0.000000
vn 0.000000 0.100000 0.000000
vn -0.100000 0.000000 0.000000
vn -0.100000 0.000000 0.000000
vn -0.100000 0.000000 0.000000
vn -0.100000 0.000000 0.000000
vn 0.100000 0.000000 0.000000
vn 0.100000 0.000000 0.000000
vn 0.100000 0.000000 0.000000
vn 0.100000 0.000000 0.000000
vn 0.100000 0.000000 0.000000
vn 0.100000 0.000000 0.000000
vn 0.100000 0.000000 0.000000
vn 0.100000 0.000000 0.000000
vn 0.000000 0.000000 0.100000
vn 0.000000 0.000000 0.100000
vn 0.000000 0.000000 0.100000
vn 0.000000 0.000000 0.100000
vn 0.100000 0.000000 0.000000
vn 0.100000 0.000000 0.000000
vn 0.100000 0.000000 0.000000
vn 0.100000 0.000000 0.000000
vn 0.000000 0.100000 0.000000
vn 0.000000 0.100000 0.000000
vn 0.000000 0.100000 0.000000
vn 0.000000 0.100000 0.000000
vn 0.000000 -0.100000 0.000000
vn 0.000000 -0.100000 0.000000
vn 0.000000 -0.100000 0.000000
vn 0.000000 -0.100000 0.000000
vn 0.000000 -0.100000 0.000000
vn 0.000000 -0.100000 0.000000
vn 0.000000 -0.100000 0.000000
vn 0.000000 -0.100000 0.000000
vn 0.000000 0.000000 0.100000
vn 0.000000 0.000000 0.100000
vn 0.000000 0.000000 0.100000
vn 0.000000 0.000000 0.100000
vn 0.000000 -0.100000 0.000000
vn 0.000000 -0.100000 0.000000
vn 0.000000 -0.100000 0.000000
vn 0.000000 -0.100000 0.000000
vn 0.100000 0.000000 0.000000
vn 0.100000 0.000000 0.000000
vn 0.100000 0.000000 0.000000
vn 0.100000 0.000000 0.000000
vn -0.100000 0.000000 0.000000
vn -0.100000 0.000000 0.000000
vn -0.100000 0.000000 0.000000
vn -0.100000 0.000000 0.000000
vn -0.100000 0.000000 0.000000
vn -0.100000 0.000000 0.000000
vn -0.100000 0.000000 0.000000
vn -0.100000 0.000000 0.000000
vn 0.000000 0.100000 0.000000
vn 0.000000 0.100000 0.000000
vn 0.000000 0.100000 0.000000
vn 0.000000 0.100000 0.000000
vn 0.000000 0.100000 0.000000
vn 0.000000 0.100000 0.000000
vn 0.000000 0.100000 0.000000
vn 0.000000 0.100000 0.000000
vn 0.000000 0.000000 0.100000
vn 0.000000 0.000000 0.100000
vn 0.000000 0.000000 0.100000
vn 0.000000 0.000000 0.100000
vn -0.000000 0.000000 -0.100000
vn -0.000000 0.000000 -0.100000
vn -0.000000 0.000000 -0.100000
vn -0.000000 0.000000 -0.100000
usemtl Steel_-_Satin
f 2/1/1 12/2/2 1/3/3
f 1/3/3 12/2/2 13/4/4
f 1/3/3 13/4/4 24/5/5
f 24/5/5 13/4/4 14/6/6
f 24/5/5 14/6/6 23/7/7
f 23/7/7 14/6/6 15/8/8
f 23/7/7 15/8/8 22/9/9
f 22/9/9 15/8/8 16/10/10
f 22/9/9 16/10/10 21/11/11
f 21/11/11 16/10/10 17/12/12
f 21/11/11 17/12/12 20/13/13
f 20/13/13 17/12/12 18/14/14
f 20/13/13 18/14/14 19/15/15
f 12/2/2 2/1/1 11/16/16
f 11/16/16 2/1/1 3/17/17
f 11/16/16 3/17/17 10/18/18
f 10/18/18 3/17/17 4/19/19
f 10/18/18 4/19/19 9/20/20
f 9/20/20 4/19/19 5/21/21
f 9/20/20 5/21/21 8/22/22
f 8/22/22 5/21/21 6/23/23
f 8/22/22 6/23/23 7/24/24
f 24/25/25 48/26/26 1/27/27
f 1/27/27 48/26/26 25/28/28
f 1/29/27 25/30/28 2/31/29
f 2/31/29 25/30/28 26/32/30
f 2/31/29 26/32/30 3/33/31
f 3/33/31 26/32/30 27/34/32
f 3/33/31 27/34/32 4/35/33
f 4/35/33 27/34/32 28/36/34
f 4/35/33 28/36/34 5/37/35
f 5/37/35 28/36/34 29/38/36
f 5/37/35 29/38/36 6/39/37
f 6/39/37 29/38/36 30/40/38
f 6/39/37 30/40/38 7/41/39
f 7/41/39 30/40/38 31/42/40
f 7/41/39 31/42/40 8/43/41
f 8/43/41 31/42/40 32/44/42
f 8/43/41 32/44/42 9/45/43
f 9/45/43 32/44/42 33/46/44
f 9/45/43 33/46/44 10/47/45
f 10/47/45 33/46/44 34/48/46
f 10/47/45 34/48/46 11/49/47
f 11/49/47 34/48/46 35/50/48
f 11/49/47 35/50/48 12/51/49
f 12/51/49 35/50/48 36/52/50
f 12/51/49 36/52/50 13/53/51
f 13/53/51 36/52/50 37/54/52
f 13/53/51 37/54/52 14/55/53
f 14/55/53 37/54/52 38/56/54
f 14/55/53 38/56/54 15/57/55
f 15/57/55 38/56/54 39/58/56
f 15/57/55 39/58/56 16/59/57
f 16/59/57 39/58/56 40/60/58
f 16/59/57 40/60/58 17/61/59
f 17/61/59 40/60/58 41/62/60
f 17/61/59 41/62/60 18/63/61
f 18/63/61 41/62/60 42/64/62
f 18/63/61 42/64/62 19/65/63
f 19/65/63 42/64/62 43/66/64
f 19/65/63 43/66/64 20/67/65
f 20/67/65 43/66/64 44/68/66
f 20/67/65 44/68/66 21/69/67
f 21/69/67 44/68/66 45/70/68
f 21/69/67 45/70/68 22/71/69
f 22/71/69 45/70/68 46/72/70
f 22/71/69 46/72/70 23/73/71
f 23/73/71 46/72/70 47/74/72
f 23/73/71 47/74/72 24/25/25
f 24/25/25 47/74/72 48/26/26
f 48/75/73 53/76/74 25/77/75
f 25/77/75 53/76/74 56/78/76
f 25/77/75 56/78/76 26/79/77
f 26/79/77 56/78/76 27/80/78
f 27/80/78 56/78/76 28/81/79
f 28/81/79 56/78/76 29/82/80
f 29/82/80 56/78/76 30/83/81
f 30/83/81 56/78/76 31/84/82
f 31/84/82 56/78/76 59/85/83
f 31/84/82 59/85/83 32/86/84
f 32/86/84 59/85/83 33/87/85
f 33/87/85 59/85/83 34/88/86
f 34/88/86 59/85/83 35/89/87
f 35/89/87 59/85/83 36/90/88
f 36/90/88 59/85/83 37/91/89
f 37/91/89 59/85/83 50/92/90
f 37/91/89 50/92/90 38/93/91
f 38/93/91 50/92/90 39/94/92
f 39/94/92 50/92/90 40/95/93
f 40/95/93 50/92/90 41/96/94
f 41/96/94 50/92/90 42/97/95
f 42/97/95 50/92/90 43/98/96
f 43/98/96 50/92/90 53/76/74
f 43/98/96 53/76/74 44/99/97
f 44/99/97 53/76/74 45/100/98
f 45/100/98 53/76/74 46/101/99
f 46/101/99 53/76/74 47/102/100
f 47/102/100 53/76/74 48/75/73
f 49/103/101 50/92/90 60/104/102
f 60/104/102 50/92/90 59/85/83
f 51/105/103 52/106/104 50/92/90
f 50/92/90 52/106/104 53/76/74
f 53/76/74 54/107/105 56/78/76
f 56/78/76 54/107/105 55/108/106
f 57/109/107 58/110/108 56/78/76
f 56/78/76 58/110/108 59/85/83
f 51/111/109 50/112/110 62/113/111
f 62/113/111 50/112/110 61/114/112
f 50/115/113 49/116/114 61/117/115
f 61/117/115 49/116/114 63/118/116
f 61/119/117 63/120/118 62/121/119
f 62/121/119 63/120/118 64/122/120
f 60/123/121 59/124/122 66/125/123
f 66/125/123 59/124/122 65/126/124
f 59/127/125 58/128/126 65/129/127
f 65/129/127 58/128/126 67/130/128
f 70/131/129 68/132/130 60/133/131
f 60/133/131 68/132/130 69/134/132
f 60/133/131 69/134/132 49/135/133
f 49/135/133 69/134/132 64/136/134
f 49/135/133 64/136/134 63/137/135
f 60/133/131 66/138/136 70/131/129
f 67/139/137 70/140/138 65/141/139
f 65/141/139 70/140/138 66/142/140
f 57/143/141 56/144/142 72/145/143
f 72/145/143 56/144/142 71/146/144
f 56/147/145 55/148/146 71/149/147
f 71/149/147 55/148/146 73/150/148
f 75/151/149 74/152/150 57/153/151
f 57/153/151 74/152/150 68/154/152
f 57/153/151 68/154/152 58/155/153
f 58/155/153 68/154/152 70/156/154
f 58/155/153 70/156/154 67/157/155
f 57/153/151 72/158/156 75/151/149
f 75/159/157 72/160/158 73/161/159
f 73/161/159 72/160/158 71/162/160
f 54/163/161 53/164/162 77/165/163
f 77/165/163 53/164/162 76/166/164
f 53/167/165 52/168/166 76/169/167
f 76/169/167 52/168/166 78/170/168
f 80/171/169 79/172/170 54/173/171
f 54/173/171 79/172/170 74/174/172
f 54/173/171 74/174/172 55/175/173
f 55/175/173 74/174/172 75/176/174
f 55/175/173 75/176/174 73/177/175
f 54/173/171 77/178/176 80/171/169
f 64/179/177 69/180/178 51/181/179
f 51/181/179 69/180/178 79/182/180
f 51/181/179 79/182/180 52/183/181
f 52/183/181 79/182/180 80/184/182
f 52/183/181 80/184/182 78/185/183
f 51/181/179 62/186/184 64/179/177
f 77/187/185 76/188/186 80/189/187
f 80/189/187 76/188/186 78/190/188
f 79/191/189 69/192/190 74/193/191
f 74/193/191 69/192/190 68/194/192
# 80 vertices
# 194 texture params
# 192 normals
# 156 facets

# 1 groups
