# WaveFront *.obj file (generated by Autodesk ATF)

mtllib f5e4cd03-fae3-4914-a9a5-c567f5ac2538.mtl

g Body1

v 20.000000 -15.000000 12.000000
v 20.000000 -20.000000 12.000000
v 20.000000 -20.000000 0.000000
v 20.000000 20.000000 0.000000
v 20.000000 20.000000 12.000000
v 20.000000 15.000000 12.000000
v 20.000000 15.000000 2.000000
v 20.000000 -15.000000 2.000000
v 15.000000 15.000000 12.000000
v 15.000000 15.000000 2.000000
v 15.000000 20.000000 12.000000
v 15.000000 20.000000 2.000000
v 15.000000 -15.000000 12.000000
v 15.000000 -15.000000 2.000000
v 15.000000 -20.000000 12.000000
v 15.000000 -20.000000 2.000000
v -20.000000 -20.000000 0.000000
v -20.000000 20.000000 0.000000
v -20.000000 15.000000 12.000000
v -15.000000 15.000000 12.000000
v -15.000000 20.000000 12.000000
v -20.000000 20.000000 12.000000
v -20.000000 -20.000000 12.000000
v -15.000000 -20.000000 12.000000
v -15.000000 -15.000000 12.000000
v -20.000000 -15.000000 12.000000
v -20.000000 -15.000000 2.000000
v -20.000000 15.000000 2.000000
v -15.000000 -15.000000 2.000000
v -15.000000 20.000000 2.000000
v -15.000000 15.000000 2.000000
v -15.000000 -20.000000 2.000000
vt 0.000000 1.200000 0.000000
vt -0.500000 1.200000 0.000000
vt 0.000000 0.200000 0.000000
vt -0.500000 0.000000 0.000000
vt 3.500000 0.000000 0.000000
vt 3.000000 0.200000 0.000000
vt 3.500000 1.200000 0.000000
vt 3.000000 1.200000 0.000000
vt 0.500000 1.200000 0.000000
vt 0.000000 1.200000 0.000000
vt 0.500000 0.200000 0.000000
vt 0.000000 0.200000 0.000000
vt 0.500000 1.200000 0.000000
vt -0.000000 1.200000 0.000000
vt 0.500000 0.200000 0.000000
vt -0.000000 0.200000 0.000000
vt 0.500000 1.200000 0.000000
vt -0.000000 1.200000 0.000000
vt 0.500000 0.200000 0.000000
vt -0.000000 0.200000 0.000000
vt 0.500000 1.200000 0.000000
vt -0.000000 1.200000 0.000000
vt 0.500000 0.200000 0.000000
vt -0.000000 0.200000 0.000000
vt -0.250000 -0.250000 0.000000
vt 0.250000 -0.250000 0.000000
vt -0.250000 0.250000 0.000000
vt 0.250000 0.250000 0.000000
vt -0.250000 -0.250000 0.000000
vt 0.250000 -0.250000 0.000000
vt -0.250000 0.250000 0.000000
vt 0.250000 0.250000 0.000000
vt -1.000000 -2.000000 0.000000
vt 3.000000 -2.000000 0.000000
vt -1.000000 2.000000 0.000000
vt 3.000000 2.000000 0.000000
vt -0.250000 -0.250000 0.000000
vt 0.250000 -0.250000 0.000000
vt -0.250000 0.250000 0.000000
vt 0.250000 0.250000 0.000000
vt -0.250000 -0.250000 0.000000
vt 0.250000 -0.250000 0.000000
vt -0.250000 0.250000 0.000000
vt 0.250000 0.250000 0.000000
vt -0.000000 1.200000 0.000000
vt -0.500000 1.200000 0.000000
vt -0.000000 0.200000 0.000000
vt -0.500000 0.000000 0.000000
vt 3.500000 0.000000 0.000000
vt 3.000000 0.200000 0.000000
vt 3.500000 1.200000 0.000000
vt 3.000000 1.200000 0.000000
vt 0.500000 1.200000 0.000000
vt -0.000000 1.200000 0.000000
vt 0.500000 0.200000 0.000000
vt -0.000000 0.200000 0.000000
vt 1.500000 1.200000 0.000000
vt 1.500000 0.000000 0.000000
vt 2.000000 0.200000 0.000000
vt 5.500000 0.000000 0.000000
vt 5.000000 0.200000 0.000000
vt 5.500000 1.200000 0.000000
vt 5.000000 1.200000 0.000000
vt 2.000000 1.200000 0.000000
vt 0.500000 1.200000 0.000000
vt 0.000000 1.200000 0.000000
vt 0.500000 0.200000 0.000000
vt 0.000000 0.200000 0.000000
vt 0.500000 1.200000 0.000000
vt 0.000000 1.200000 0.000000
vt 0.500000 0.200000 0.000000
vt 0.000000 0.200000 0.000000
vt 0.500000 1.200000 0.000000
vt 0.000000 1.200000 0.000000
vt 0.500000 0.200000 0.000000
vt 0.000000 0.200000 0.000000
vt 3.500000 0.000000 0.000000
vt 3.000000 0.200000 0.000000
vt 3.500000 1.200000 0.000000
vt 3.000000 1.200000 0.000000
vt 0.000000 1.200000 0.000000
vt -0.500000 1.200000 0.000000
vt 0.000000 0.200000 0.000000
vt -0.500000 0.000000 0.000000
vt 0.500000 2.000000 0.000000
vt -2.500000 2.000000 0.000000
vt 0.500000 1.500000 0.000000
vt -2.500000 1.500000 0.000000
vt 0.500000 -1.500000 0.000000
vt -2.500000 -1.500000 0.000000
vt 0.500000 -2.000000 0.000000
vt -2.500000 -2.000000 0.000000
vt -3.000000 1.500000 0.000000
vt -3.000000 -1.500000 0.000000
vt 1.000000 -1.500000 0.000000
vt 1.000000 1.500000 0.000000
vn 0.100000 0.000000 0.000000
vn 0.100000 0.000000 0.000000
vn 0.100000 0.000000 0.000000
vn 0.100000 0.000000 0.000000
vn 0.100000 0.000000 0.000000
vn 0.100000 0.000000 0.000000
vn 0.100000 0.000000 0.000000
vn 0.100000 0.000000 0.000000
vn 0.000000 -0.100000 0.000000
vn 0.000000 -0.100000 0.000000
vn 0.000000 -0.100000 0.000000
vn 0.000000 -0.100000 0.000000
vn -0.100000 0.000000 0.000000
vn -0.100000 0.000000 0.000000
vn -0.100000 0.000000 0.000000
vn -0.100000 0.000000 0.000000
vn 0.000000 0.100000 0.000000
vn 0.000000 0.100000 0.000000
vn 0.000000 0.100000 0.000000
vn 0.000000 0.100000 0.000000
vn -0.100000 0.000000 0.000000
vn -0.100000 0.000000 0.000000
vn -0.100000 0.000000 0.000000
vn -0.100000 0.000000 0.000000
vn 0.000000 0.000000 0.100000
vn 0.000000 0.000000 0.100000
vn 0.000000 0.000000 0.100000
vn 0.000000 0.000000 0.100000
vn 0.000000 0.000000 0.100000
vn 0.000000 0.000000 0.100000
vn 0.000000 0.000000 0.100000
vn 0.000000 0.000000 0.100000
vn 0.000000 0.000000 -0.100000
vn 0.000000 0.000000 -0.100000
vn 0.000000 0.000000 -0.100000
vn 0.000000 0.000000 -0.100000
vn 0.000000 0.000000 0.100000
vn 0.000000 0.000000 0.100000
vn 0.000000 0.000000 0.100000
vn 0.000000 0.000000 0.100000
vn 0.000000 0.000000 0.100000
vn 0.000000 0.000000 0.100000
vn 0.000000 0.000000 0.100000
vn 0.000000 0.000000 0.100000
vn -0.100000 0.000000 0.000000
vn -0.100000 0.000000 0.000000
vn -0.100000 0.000000 0.000000
vn -0.100000 0.000000 0.000000
vn -0.100000 0.000000 0.000000
vn -0.100000 0.000000 0.000000
vn -0.100000 0.000000 0.000000
vn -0.100000 0.000000 0.000000
vn 0.000000 0.100000 0.000000
vn 0.000000 0.100000 0.000000
vn 0.000000 0.100000 0.000000
vn 0.000000 0.100000 0.000000
vn 0.000000 0.100000 0.000000
vn 0.000000 0.100000 0.000000
vn 0.000000 0.100000 0.000000
vn 0.000000 0.100000 0.000000
vn 0.000000 0.100000 0.000000
vn 0.000000 0.100000 0.000000
vn 0.000000 0.100000 0.000000
vn 0.000000 0.100000 0.000000
vn 0.100000 0.000000 0.000000
vn 0.100000 0.000000 0.000000
vn 0.100000 0.000000 0.000000
vn 0.100000 0.000000 0.000000
vn 0.000000 -0.100000 0.000000
vn 0.000000 -0.100000 0.000000
vn 0.000000 -0.100000 0.000000
vn 0.000000 -0.100000 0.000000
vn 0.100000 0.000000 0.000000
vn 0.100000 0.000000 0.000000
vn 0.100000 0.000000 0.000000
vn 0.100000 0.000000 0.000000
vn 0.000000 -0.100000 0.000000
vn 0.000000 -0.100000 0.000000
vn 0.000000 -0.100000 0.000000
vn 0.000000 -0.100000 0.000000
vn 0.000000 -0.100000 0.000000
vn 0.000000 -0.100000 0.000000
vn 0.000000 -0.100000 0.000000
vn 0.000000 -0.100000 0.000000
vn 0.000000 0.000000 0.100000
vn 0.000000 0.000000 0.100000
vn 0.000000 0.000000 0.100000
vn 0.000000 0.000000 0.100000
vn 0.000000 0.000000 0.100000
vn 0.000000 0.000000 0.100000
vn 0.000000 0.000000 0.100000
vn 0.000000 0.000000 0.100000
vn 0.000000 0.000000 0.100000
vn 0.000000 0.000000 0.100000
vn 0.000000 0.000000 0.100000
vn 0.000000 0.000000 0.100000
usemtl Steel_-_Satin
f 1/1/1 2/2/2 8/3/3
f 8/3/3 2/2/2 3/4/4
f 8/3/3 3/4/4 4/5/5
f 8/3/3 4/5/5 7/6/6
f 7/6/6 4/5/5 5/7/7
f 7/6/6 5/7/7 6/8/8
f 6/9/9 9/10/10 7/11/11
f 7/11/11 9/10/10 10/12/12
f 9/13/13 11/14/14 10/15/15
f 10/15/15 11/14/14 12/16/16
f 13/17/17 1/18/18 14/19/19
f 14/19/19 1/18/18 8/20/20
f 15/21/21 13/22/22 16/23/23
f 16/23/23 13/22/22 14/24/24
f 9/25/25 6/26/26 11/27/27
f 11/27/27 6/26/26 5/28/28
f 15/29/29 2/30/30 13/31/31
f 13/31/31 2/30/30 1/32/32
f 3/33/33 17/34/34 4/35/35
f 4/35/35 17/34/34 18/36/36
f 19/37/37 20/38/38 22/39/39
f 22/39/39 20/38/38 21/40/40
f 23/41/41 24/42/42 26/43/43
f 26/43/43 24/42/42 25/44/44
f 19/45/45 22/46/46 28/47/47
f 28/47/47 22/46/46 18/48/48
f 28/47/47 18/48/48 17/49/49
f 28/47/47 17/49/49 27/50/50
f 27/50/50 17/49/49 23/51/51
f 27/50/50 23/51/51 26/52/52
f 26/53/53 25/54/54 27/55/55
f 27/55/55 25/54/54 29/56/56
f 5/57/57 4/58/58 12/59/59
f 12/59/59 4/58/58 18/60/60
f 12/59/59 18/60/60 30/61/61
f 30/61/61 18/60/60 22/62/62
f 30/61/61 22/62/62 21/63/63
f 12/59/59 11/64/64 5/57/57
f 21/65/65 20/66/66 30/67/67
f 30/67/67 20/66/66 31/68/68
f 20/69/69 19/70/70 31/71/71
f 31/71/71 19/70/70 28/72/72
f 25/73/73 24/74/74 29/75/75
f 29/75/75 24/74/74 32/76/76
f 32/76/77 3/77/78 16/78/79
f 16/78/79 3/77/78 2/79/80
f 16/78/79 2/79/80 15/80/81
f 24/81/82 23/82/83 32/83/77
f 32/83/77 23/82/83 17/84/84
f 32/83/77 17/84/84 3/77/78
f 12/85/85 30/86/86 10/87/87
f 10/87/87 30/86/86 31/88/88
f 10/87/87 31/88/88 14/89/89
f 14/89/89 31/88/88 29/90/90
f 14/89/89 29/90/90 16/91/91
f 16/91/91 29/90/90 32/92/92
f 31/88/88 28/93/93 29/90/90
f 29/90/90 28/93/93 27/94/94
f 14/89/89 8/95/95 10/87/87
f 10/87/87 8/95/95 7/96/96
# 32 vertices
# 96 texture params
# 96 normals
# 60 facets

# 1 groups
