# WaveFront *.obj file (generated by Autodesk ATF)

mtllib 1305bd0f-dcb9-4380-be34-b404e11136f7.mtl

g Body5

v -20.000000 20.000000 0.000000
v -20.000000 -20.000000 0.000000
v -20.000000 -20.000000 1.500000
v -20.000000 20.000000 1.500000
v -15.000000 20.000000 0.000000
v -15.000000 20.000000 1.500000
v -15.000000 -20.000000 0.000000
v -15.000000 -20.000000 1.500000
vt -0.000000 0.000000 0.000000
vt 4.000000 0.000000 0.000000
vt -0.000000 0.150000 0.000000
vt 4.000000 0.150000 0.000000
vt -0.000000 0.000000 0.000000
vt 0.500000 0.000000 0.000000
vt -0.000000 0.150000 0.000000
vt 0.500000 0.150000 0.000000
vt 0.000000 0.000000 0.000000
vt 4.000000 0.000000 0.000000
vt 0.000000 0.150000 0.000000
vt 4.000000 0.150000 0.000000
vt 0.000000 0.000000 0.000000
vt 0.500000 0.000000 0.000000
vt 0.000000 0.150000 0.000000
vt 0.500000 0.150000 0.000000
vt -0.250000 -2.000000 0.000000
vt 0.250000 -2.000000 0.000000
vt -0.250000 2.000000 0.000000
vt 0.250000 2.000000 0.000000
vt -0.250000 -2.000000 0.000000
vt 0.250000 -2.000000 0.000000
vt -0.250000 2.000000 0.000000
vt 0.250000 2.000000 0.000000
vn -0.100000 0.000000 0.000000
vn -0.100000 0.000000 0.000000
vn -0.100000 0.000000 0.000000
vn -0.100000 0.000000 0.000000
vn 0.000000 0.100000 0.000000
vn 0.000000 0.100000 0.000000
vn 0.000000 0.100000 0.000000
vn 0.000000 0.100000 0.000000
vn 0.100000 0.000000 0.000000
vn 0.100000 0.000000 0.000000
vn 0.100000 0.000000 0.000000
vn 0.100000 0.000000 0.000000
vn 0.000000 -0.100000 0.000000
vn 0.000000 -0.100000 0.000000
vn 0.000000 -0.100000 0.000000
vn 0.000000 -0.100000 0.000000
vn 0.000000 0.000000 0.100000
vn 0.000000 0.000000 0.100000
vn 0.000000 0.000000 0.100000
vn 0.000000 0.000000 0.100000
vn -0.000000 0.000000 -0.100000
vn -0.000000 0.000000 -0.100000
vn -0.000000 0.000000 -0.100000
vn -0.000000 0.000000 -0.100000
usemtl Steel_-_Satin
f 1/1/1 2/2/2 4/3/3
f 4/3/3 2/2/2 3/4/4
f 5/5/5 1/6/6 6/7/7
f 6/7/7 1/6/6 4/8/8
f 7/9/9 5/10/10 8/11/11
f 8/11/11 5/10/10 6/12/12
f 2/13/13 7/14/14 3/15/15
f 3/15/15 7/14/14 8/16/16
f 3/17/17 8/18/18 4/19/19
f 4/19/19 8/18/18 6/20/20
f 7/21/21 2/22/22 5/23/23
f 5/23/23 2/22/22 1/24/24
g Body6

v 15.000000 -20.000000 0.000000
v 20.000000 -20.000000 0.000000
v 20.000000 -20.000000 1.500000
v 15.000000 -20.000000 1.500000
v 15.000000 20.000000 0.000000
v 15.000000 20.000000 1.500000
v 20.000000 20.000000 0.000000
v 20.000000 20.000000 1.500000
vt 0.000000 0.000000 0.000000
vt 0.500000 0.000000 0.000000
vt 0.000000 0.150000 0.000000
vt 0.500000 0.150000 0.000000
vt 0.000000 0.000000 0.000000
vt 4.000000 0.000000 0.000000
vt 0.000000 0.150000 0.000000
vt 4.000000 0.150000 0.000000
vt 0.000000 0.000000 0.000000
vt 0.500000 0.000000 0.000000
vt 0.000000 0.150000 0.000000
vt 0.500000 0.150000 0.000000
vt 0.000000 0.000000 0.000000
vt 4.000000 0.000000 0.000000
vt 0.000000 0.150000 0.000000
vt 4.000000 0.150000 0.000000
vt 0.250000 2.000000 0.000000
vt -0.250000 2.000000 0.000000
vt 0.250000 -2.000000 0.000000
vt -0.250000 -2.000000 0.000000
vt -0.250000 -2.000000 0.000000
vt 0.250000 -2.000000 0.000000
vt -0.250000 2.000000 0.000000
vt 0.250000 2.000000 0.000000
vn 0.000000 -0.100000 0.000000
vn 0.000000 -0.100000 0.000000
vn 0.000000 -0.100000 0.000000
vn 0.000000 -0.100000 0.000000
vn -0.100000 0.000000 0.000000
vn -0.100000 0.000000 0.000000
vn -0.100000 0.000000 0.000000
vn -0.100000 0.000000 0.000000
vn 0.000000 0.100000 0.000000
vn 0.000000 0.100000 0.000000
vn 0.000000 0.100000 0.000000
vn 0.000000 0.100000 0.000000
vn 0.100000 0.000000 0.000000
vn 0.100000 0.000000 0.000000
vn 0.100000 0.000000 0.000000
vn 0.100000 0.000000 0.000000
vn 0.000000 0.000000 0.100000
vn 0.000000 0.000000 0.100000
vn 0.000000 0.000000 0.100000
vn 0.000000 0.000000 0.100000
vn 0.000000 0.000000 -0.100000
vn 0.000000 0.000000 -0.100000
vn 0.000000 0.000000 -0.100000
vn 0.000000 0.000000 -0.100000
f 9/25/25 10/26/26 12/27/27
f 12/27/27 10/26/26 11/28/28
f 13/29/29 9/30/30 14/31/31
f 14/31/31 9/30/30 12/32/32
f 15/33/33 13/34/34 16/35/35
f 16/35/35 13/34/34 14/36/36
f 10/37/37 15/38/38 11/39/39
f 11/39/39 15/38/38 16/40/40
f 16/41/41 14/42/42 11/43/43
f 11/43/43 14/42/42 12/44/44
f 10/45/45 9/46/46 15/47/47
f 15/47/47 9/46/46 13/48/48
# 16 vertices
# 48 texture params
# 48 normals
# 24 facets

# 2 groups
