# WaveFront *.obj file (generated by Autodesk ATF)

mtllib f27c5d6a-59d8-46cb-b8cc-a4fde663200d.mtl

g Body1

v 0.000000 0.000000 0.000000
v 15.000000 15.000000 0.000000
v 15.000000 15.000000 1.000000
v 0.000000 0.000000 1.000000
v 0.000000 30.000000 0.000000
v 0.000000 30.000000 1.000000
vt 0.000000 0.000000 0.000000
vt 2.121320 0.000000 0.000000
vt 0.000000 0.100000 0.000000
vt 2.121320 0.100000 0.000000
vt -0.000000 0.000000 0.000000
vt 3.000000 0.000000 0.000000
vt -0.000000 0.100000 0.000000
vt 3.000000 0.100000 0.000000
vt 0.000000 0.000000 0.000000
vt 2.121320 0.000000 0.000000
vt 0.000000 0.100000 0.000000
vt 2.121320 0.100000 0.000000
vt 0.750000 0.000000 0.000000
vt -0.750000 1.500000 0.000000
vt -0.750000 -1.500000 0.000000
vt 0.750000 1.500000 0.000000
vt -0.750000 0.000000 0.000000
vt 0.750000 -1.500000 0.000000
vn 0.070711 -0.070711 0.000000
vn 0.070711 -0.070711 0.000000
vn 0.070711 -0.070711 0.000000
vn 0.070711 -0.070711 0.000000
vn -0.100000 0.000000 0.000000
vn -0.100000 0.000000 0.000000
vn -0.100000 0.000000 0.000000
vn -0.100000 0.000000 0.000000
vn 0.070711 0.070711 0.000000
vn 0.070711 0.070711 0.000000
vn 0.070711 0.070711 0.000000
vn 0.070711 0.070711 0.000000
vn 0.000000 0.000000 0.100000
vn 0.000000 0.000000 0.100000
vn 0.000000 0.000000 0.100000
vn -0.000000 0.000000 -0.100000
vn -0.000000 0.000000 -0.100000
vn -0.000000 0.000000 -0.100000
usemtl Steel_-_Satin
f 1/1/1 2/2/2 4/3/3
f 4/3/3 2/2/2 3/4/4
f 5/5/5 1/6/6 6/7/7
f 6/7/7 1/6/6 4/8/8
f 2/9/9 5/10/10 3/11/11
f 3/11/11 5/10/10 6/12/12
f 3/13/13 6/14/14 4/15/15
f 5/16/16 2/17/17 1/18/18
g Body2

v 55.000000 30.000000 0.000000
v 35.000000 30.000000 0.000000
v 35.000000 30.000000 1.000000
v 55.000000 30.000000 1.000000
v 55.000000 0.000000 0.000000
v 55.000000 0.000000 1.000000
v 35.000000 0.000000 0.000000
v 35.000000 0.000000 1.000000
v 50.000000 15.000000 0.000000
v 50.000000 15.000000 1.000000
vt -0.000000 0.000000 0.000000
vt 2.000000 0.000000 0.000000
vt -0.000000 0.100000 0.000000
vt 2.000000 0.100000 0.000000
vt 0.000000 0.000000 0.000000
vt 3.000000 0.000000 0.000000
vt 0.000000 0.100000 0.000000
vt 3.000000 0.100000 0.000000
vt 0.000000 0.000000 0.000000
vt 2.000000 0.000000 0.000000
vt 0.000000 0.100000 0.000000
vt 2.000000 0.100000 0.000000
vt 0.000000 0.000000 0.000000
vt 2.121320 0.000000 0.000000
vt 0.000000 0.100000 0.000000
vt 2.121320 0.100000 0.000000
vt 0.000000 0.000000 0.000000
vt 2.121320 0.000000 0.000000
vt 0.000000 0.100000 0.000000
vt 2.121320 0.100000 0.000000
vt -1.000000 1.500000 0.000000
vt 0.500000 0.000000 0.000000
vt 1.000000 1.500000 0.000000
vt 1.000000 -1.500000 0.000000
vt -1.000000 -1.500000 0.000000
vt 1.000000 1.500000 0.000000
vt -1.000000 1.500000 0.000000
vt -0.500000 0.000000 0.000000
vt -1.000000 -1.500000 0.000000
vt 1.000000 -1.500000 0.000000
vn 0.000000 0.100000 0.000000
vn 0.000000 0.100000 0.000000
vn 0.000000 0.100000 0.000000
vn 0.000000 0.100000 0.000000
vn 0.100000 0.000000 0.000000
vn 0.100000 0.000000 0.000000
vn 0.100000 0.000000 0.000000
vn 0.100000 0.000000 0.000000
vn 0.000000 -0.100000 0.000000
vn 0.000000 -0.100000 0.000000
vn 0.000000 -0.100000 0.000000
vn 0.000000 -0.100000 0.000000
vn -0.070711 0.070711 0.000000
vn -0.070711 0.070711 0.000000
vn -0.070711 0.070711 0.000000
vn -0.070711 0.070711 0.000000
vn -0.070711 -0.070711 0.000000
vn -0.070711 -0.070711 0.000000
vn -0.070711 -0.070711 0.000000
vn -0.070711 -0.070711 0.000000
vn 0.000000 0.000000 0.100000
vn 0.000000 0.000000 0.100000
vn 0.000000 0.000000 0.100000
vn 0.000000 0.000000 0.100000
vn 0.000000 0.000000 0.100000
vn -0.000000 0.000000 -0.100000
vn -0.000000 0.000000 -0.100000
vn -0.000000 0.000000 -0.100000
vn -0.000000 0.000000 -0.100000
vn -0.000000 0.000000 -0.100000
f 7/19/19 8/20/20 10/21/21
f 10/21/21 8/20/20 9/22/22
f 11/23/23 7/24/24 12/25/25
f 12/25/25 7/24/24 10/26/26
f 13/27/27 11/28/28 14/29/29
f 14/29/29 11/28/28 12/30/30
f 15/31/31 13/32/32 16/33/33
f 16/33/33 13/32/32 14/34/34
f 8/35/35 15/36/36 9/37/37
f 9/37/37 15/36/36 16/38/38
f 9/39/39 16/40/40 10/41/41
f 10/41/41 16/40/40 12/42/42
f 12/42/42 16/40/40 14/43/43
f 8/44/44 7/45/45 15/46/46
f 15/46/46 7/45/45 11/47/47
f 15/46/46 11/47/47 13/48/48
# 16 vertices
# 48 texture params
# 48 normals
# 24 facets

# 2 groups
