# WaveFront *.obj file (generated by Autodesk ATF)

mtllib ffbb18c1-b153-480f-959c-d1cd1af60999.mtl

g Body1

v -5.000000 0.000000 0.000000
v 0.000000 0.000000 0.000000
v 0.000000 0.000000 1.000000
v -5.000000 0.000000 1.000000
v -5.000000 30.000000 0.000000
v -5.000000 30.000000 1.000000
v 0.000000 30.000000 0.000000
v 0.000000 30.000000 1.000000
v 2.240663 1.875000 0.000000
v 4.219749 3.750000 0.000000
v 5.109160 4.687500 0.000000
v 5.930192 5.625000 0.000000
v 6.681344 6.562500 0.000000
v 7.360928 7.500000 0.000000
v 7.967111 8.437500 0.000000
v 8.497976 9.375000 0.000000
v 8.951574 10.312500 0.000000
v 9.325998 11.250000 0.000000
v 9.619464 12.187500 0.000000
v 9.830395 13.125000 0.000000
v 9.957523 14.062500 0.000000
v 10.000000 15.000000 0.000000
v 9.957523 15.937500 0.000000
v 9.830395 16.875000 0.000000
v 9.619464 17.812500 0.000000
v 9.325998 18.750000 0.000000
v 8.951574 19.687500 0.000000
v 8.497976 20.625000 0.000000
v 7.967111 21.562500 0.000000
v 7.360928 22.500000 0.000000
v 6.681344 23.437500 0.000000
v 5.930192 24.375000 0.000000
v 5.109160 25.312500 0.000000
v 4.219749 26.250000 0.000000
v 2.240663 28.125000 0.000000
v 2.240663 28.125000 1.000000
v 4.219749 26.250000 1.000000
v 5.109160 25.312500 1.000000
v 5.930192 24.375000 1.000000
v 6.681344 23.437500 1.000000
v 7.360928 22.500000 1.000000
v 7.967111 21.562500 1.000000
v 8.497976 20.625000 1.000000
v 8.951574 19.687500 1.000000
v 9.325998 18.750000 1.000000
v 9.619464 17.812500 1.000000
v 9.830395 16.875000 1.000000
v 9.957523 15.937500 1.000000
v 10.000000 15.000000 1.000000
v 9.957523 14.062500 1.000000
v 9.830395 13.125000 1.000000
v 9.619464 12.187500 1.000000
v 9.325998 11.250000 1.000000
v 8.951574 10.312500 1.000000
v 8.497976 9.375000 1.000000
v 7.967111 8.437500 1.000000
v 7.360928 7.500000 1.000000
v 6.681344 6.562500 1.000000
v 5.930192 5.625000 1.000000
v 5.109160 4.687500 1.000000
v 4.219749 3.750000 1.000000
v 2.240663 1.875000 1.000000
vt 0.000000 0.000000 0.000000
vt 0.500000 0.000000 0.000000
vt 0.000000 0.100000 0.000000
vt 0.500000 0.100000 0.000000
vt -0.000000 0.000000 0.000000
vt 3.000000 0.000000 0.000000
vt -0.000000 0.100000 0.000000
vt 3.000000 0.100000 0.000000
vt 0.000000 0.000000 0.000000
vt 0.500000 0.000000 0.000000
vt 0.000000 0.100000 0.000000
vt 0.500000 0.100000 0.000000
vt -3.000000 0.000000 0.000000
vt -2.812500 0.000000 0.000000
vt -3.000000 0.100000 0.000000
vt -2.812500 0.100000 0.000000
vt -2.625000 0.000000 0.000000
vt -2.625000 0.100000 0.000000
vt -2.531250 0.000000 0.000000
vt -2.531250 0.100000 0.000000
vt -2.437500 0.000000 0.000000
vt -2.437500 0.100000 0.000000
vt -2.343750 0.000000 0.000000
vt -2.343750 0.100000 0.000000
vt -2.250000 0.000000 0.000000
vt -2.250000 0.100000 0.000000
vt -2.156250 0.000000 0.000000
vt -2.156250 0.100000 0.000000
vt -2.062500 0.000000 0.000000
vt -2.062500 0.100000 0.000000
vt -1.968750 0.000000 0.000000
vt -1.968750 0.100000 0.000000
vt -1.875000 0.000000 0.000000
vt -1.875000 0.100000 0.000000
vt -1.781250 0.000000 0.000000
vt -1.781250 0.100000 0.000000
vt -1.687500 0.000000 0.000000
vt -1.687500 0.100000 0.000000
vt -1.593750 0.000000 0.000000
vt -1.593750 0.100000 0.000000
vt -1.500000 0.000000 0.000000
vt -1.500000 0.100000 0.000000
vt -1.406250 0.000000 0.000000
vt -1.406250 0.100000 0.000000
vt -1.312500 0.000000 0.000000
vt -1.312500 0.100000 0.000000
vt -1.218750 0.000000 0.000000
vt -1.218750 0.100000 0.000000
vt -1.125000 0.000000 0.000000
vt -1.125000 0.100000 0.000000
vt -1.031250 0.000000 0.000000
vt -1.031250 0.100000 0.000000
vt -0.937500 0.000000 0.000000
vt -0.937500 0.100000 0.000000
vt -0.843750 0.000000 0.000000
vt -0.843750 0.100000 0.000000
vt -0.750000 0.000000 0.000000
vt -0.750000 0.100000 0.000000
vt -0.656250 0.000000 0.000000
vt -0.656250 0.100000 0.000000
vt -0.562500 0.000000 0.000000
vt -0.562500 0.100000 0.000000
vt -0.468750 0.000000 0.000000
vt -0.468750 0.100000 0.000000
vt -0.375000 0.000000 0.000000
vt -0.375000 0.100000 0.000000
vt -0.187500 0.000000 0.000000
vt -0.187500 0.100000 0.000000
vt 0.000000 0.000000 0.000000
vt 0.000000 0.100000 0.000000
vt -0.260997 -1.500000 0.000000
vt -0.036931 -1.312500 0.000000
vt -0.760997 -1.500000 0.000000
vt 0.160978 -1.125000 0.000000
vt 0.249919 -1.031250 0.000000
vt 0.332022 -0.937500 0.000000
vt 0.249919 1.031250 0.000000
vt 0.160978 1.125000 0.000000
vt -0.036931 1.312500 0.000000
vt 0.332022 0.937500 0.000000
vt 0.407137 -0.843750 0.000000
vt 0.407137 0.843750 0.000000
vt 0.475095 -0.750000 0.000000
vt 0.475095 0.750000 0.000000
vt 0.535714 -0.656250 0.000000
vt 0.535714 0.656250 0.000000
vt 0.588800 -0.562500 0.000000
vt 0.588800 0.562500 0.000000
vt 0.634160 -0.468750 0.000000
vt 0.634160 0.468750 0.000000
vt 0.671602 -0.375000 0.000000
vt 0.671602 0.375000 0.000000
vt 0.700949 -0.281250 0.000000
vt 0.700949 0.281250 0.000000
vt 0.722042 -0.187500 0.000000
vt 0.722042 0.187500 0.000000
vt 0.734755 -0.093750 0.000000
vt 0.734755 0.093750 0.000000
vt 0.739003 -0.000000 0.000000
vt -0.260997 1.500000 0.000000
vt -0.760997 1.500000 0.000000
vt 0.760997 1.500000 0.000000
vt 0.260997 1.500000 0.000000
vt 0.760997 -1.500000 0.000000
vt 0.036931 1.312500 0.000000
vt -0.160978 -1.125000 0.000000
vt -0.160978 1.125000 0.000000
vt -0.249919 -1.031250 0.000000
vt -0.249919 1.031250 0.000000
vt -0.332022 -0.937500 0.000000
vt -0.332022 0.937500 0.000000
vt -0.407137 -0.843750 0.000000
vt -0.407137 0.843750 0.000000
vt -0.475095 -0.750000 0.000000
vt -0.475095 0.750000 0.000000
vt -0.535714 -0.656250 0.000000
vt -0.535714 0.656250 0.000000
vt -0.588800 -0.562500 0.000000
vt -0.588800 0.562500 0.000000
vt -0.634160 -0.468750 0.000000
vt -0.634160 0.468750 0.000000
vt -0.671602 -0.375000 0.000000
vt -0.671602 0.375000 0.000000
vt -0.700949 -0.281250 0.000000
vt -0.700949 0.281250 0.000000
vt -0.722042 -0.187500 0.000000
vt -0.722042 0.187500 0.000000
vt -0.734755 -0.093750 0.000000
vt -0.734755 0.093750 0.000000
vt -0.739003 -0.000000 0.000000
vt 0.036931 -1.312500 0.000000
vt 0.260997 -1.500000 0.000000
vn 0.000000 -0.100000 0.000000
vn 0.000000 -0.100000 0.000000
vn 0.000000 -0.100000 0.000000
vn 0.000000 -0.100000 0.000000
vn -0.100000 0.000000 0.000000
vn -0.100000 0.000000 0.000000
vn -0.100000 0.000000 0.000000
vn -0.100000 0.000000 0.000000
vn 0.000000 0.100000 0.000000
vn 0.000000 0.100000 0.000000
vn 0.000000 0.100000 0.000000
vn 0.000000 0.100000 0.000000
vn 0.062041 -0.078428 0.000000
vn 0.066413 -0.074761 0.000000
vn 0.062041 -0.078428 0.000000
vn 0.066413 -0.074761 0.000000
vn 0.071254 -0.070163 0.000000
vn 0.071254 -0.070163 0.000000
vn 0.073869 -0.067404 0.000000
vn 0.073869 -0.067404 0.000000
vn 0.076616 -0.064265 0.000000
vn 0.076616 -0.064265 0.000000
vn 0.079487 -0.060678 0.000000
vn 0.079487 -0.060678 0.000000
vn 0.082459 -0.056573 0.000000
vn 0.082459 -0.056573 0.000000
vn 0.085493 -0.051875 0.000000
vn 0.085493 -0.051875 0.000000
vn 0.088525 -0.046511 0.000000
vn 0.088525 -0.046511 0.000000
vn 0.091466 -0.040423 0.000000
vn 0.091466 -0.040423 0.000000
vn 0.094193 -0.033581 0.000000
vn 0.094193 -0.033581 0.000000
vn 0.096561 -0.026001 0.000000
vn 0.096561 -0.026001 0.000000
vn 0.098410 -0.017762 0.000000
vn 0.098410 -0.017762 0.000000
vn 0.099592 -0.009019 0.000000
vn 0.099592 -0.009019 0.000000
vn 0.100000 0.000000 0.000000
vn 0.100000 0.000000 0.000000
vn 0.099592 0.009019 0.000000
vn 0.099592 0.009019 0.000000
vn 0.098410 0.017762 0.000000
vn 0.098410 0.017762 0.000000
vn 0.096561 0.026001 0.000000
vn 0.096561 0.026001 0.000000
vn 0.094193 0.033581 0.000000
vn 0.094193 0.033581 0.000000
vn 0.091466 0.040423 0.000000
vn 0.091466 0.040423 0.000000
vn 0.088525 0.046511 0.000000
vn 0.088525 0.046511 0.000000
vn 0.085493 0.051875 0.000000
vn 0.085493 0.051875 0.000000
vn 0.082459 0.056573 0.000000
vn 0.082459 0.056573 0.000000
vn 0.079487 0.060678 0.000000
vn 0.079487 0.060678 0.000000
vn 0.076616 0.064265 0.000000
vn 0.076616 0.064265 0.000000
vn 0.073869 0.067404 0.000000
vn 0.073869 0.067404 0.000000
vn 0.071254 0.070163 0.000000
vn 0.071254 0.070163 0.000000
vn 0.066413 0.074761 0.000000
vn 0.066413 0.074761 0.000000
vn 0.062041 0.078428 0.000000
vn 0.062041 0.078428 0.000000
vn 0.000000 0.000000 0.100000
vn 0.000000 0.000000 0.100000
vn 0.000000 0.000000 0.100000
vn 0.000000 0.000000 0.100000
vn 0.000000 0.000000 0.100000
vn 0.000000 0.000000 0.100000
vn 0.000000 0.000000 0.100000
vn 0.000000 0.000000 0.100000
vn 0.000000 0.000000 0.100000
vn 0.000000 0.000000 0.100000
vn 0.000000 0.000000 0.100000
vn 0.000000 0.000000 0.100000
vn 0.000000 0.000000 0.100000
vn 0.000000 0.000000 0.100000
vn 0.000000 0.000000 0.100000
vn 0.000000 0.000000 0.100000
vn 0.000000 0.000000 0.100000
vn 0.000000 0.000000 0.100000
vn 0.000000 0.000000 0.100000
vn 0.000000 0.000000 0.100000
vn 0.000000 0.000000 0.100000
vn 0.000000 0.000000 0.100000
vn 0.000000 0.000000 0.100000
vn 0.000000 0.000000 0.100000
vn 0.000000 0.000000 0.100000
vn 0.000000 0.000000 0.100000
vn 0.000000 0.000000 0.100000
vn 0.000000 0.000000 0.100000
vn 0.000000 0.000000 0.100000
vn 0.000000 0.000000 0.100000
vn 0.000000 0.000000 0.100000
vn 0.000000 0.000000 -0.100000
vn 0.000000 0.000000 -0.100000
vn 0.000000 0.000000 -0.100000
vn 0.000000 0.000000 -0.100000
vn 0.000000 0.000000 -0.100000
vn 0.000000 0.000000 -0.100000
vn 0.000000 0.000000 -0.100000
vn 0.000000 0.000000 -0.100000
vn 0.000000 0.000000 -0.100000
vn 0.000000 0.000000 -0.100000
vn 0.000000 0.000000 -0.100000
vn 0.000000 0.000000 -0.100000
vn 0.000000 0.000000 -0.100000
vn 0.000000 0.000000 -0.100000
vn 0.000000 0.000000 -0.100000
vn 0.000000 0.000000 -0.100000
vn 0.000000 0.000000 -0.100000
vn 0.000000 0.000000 -0.100000
vn 0.000000 0.000000 -0.100000
vn 0.000000 0.000000 -0.100000
vn 0.000000 0.000000 -0.100000
vn 0.000000 0.000000 -0.100000
vn 0.000000 0.000000 -0.100000
vn 0.000000 0.000000 -0.100000
vn 0.000000 0.000000 -0.100000
vn 0.000000 0.000000 -0.100000
vn 0.000000 0.000000 -0.100000
vn 0.000000 0.000000 -0.100000
vn 0.000000 0.000000 -0.100000
vn 0.000000 0.000000 -0.100000
vn 0.000000 0.000000 -0.100000
usemtl Steel_-_Satin
f 1/1/1 2/2/2 4/3/3
f 4/3/3 2/2/2 3/4/4
f 5/5/5 1/6/6 6/7/7
f 6/7/7 1/6/6 4/8/8
f 7/9/9 5/10/10 8/11/11
f 8/11/11 5/10/10 6/12/12
f 2/13/13 9/14/14 3/15/15
f 3/15/15 9/14/14 62/16/16
f 62/16/16 9/14/14 10/17/17
f 62/16/16 10/17/17 61/18/18
f 61/18/18 10/17/17 11/19/19
f 61/18/18 11/19/19 60/20/20
f 60/20/20 11/19/19 12/21/21
f 60/20/20 12/21/21 59/22/22
f 59/22/22 12/21/21 13/23/23
f 59/22/22 13/23/23 58/24/24
f 58/24/24 13/23/23 14/25/25
f 58/24/24 14/25/25 57/26/26
f 57/26/26 14/25/25 15/27/27
f 57/26/26 15/27/27 56/28/28
f 56/28/28 15/27/27 16/29/29
f 56/28/28 16/29/29 55/30/30
f 55/30/30 16/29/29 17/31/31
f 55/30/30 17/31/31 54/32/32
f 54/32/32 17/31/31 18/33/33
f 54/32/32 18/33/33 53/34/34
f 53/34/34 18/33/33 19/35/35
f 53/34/34 19/35/35 52/36/36
f 52/36/36 19/35/35 20/37/37
f 52/36/36 20/37/37 51/38/38
f 51/38/38 20/37/37 21/39/39
f 51/38/38 21/39/39 50/40/40
f 50/40/40 21/39/39 22/41/41
f 50/40/40 22/41/41 49/42/42
f 49/42/42 22/41/41 23/43/43
f 49/42/42 23/43/43 48/44/44
f 48/44/44 23/43/43 24/45/45
f 48/44/44 24/45/45 47/46/46
f 47/46/46 24/45/45 25/47/47
f 47/46/46 25/47/47 46/48/48
f 46/48/48 25/47/47 26/49/49
f 46/48/48 26/49/49 45/50/50
f 45/50/50 26/49/49 27/51/51
f 45/50/50 27/51/51 44/52/52
f 44/52/52 27/51/51 28/53/53
f 44/52/52 28/53/53 43/54/54
f 43/54/54 28/53/53 29/55/55
f 43/54/54 29/55/55 42/56/56
f 42/56/56 29/55/55 30/57/57
f 42/56/56 30/57/57 41/58/58
f 41/58/58 30/57/57 31/59/59
f 41/58/58 31/59/59 40/60/60
f 40/60/60 31/59/59 32/61/61
f 40/60/60 32/61/61 39/62/62
f 39/62/62 32/61/61 33/63/63
f 39/62/62 33/63/63 38/64/64
f 38/64/64 33/63/63 34/65/65
f 38/64/64 34/65/65 37/66/66
f 37/66/66 34/65/65 35/67/67
f 37/66/66 35/67/67 36/68/68
f 36/68/68 35/67/67 7/69/69
f 36/68/68 7/69/69 8/70/70
f 3/71/71 62/72/72 4/73/73
f 4/73/73 62/72/72 61/74/74
f 4/73/73 61/74/74 60/75/75
f 59/76/76 38/77/77 60/75/75
f 60/75/75 38/77/77 37/78/78
f 60/75/75 37/78/78 36/79/79
f 38/77/77 59/76/76 39/80/80
f 39/80/80 59/76/76 58/81/81
f 39/80/80 58/81/81 40/82/82
f 40/82/82 58/81/81 57/83/83
f 40/82/82 57/83/83 41/84/84
f 41/84/84 57/83/83 56/85/85
f 41/84/84 56/85/85 42/86/86
f 42/86/86 56/85/85 55/87/87
f 42/86/86 55/87/87 43/88/88
f 43/88/88 55/87/87 54/89/89
f 43/88/88 54/89/89 44/90/90
f 44/90/90 54/89/89 53/91/91
f 44/90/90 53/91/91 45/92/92
f 45/92/92 53/91/91 52/93/93
f 45/92/92 52/93/93 46/94/94
f 46/94/94 52/93/93 51/95/95
f 46/94/94 51/95/95 47/96/96
f 47/96/96 51/95/95 50/97/97
f 47/96/96 50/97/97 48/98/98
f 48/98/98 50/97/97 49/99/99
f 60/75/75 36/79/79 4/73/73
f 4/73/73 36/79/79 8/100/100
f 4/73/73 8/100/100 6/101/101
f 5/102/102 7/103/103 1/104/104
f 1/104/104 7/103/103 35/105/105
f 1/104/104 35/105/105 10/106/106
f 10/106/106 35/105/105 34/107/107
f 10/106/106 34/107/107 11/108/108
f 11/108/108 34/107/107 33/109/109
f 11/108/108 33/109/109 12/110/110
f 12/110/110 33/109/109 32/111/111
f 12/110/110 32/111/111 13/112/112
f 13/112/112 32/111/111 31/113/113
f 13/112/112 31/113/113 14/114/114
f 14/114/114 31/113/113 30/115/115
f 14/114/114 30/115/115 15/116/116
f 15/116/116 30/115/115 29/117/117
f 15/116/116 29/117/117 16/118/118
f 16/118/118 29/117/117 28/119/119
f 16/118/118 28/119/119 17/120/120
f 17/120/120 28/119/119 27/121/121
f 17/120/120 27/121/121 18/122/122
f 18/122/122 27/121/121 26/123/123
f 18/122/122 26/123/123 19/124/124
f 19/124/124 26/123/123 25/125/125
f 19/124/124 25/125/125 20/126/126
f 20/126/126 25/125/125 24/127/127
f 20/126/126 24/127/127 21/128/128
f 21/128/128 24/127/127 23/129/129
f 21/128/128 23/129/129 22/130/130
f 10/106/106 9/131/131 1/104/104
f 1/104/104 9/131/131 2/132/132
g Body2

v 50.000001 30.000000 0.000000
v 44.877728 30.000000 0.000000
v 44.877728 30.000000 1.000000
v 50.000001 30.000000 1.000000
v 50.000001 0.000000 0.000000
v 50.000001 0.000000 1.000000
v 44.882202 0.000000 0.000000
v 44.882202 0.000000 1.000000
v 43.085478 28.124732 0.000000
v 41.502488 26.249496 0.000000
v 40.134414 24.374292 0.000000
v 38.990105 22.499122 0.000000
v 38.080746 20.623986 0.000000
v 37.418608 18.748887 0.000000
v 37.183975 17.811352 0.000000
v 37.015370 16.873827 0.000000
v 36.913808 15.936312 0.000000
v 36.879966 14.998807 0.000000
v 36.914088 14.061312 0.000000
v 37.015929 13.123827 0.000000
v 37.184814 12.186352 0.000000
v 37.419726 11.248887 0.000000
v 38.082424 9.373986 0.000000
v 38.992342 7.499122 0.000000
v 40.137210 5.624293 0.000000
v 41.505844 3.749497 0.000000
v 43.089392 1.874733 0.000000
v 43.089392 1.874733 1.000000
v 41.505844 3.749497 1.000000
v 40.137210 5.624293 1.000000
v 38.992342 7.499122 1.000000
v 38.082424 9.373986 1.000000
v 37.419726 11.248887 1.000000
v 37.184814 12.186352 1.000000
v 37.015929 13.123827 1.000000
v 36.914088 14.061312 1.000000
v 36.879966 14.998807 1.000000
v 36.913808 15.936312 1.000000
v 37.015370 16.873827 1.000000
v 37.183975 17.811352 1.000000
v 37.418608 18.748887 1.000000
v 38.080746 20.623986 1.000000
v 38.990105 22.499122 1.000000
v 40.134414 24.374292 1.000000
v 41.502488 26.249496 1.000000
v 43.085478 28.124732 1.000000
vt -0.000000 0.000000 0.000000
vt 0.512227 0.000000 0.000000
vt -0.000000 0.100000 0.000000
vt 0.512227 0.100000 0.000000
vt 0.000000 0.000000 0.000000
vt 3.000000 0.000000 0.000000
vt 0.000000 0.100000 0.000000
vt 3.000000 0.100000 0.000000
vt 0.000000 0.000000 0.000000
vt 0.511780 0.000000 0.000000
vt -0.000000 0.100000 0.000000
vt 0.511780 0.100000 0.000000
vt 0.000000 0.000000 0.000000
vt 0.187500 0.000000 0.000000
vt 0.000000 0.100000 0.000000
vt 0.187500 0.100000 0.000000
vt 0.375000 0.000000 0.000000
vt 0.375000 0.100000 0.000000
vt 0.562500 0.000000 0.000000
vt 0.562500 0.100000 0.000000
vt 0.750000 0.000000 0.000000
vt 0.750000 0.100000 0.000000
vt 0.937500 0.000000 0.000000
vt 0.937500 0.100000 0.000000
vt 1.125000 0.000000 0.000000
vt 1.125000 0.100000 0.000000
vt 1.218750 0.000000 0.000000
vt 1.218750 0.100000 0.000000
vt 1.312500 0.000000 0.000000
vt 1.312500 0.100000 0.000000
vt 1.406250 0.000000 0.000000
vt 1.406250 0.100000 0.000000
vt 1.500000 0.000000 0.000000
vt 1.500000 0.100000 0.000000
vt 1.593750 0.000000 0.000000
vt 1.593750 0.100000 0.000000
vt 1.687500 0.000000 0.000000
vt 1.687500 0.100000 0.000000
vt 1.781250 0.000000 0.000000
vt 1.781250 0.100000 0.000000
vt 1.875000 0.000000 0.000000
vt 1.875000 0.100000 0.000000
vt 2.062500 0.000000 0.000000
vt 2.062500 0.100000 0.000000
vt 2.250000 0.000000 0.000000
vt 2.250000 0.100000 0.000000
vt 2.437500 0.000000 0.000000
vt 2.437500 0.100000 0.000000
vt 2.625000 0.000000 0.000000
vt 2.625000 0.100000 0.000000
vt 2.812500 0.000000 0.000000
vt 2.812500 0.100000 0.000000
vt 3.000000 0.000000 0.000000
vt 3.000000 0.100000 0.000000
vt -0.026653 1.312473 0.000000
vt -0.026261 -1.312527 0.000000
vt 0.152572 1.500000 0.000000
vt 0.153020 -1.500000 0.000000
vt 0.664800 1.500000 0.000000
vt 0.664800 -1.500000 0.000000
vt -0.184616 -1.125050 0.000000
vt -0.184952 1.124950 0.000000
vt -0.321479 -0.937571 0.000000
vt -0.321759 0.937429 0.000000
vt -0.435966 -0.750088 0.000000
vt -0.436190 0.749912 0.000000
vt -0.526958 -0.562601 0.000000
vt -0.527126 0.562399 0.000000
vt -0.593228 -0.375111 0.000000
vt -0.616719 -0.281365 0.000000
vt -0.633608 -0.187617 0.000000
vt -0.643792 -0.093869 0.000000
vt -0.647204 -0.000119 0.000000
vt -0.643820 0.093631 0.000000
vt -0.633663 0.187383 0.000000
vt -0.616803 0.281135 0.000000
vt -0.593340 0.374889 0.000000
vt 0.026261 -1.312527 0.000000
vt -0.152572 1.500000 0.000000
vt -0.153020 -1.500000 0.000000
vt -0.664800 1.500000 0.000000
vt -0.664800 -1.500000 0.000000
vt 0.026653 1.312473 0.000000
vt 0.184616 -1.125050 0.000000
vt 0.184952 1.124950 0.000000
vt 0.321479 -0.937571 0.000000
vt 0.321759 0.937429 0.000000
vt 0.435966 -0.750088 0.000000
vt 0.436190 0.749912 0.000000
vt 0.526958 -0.562601 0.000000
vt 0.527126 0.562399 0.000000
vt 0.593228 -0.375111 0.000000
vt 0.616719 -0.281365 0.000000
vt 0.633608 -0.187617 0.000000
vt 0.643792 -0.093869 0.000000
vt 0.647204 -0.000119 0.000000
vt 0.643820 0.093631 0.000000
vt 0.633663 0.187383 0.000000
vt 0.616803 0.281135 0.000000
vt 0.593340 0.374889 0.000000
vn -0.000000 0.100000 0.000000
vn -0.000000 0.100000 0.000000
vn -0.000000 0.100000 0.000000
vn -0.000000 0.100000 0.000000
vn 0.100000 0.000000 0.000000
vn 0.100000 0.000000 0.000000
vn 0.100000 0.000000 0.000000
vn 0.100000 0.000000 0.000000
vn -0.000000 -0.100000 0.000000
vn -0.000000 -0.100000 0.000000
vn -0.000000 -0.100000 0.000000
vn -0.000000 -0.100000 0.000000
vn -0.070323 0.071096 0.000000
vn -0.074319 0.066908 0.000000
vn -0.070323 0.071096 0.000000
vn -0.074319 0.066908 0.000000
vn -0.078563 0.061870 0.000000
vn -0.078563 0.061870 0.000000
vn -0.083046 0.055708 0.000000
vn -0.083046 0.055708 0.000000
vn -0.087671 0.048102 0.000000
vn -0.087671 0.048102 0.000000
vn -0.092194 0.038734 0.000000
vn -0.092194 0.038734 0.000000
vn -0.096169 0.027413 0.000000
vn -0.096169 0.027413 0.000000
vn -0.097761 0.021044 0.000000
vn -0.097761 0.021044 0.000000
vn -0.098976 0.014276 0.000000
vn -0.098976 0.014276 0.000000
vn -0.099740 0.007211 0.000000
vn -0.099740 0.007211 0.000000
vn -0.100000 -0.000015 0.000000
vn -0.100000 -0.000015 0.000000
vn -0.099738 -0.007241 0.000000
vn -0.099738 -0.007241 0.000000
vn -0.098971 -0.014306 0.000000
vn -0.098971 -0.014306 0.000000
vn -0.097754 -0.021073 0.000000
vn -0.097754 -0.021073 0.000000
vn -0.096161 -0.027441 0.000000
vn -0.096161 -0.027441 0.000000
vn -0.092182 -0.038762 0.000000
vn -0.092182 -0.038762 0.000000
vn -0.087657 -0.048128 0.000000
vn -0.087657 -0.048128 0.000000
vn -0.083029 -0.055733 0.000000
vn -0.083029 -0.055733 0.000000
vn -0.078545 -0.061893 0.000000
vn -0.078545 -0.061893 0.000000
vn -0.074299 -0.066930 0.000000
vn -0.074299 -0.066930 0.000000
vn -0.070302 -0.071117 0.000000
vn -0.070302 -0.071117 0.000000
vn 0.000000 0.000000 0.100000
vn 0.000000 0.000000 0.100000
vn 0.000000 0.000000 0.100000
vn 0.000000 0.000000 0.100000
vn 0.000000 0.000000 0.100000
vn 0.000000 0.000000 0.100000
vn 0.000000 0.000000 0.100000
vn 0.000000 0.000000 0.100000
vn 0.000000 0.000000 0.100000
vn 0.000000 0.000000 0.100000
vn 0.000000 0.000000 0.100000
vn 0.000000 0.000000 0.100000
vn 0.000000 0.000000 0.100000
vn 0.000000 0.000000 0.100000
vn 0.000000 0.000000 0.100000
vn 0.000000 0.000000 0.100000
vn 0.000000 0.000000 0.100000
vn 0.000000 0.000000 0.100000
vn 0.000000 0.000000 0.100000
vn 0.000000 0.000000 0.100000
vn 0.000000 0.000000 0.100000
vn 0.000000 0.000000 0.100000
vn 0.000000 0.000000 0.100000
vn 0.000000 0.000000 -0.100000
vn 0.000000 0.000000 -0.100000
vn 0.000000 0.000000 -0.100000
vn 0.000000 0.000000 -0.100000
vn 0.000000 0.000000 -0.100000
vn 0.000000 0.000000 -0.100000
vn 0.000000 0.000000 -0.100000
vn 0.000000 0.000000 -0.100000
vn 0.000000 0.000000 -0.100000
vn 0.000000 0.000000 -0.100000
vn 0.000000 0.000000 -0.100000
vn 0.000000 0.000000 -0.100000
vn 0.000000 0.000000 -0.100000
vn 0.000000 0.000000 -0.100000
vn 0.000000 0.000000 -0.100000
vn 0.000000 0.000000 -0.100000
vn 0.000000 0.000000 -0.100000
vn 0.000000 0.000000 -0.100000
vn 0.000000 0.000000 -0.100000
vn 0.000000 0.000000 -0.100000
vn 0.000000 0.000000 -0.100000
vn 0.000000 0.000000 -0.100000
vn 0.000000 0.000000 -0.100000
f 63/133/133 64/134/134 66/135/135
f 66/135/135 64/134/134 65/136/136
f 67/137/137 63/138/138 68/139/139
f 68/139/139 63/138/138 66/140/140
f 69/141/141 67/142/142 70/143/143
f 70/143/143 67/142/142 68/144/144
f 64/145/145 71/146/146 65/147/147
f 65/147/147 71/146/146 108/148/148
f 108/148/148 71/146/146 72/149/149
f 108/148/148 72/149/149 107/150/150
f 107/150/150 72/149/149 73/151/151
f 107/150/150 73/151/151 106/152/152
f 106/152/152 73/151/151 74/153/153
f 106/152/152 74/153/153 105/154/154
f 105/154/154 74/153/153 75/155/155
f 105/154/154 75/155/155 104/156/156
f 104/156/156 75/155/155 76/157/157
f 104/156/156 76/157/157 103/158/158
f 103/158/158 76/157/157 77/159/159
f 103/158/158 77/159/159 102/160/160
f 102/160/160 77/159/159 78/161/161
f 102/160/160 78/161/161 101/162/162
f 101/162/162 78/161/161 79/163/163
f 101/162/162 79/163/163 100/164/164
f 100/164/164 79/163/163 80/165/165
f 100/164/164 80/165/165 99/166/166
f 99/166/166 80/165/165 81/167/167
f 99/166/166 81/167/167 98/168/168
f 98/168/168 81/167/167 82/169/169
f 98/168/168 82/169/169 97/170/170
f 97/170/170 82/169/169 83/171/171
f 97/170/170 83/171/171 96/172/172
f 96/172/172 83/171/171 84/173/173
f 96/172/172 84/173/173 95/174/174
f 95/174/174 84/173/173 85/175/175
f 95/174/174 85/175/175 94/176/176
f 94/176/176 85/175/175 86/177/177
f 94/176/176 86/177/177 93/178/178
f 93/178/178 86/177/177 87/179/179
f 93/178/178 87/179/179 92/180/180
f 92/180/180 87/179/179 88/181/181
f 92/180/180 88/181/181 91/182/182
f 91/182/182 88/181/181 89/183/183
f 91/182/182 89/183/183 90/184/184
f 90/184/184 89/183/183 69/185/185
f 90/184/184 69/185/185 70/186/186
f 108/187/187 90/188/188 65/189/189
f 65/189/189 90/188/188 70/190/190
f 65/189/189 70/190/190 66/191/191
f 66/191/191 70/190/190 68/192/192
f 90/188/188 108/187/187 91/193/193
f 91/193/193 108/187/187 107/194/194
f 91/193/193 107/194/194 92/195/195
f 92/195/195 107/194/194 106/196/196
f 92/195/195 106/196/196 93/197/197
f 93/197/197 106/196/196 105/198/198
f 93/197/197 105/198/198 94/199/199
f 94/199/199 105/198/198 104/200/200
f 94/199/199 104/200/200 95/201/201
f 95/201/201 104/200/200 96/202/202
f 96/202/202 104/200/200 97/203/203
f 97/203/203 104/200/200 98/204/204
f 98/204/204 104/200/200 99/205/205
f 99/205/205 104/200/200 100/206/206
f 100/206/206 104/200/200 101/207/207
f 101/207/207 104/200/200 102/208/208
f 102/208/208 104/200/200 103/209/209
f 89/210/210 64/211/211 69/212/212
f 69/212/212 64/211/211 63/213/213
f 69/212/212 63/213/213 67/214/214
f 64/211/211 89/210/210 71/215/215
f 71/215/215 89/210/210 88/216/216
f 71/215/215 88/216/216 72/217/217
f 72/217/217 88/216/216 87/218/218
f 72/217/217 87/218/218 73/219/219
f 73/219/219 87/218/218 86/220/220
f 73/219/219 86/220/220 74/221/221
f 74/221/221 86/220/220 85/222/222
f 74/221/221 85/222/222 75/223/223
f 75/223/223 85/222/222 84/224/224
f 75/223/223 84/224/224 83/225/225
f 83/225/225 82/226/226 75/223/223
f 75/223/223 82/226/226 81/227/227
f 75/223/223 81/227/227 80/228/228
f 80/228/228 79/229/229 75/223/223
f 75/223/223 79/229/229 78/230/230
f 75/223/223 78/230/230 77/231/231
f 77/231/231 76/232/232 75/223/223
# 108 vertices
# 232 texture params
# 232 normals
# 208 facets

# 2 groups
