# WaveFront *.obj file (generated by Autodesk ATF)

mtllib d90b4a99-ea6c-4563-858d-0afd2bdcdd3f.mtl

g Body1

v 19.000000 -23.000000 0.000000
v -19.000000 -23.000000 0.000000
v -19.000000 -23.000000 0.500000
v 19.000000 -23.000000 0.500000
v 19.000000 -20.000000 0.500000
v -19.000000 -20.000000 0.500000
v 25.000000 -25.000000 0.000000
v -25.000000 -25.000000 0.000000
v -25.000000 25.000000 0.000000
v 25.000000 25.000000 0.000000
v -19.000000 -20.000000 0.000000
v 19.000000 -20.000000 0.000000
v 20.000000 -20.000000 0.000000
v 20.000000 20.000000 0.000000
v -20.000000 20.000000 0.000000
v -20.000000 -20.000000 0.000000
v -20.000000 -20.000000 2.000000
v 20.000000 -20.000000 2.000000
v 20.000000 20.000000 2.000000
v -20.000000 20.000000 2.000000
v -25.000000 -25.000000 2.000000
v -25.000000 25.000000 2.000000
v 25.000000 25.000000 2.000000
v 25.000000 -25.000000 2.000000
vt -3.800000 0.000000 0.000000
vt -0.000000 0.000000 0.000000
vt -3.800000 0.050000 0.000000
vt -0.000000 0.050000 0.000000
vt -1.900000 -0.050000 0.000000
vt 1.900000 -0.050000 0.000000
vt -1.900000 0.250000 0.000000
vt 1.900000 0.250000 0.000000
vt 2.500000 -2.500000 0.000000
vt -1.900000 -2.300000 0.000000
vt -2.500000 -2.500000 0.000000
vt -2.000000 -2.000000 0.000000
vt -2.000000 2.000000 0.000000
vt 2.500000 2.500000 0.000000
vt 2.000000 2.000000 0.000000
vt 2.000000 -2.000000 0.000000
vt 1.900000 -2.300000 0.000000
vt 1.900000 -2.000000 0.000000
vt -2.500000 2.500000 0.000000
vt -1.900000 -2.000000 0.000000
vt 0.300000 0.050000 0.000000
vt 0.000000 0.050000 0.000000
vt 0.300000 0.000000 0.000000
vt 0.000000 0.000000 0.000000
vt 0.100000 0.000000 0.000000
vt 0.100000 0.050000 0.000000
vt 0.000000 0.000000 0.000000
vt 0.000000 0.200000 0.000000
vt 3.900000 0.050000 0.000000
vt 4.000000 0.200000 0.000000
vt 4.000000 0.000000 0.000000
vt 3.900000 0.000000 0.000000
vt 0.000000 0.000000 0.000000
vt 4.000000 0.000000 0.000000
vt 0.000000 0.200000 0.000000
vt 4.000000 0.200000 0.000000
vt 0.000000 0.000000 0.000000
vt 4.000000 0.000000 0.000000
vt 0.000000 0.200000 0.000000
vt 4.000000 0.200000 0.000000
vt 0.000000 0.000000 0.000000
vt 4.000000 0.000000 0.000000
vt 0.000000 0.200000 0.000000
vt 4.000000 0.200000 0.000000
vt 0.200000 0.050000 0.000000
vt -0.100000 0.050000 0.000000
vt 0.200000 0.000000 0.000000
vt -0.100000 0.000000 0.000000
vt -0.000000 0.000000 0.000000
vt 5.000000 0.000000 0.000000
vt -0.000000 0.200000 0.000000
vt 5.000000 0.200000 0.000000
vt -0.000000 0.000000 0.000000
vt 5.000000 0.000000 0.000000
vt -0.000000 0.200000 0.000000
vt 5.000000 0.200000 0.000000
vt 0.000000 0.000000 0.000000
vt 5.000000 0.000000 0.000000
vt 0.000000 0.200000 0.000000
vt 5.000000 0.200000 0.000000
vt 0.000000 0.000000 0.000000
vt 5.000000 0.000000 0.000000
vt 0.000000 0.200000 0.000000
vt 5.000000 0.200000 0.000000
vt 2.000000 2.000000 0.000000
vt 2.000000 -2.000000 0.000000
vt 2.500000 -2.500000 0.000000
vt -2.000000 -2.000000 0.000000
vt -2.500000 -2.500000 0.000000
vt -2.000000 2.000000 0.000000
vt -2.500000 2.500000 0.000000
vt 2.500000 2.500000 0.000000
vn -0.000000 0.100000 -0.000000
vn -0.000000 0.100000 -0.000000
vn -0.000000 0.100000 -0.000000
vn -0.000000 0.100000 -0.000000
vn 0.000000 0.000000 -0.100000
vn 0.000000 0.000000 -0.100000
vn 0.000000 0.000000 -0.100000
vn 0.000000 0.000000 -0.100000
vn -0.000000 0.000000 -0.100000
vn -0.000000 0.000000 -0.100000
vn -0.000000 0.000000 -0.100000
vn -0.000000 0.000000 -0.100000
vn -0.000000 0.000000 -0.100000
vn -0.000000 0.000000 -0.100000
vn -0.000000 0.000000 -0.100000
vn -0.000000 0.000000 -0.100000
vn -0.000000 0.000000 -0.100000
vn -0.000000 0.000000 -0.100000
vn -0.000000 0.000000 -0.100000
vn -0.000000 0.000000 -0.100000
vn -0.100000 0.000000 0.000000
vn -0.100000 0.000000 0.000000
vn -0.100000 0.000000 0.000000
vn -0.100000 0.000000 0.000000
vn 0.000000 0.100000 0.000000
vn 0.000000 0.100000 0.000000
vn 0.000000 0.100000 0.000000
vn 0.000000 0.100000 0.000000
vn 0.000000 0.100000 0.000000
vn 0.000000 0.100000 0.000000
vn 0.000000 0.100000 0.000000
vn 0.000000 0.100000 0.000000
vn -0.100000 0.000000 0.000000
vn -0.100000 0.000000 0.000000
vn -0.100000 0.000000 0.000000
vn -0.100000 0.000000 0.000000
vn 0.000000 -0.100000 0.000000
vn 0.000000 -0.100000 0.000000
vn 0.000000 -0.100000 0.000000
vn 0.000000 -0.100000 0.000000
vn 0.100000 0.000000 0.000000
vn 0.100000 0.000000 0.000000
vn 0.100000 0.000000 0.000000
vn 0.100000 0.000000 0.000000
vn 0.100000 0.000000 0.000000
vn 0.100000 0.000000 0.000000
vn 0.100000 0.000000 0.000000
vn 0.100000 0.000000 0.000000
vn -0.100000 0.000000 0.000000
vn -0.100000 0.000000 0.000000
vn -0.100000 0.000000 0.000000
vn -0.100000 0.000000 0.000000
vn 0.000000 0.100000 0.000000
vn 0.000000 0.100000 0.000000
vn 0.000000 0.100000 0.000000
vn 0.000000 0.100000 0.000000
vn 0.100000 0.000000 0.000000
vn 0.100000 0.000000 0.000000
vn 0.100000 0.000000 0.000000
vn 0.100000 0.000000 0.000000
vn 0.000000 -0.100000 0.000000
vn 0.000000 -0.100000 0.000000
vn 0.000000 -0.100000 0.000000
vn 0.000000 -0.100000 0.000000
vn 0.000000 0.000000 0.100000
vn 0.000000 0.000000 0.100000
vn 0.000000 0.000000 0.100000
vn 0.000000 0.000000 0.100000
vn 0.000000 0.000000 0.100000
vn 0.000000 0.000000 0.100000
vn 0.000000 0.000000 0.100000
vn 0.000000 0.000000 0.100000
usemtl Steel_-_Satin
f 1/1/1 2/2/2 4/3/3
f 4/3/3 2/2/2 3/4/4
f 4/5/5 3/6/6 5/7/7
f 5/7/7 3/6/6 6/8/8
f 8/9/9 1/10/10 7/11/11
f 7/11/11 1/10/10 13/12/12
f 7/11/11 13/12/12 14/13/13
f 9/14/14 15/15/15 8/9/9
f 8/9/9 15/15/15 16/16/16
f 8/9/9 16/16/16 2/17/17
f 2/17/17 16/16/16 11/18/18
f 9/14/14 10/19/19 15/15/15
f 15/15/15 10/19/19 14/13/13
f 14/13/13 10/19/19 7/11/11
f 2/17/17 1/10/10 8/9/9
f 1/10/10 12/20/20 13/12/12
f 4/21/21 5/22/22 1/23/23
f 1/23/23 5/22/22 12/24/24
f 12/25/25 5/26/26 13/27/27
f 13/27/27 5/26/26 18/28/28
f 18/28/28 5/26/26 6/29/29
f 18/28/28 6/29/29 17/30/30
f 17/30/30 6/29/29 16/31/31
f 16/31/31 6/29/29 11/32/32
f 14/33/33 13/34/34 19/35/35
f 19/35/35 13/34/34 18/36/36
f 15/37/37 14/38/38 20/39/39
f 20/39/39 14/38/38 19/40/40
f 16/41/41 15/42/42 17/43/43
f 17/43/43 15/42/42 20/44/44
f 6/45/45 3/46/46 11/47/47
f 11/47/47 3/46/46 2/48/48
f 9/49/49 8/50/50 22/51/51
f 22/51/51 8/50/50 21/52/52
f 10/53/53 9/54/54 23/55/55
f 23/55/55 9/54/54 22/56/56
f 7/57/57 10/58/58 24/59/59
f 24/59/59 10/58/58 23/60/60
f 8/61/61 7/62/62 21/63/63
f 21/63/63 7/62/62 24/64/64
f 19/65/65 18/66/66 24/67/67
f 24/67/67 18/66/66 17/68/68
f 24/67/67 17/68/68 21/69/69
f 21/69/69 17/68/68 20/70/70
f 21/69/69 20/70/70 22/71/71
f 22/71/71 20/70/70 19/65/65
f 22/71/71 19/65/65 23/72/72
f 23/72/72 19/65/65 24/67/67
g Body8

v 0.000000 18.000000 0.000000
v -19.000000 18.000000 0.000000
v -19.000000 18.000000 0.500000
v 0.000000 18.000000 0.500000
v -19.000000 0.000000 0.000000
v -19.000000 0.000000 0.500000
v 19.000000 0.000000 0.000000
v 19.000000 0.000000 0.500000
v 19.000000 18.000000 0.000000
v 19.000000 18.000000 0.500000
vt -0.000000 0.000000 0.000000
vt 1.900000 0.000000 0.000000
vt -0.000000 0.050000 0.000000
vt 1.900000 0.050000 0.000000
vt 0.000000 0.000000 0.000000
vt 2.617251 0.000000 0.000000
vt 0.000000 0.050000 0.000000
vt 2.617251 0.050000 0.000000
vt -0.000000 0.000000 0.000000
vt 1.800000 0.000000 0.000000
vt -0.000000 0.050000 0.000000
vt 1.800000 0.050000 0.000000
vt -0.950000 0.900000 0.000000
vt -0.950000 -0.900000 0.000000
vt 0.950000 0.900000 0.000000
vt 0.950000 -0.900000 0.000000
vt 0.950000 0.900000 0.000000
vt -0.950000 0.900000 0.000000
vt 0.000000 0.000000 0.000000
vt 2.617251 0.000000 0.000000
vt 0.000000 0.050000 0.000000
vt 2.617251 0.050000 0.000000
vt -0.000000 0.000000 0.000000
vt 1.900000 0.000000 0.000000
vt -0.000000 0.050000 0.000000
vt 1.900000 0.050000 0.000000
vt 0.000000 0.000000 0.000000
vt 1.800000 0.000000 0.000000
vt 0.000000 0.050000 0.000000
vt 1.800000 0.050000 0.000000
vt 0.950000 -0.900000 0.000000
vt 0.950000 0.900000 0.000000
vt -0.950000 0.900000 0.000000
vt -0.950000 0.900000 0.000000
vt -0.950000 -0.900000 0.000000
vt 0.950000 0.900000 0.000000
vn 0.000000 0.100000 0.000000
vn 0.000000 0.100000 0.000000
vn 0.000000 0.100000 0.000000
vn 0.000000 0.100000 0.000000
vn 0.068774 -0.072595 0.000000
vn 0.068774 -0.072595 0.000000
vn 0.068774 -0.072595 0.000000
vn 0.068774 -0.072595 0.000000
vn -0.100000 0.000000 0.000000
vn -0.100000 0.000000 0.000000
vn -0.100000 0.000000 0.000000
vn -0.100000 0.000000 0.000000
vn 0.000000 0.000000 0.100000
vn 0.000000 0.000000 0.100000
vn 0.000000 0.000000 0.100000
vn -0.000000 0.000000 -0.100000
vn -0.000000 0.000000 -0.100000
vn -0.000000 0.000000 -0.100000
vn -0.068774 -0.072595 0.000000
vn -0.068774 -0.072595 0.000000
vn -0.068774 -0.072595 0.000000
vn -0.068774 -0.072595 0.000000
vn 0.000000 0.100000 0.000000
vn 0.000000 0.100000 0.000000
vn 0.100000 0.000000 0.000000
vn 0.100000 0.000000 0.000000
vn 0.100000 0.000000 0.000000
vn 0.100000 0.000000 0.000000
vn 0.000000 0.000000 0.100000
vn 0.000000 0.000000 0.100000
vn -0.000000 0.000000 -0.100000
vn -0.000000 0.000000 -0.100000
f 25/73/73 26/74/74 28/75/75
f 28/75/75 26/74/74 27/76/76
f 29/77/77 25/78/78 30/79/79
f 30/79/79 25/78/78 28/80/80
f 26/81/81 29/82/82 27/83/83
f 27/83/83 29/82/82 30/84/84
f 27/85/85 30/86/86 28/87/87
f 29/88/88 26/89/89 25/90/90
f 25/91/91 31/92/92 28/93/93
f 28/93/93 31/92/92 32/94/94
f 33/95/95 25/96/73 34/97/96
f 34/97/96 25/96/73 28/98/75
f 31/99/97 33/100/98 32/101/99
f 32/101/99 33/100/98 34/102/100
f 32/103/101 34/104/102 28/105/87
f 33/106/103 31/107/104 25/108/90
# 34 vertices
# 108 texture params
# 104 normals
# 64 facets

# 2 groups
