# WaveFront *.obj file (generated by Autodesk ATF)

mtllib f55968c3-19cc-4d7e-8fa8-4058f8f0aef5.mtl

g Body7

v 0.000000 18.000000 0.000000
v -19.000000 0.000000 0.000000
v -19.000000 0.000000 0.500000
v 0.000000 18.000000 0.500000
v 19.000000 0.000000 0.000000
v 19.000000 0.000000 0.500000
v 19.000000 -23.000000 0.000000
v 19.000000 -23.000000 0.500000
v -19.000000 -23.000000 0.000000
v -19.000000 -23.000000 0.500000
vt -0.000000 0.000000 0.000000
vt 2.617251 0.000000 0.000000
vt -0.000000 0.050000 0.000000
vt 2.617251 0.050000 0.000000
vt 0.000000 0.000000 0.000000
vt 2.617251 0.000000 0.000000
vt 0.000000 0.050000 0.000000
vt 2.617251 0.050000 0.000000
vt 0.000000 0.000000 0.000000
vt 2.300000 0.000000 0.000000
vt 0.000000 0.050000 0.000000
vt 2.300000 0.050000 0.000000
vt 0.000000 0.000000 0.000000
vt 3.800000 0.000000 0.000000
vt 0.000000 0.050000 0.000000
vt 3.800000 0.050000 0.000000
vt 0.000000 0.000000 0.000000
vt 2.300000 0.000000 0.000000
vt 0.000000 0.050000 0.000000
vt 2.300000 0.050000 0.000000
vt -1.900000 -2.050000 0.000000
vt 1.900000 -2.050000 0.000000
vt -1.900000 0.250000 0.000000
vt 1.900000 0.250000 0.000000
vt 0.000000 2.050000 0.000000
vt -1.900000 -2.050000 0.000000
vt 1.900000 -2.050000 0.000000
vt -1.900000 0.250000 0.000000
vt 1.900000 0.250000 0.000000
vt -0.000000 2.050000 0.000000
vn -0.068774 0.072595 0.000000
vn -0.068774 0.072595 0.000000
vn -0.068774 0.072595 0.000000
vn -0.068774 0.072595 0.000000
vn 0.068774 0.072595 0.000000
vn 0.068774 0.072595 0.000000
vn 0.068774 0.072595 0.000000
vn 0.068774 0.072595 0.000000
vn 0.100000 0.000000 0.000000
vn 0.100000 0.000000 0.000000
vn 0.100000 0.000000 0.000000
vn 0.100000 0.000000 0.000000
vn 0.000000 -0.100000 0.000000
vn 0.000000 -0.100000 0.000000
vn 0.000000 -0.100000 0.000000
vn 0.000000 -0.100000 0.000000
vn -0.100000 0.000000 0.000000
vn -0.100000 0.000000 0.000000
vn -0.100000 0.000000 0.000000
vn -0.100000 0.000000 0.000000
vn 0.000000 0.000000 0.100000
vn 0.000000 0.000000 0.100000
vn 0.000000 0.000000 0.100000
vn 0.000000 0.000000 0.100000
vn 0.000000 0.000000 0.100000
vn 0.000000 0.000000 -0.100000
vn 0.000000 0.000000 -0.100000
vn 0.000000 0.000000 -0.100000
vn 0.000000 0.000000 -0.100000
vn 0.000000 0.000000 -0.100000
usemtl Steel_-_Satin
f 1/1/1 2/2/2 4/3/3
f 4/3/3 2/2/2 3/4/4
f 5/5/5 1/6/6 6/7/7
f 6/7/7 1/6/6 4/8/8
f 7/9/9 5/10/10 8/11/11
f 8/11/11 5/10/10 6/12/12
f 9/13/13 7/14/14 10/15/15
f 10/15/15 7/14/14 8/16/16
f 2/17/17 9/18/18 3/19/19
f 3/19/19 9/18/18 10/20/20
f 10/21/21 8/22/22 3/23/23
f 3/23/23 8/22/22 6/24/24
f 3/23/23 6/24/24 4/25/25
f 7/26/26 9/27/27 5/28/28
f 5/28/28 9/27/27 2/29/29
f 5/28/28 2/29/29 1/30/30
g Body8

v 0.000000 18.000000 0.000000
v -19.000000 18.000000 0.000000
v -19.000000 18.000000 0.500000
v 0.000000 18.000000 0.500000
v -19.000000 0.000000 0.000000
v -19.000000 0.000000 0.500000
v 19.000000 0.000000 0.000000
v 19.000000 0.000000 0.500000
v 19.000000 18.000000 0.000000
v 19.000000 18.000000 0.500000
vt -0.000000 0.000000 0.000000
vt 1.900000 0.000000 0.000000
vt -0.000000 0.050000 0.000000
vt 1.900000 0.050000 0.000000
vt 0.000000 0.000000 0.000000
vt 2.617251 0.000000 0.000000
vt 0.000000 0.050000 0.000000
vt 2.617251 0.050000 0.000000
vt -0.000000 0.000000 0.000000
vt 1.800000 0.000000 0.000000
vt -0.000000 0.050000 0.000000
vt 1.800000 0.050000 0.000000
vt -0.950000 0.900000 0.000000
vt -0.950000 -0.900000 0.000000
vt 0.950000 0.900000 0.000000
vt 0.950000 -0.900000 0.000000
vt 0.950000 0.900000 0.000000
vt -0.950000 0.900000 0.000000
vt 0.000000 0.000000 0.000000
vt 2.617251 0.000000 0.000000
vt 0.000000 0.050000 0.000000
vt 2.617251 0.050000 0.000000
vt -0.000000 0.000000 0.000000
vt 1.900000 0.000000 0.000000
vt -0.000000 0.050000 0.000000
vt 1.900000 0.050000 0.000000
vt 0.000000 0.000000 0.000000
vt 1.800000 0.000000 0.000000
vt 0.000000 0.050000 0.000000
vt 1.800000 0.050000 0.000000
vt 0.950000 -0.900000 0.000000
vt 0.950000 0.900000 0.000000
vt -0.950000 0.900000 0.000000
vt -0.950000 0.900000 0.000000
vt -0.950000 -0.900000 0.000000
vt 0.950000 0.900000 0.000000
vn 0.000000 0.100000 0.000000
vn 0.000000 0.100000 0.000000
vn 0.000000 0.100000 0.000000
vn 0.000000 0.100000 0.000000
vn 0.068774 -0.072595 0.000000
vn 0.068774 -0.072595 0.000000
vn 0.068774 -0.072595 0.000000
vn 0.068774 -0.072595 0.000000
vn -0.100000 0.000000 0.000000
vn -0.100000 0.000000 0.000000
vn -0.100000 0.000000 0.000000
vn -0.100000 0.000000 0.000000
vn 0.000000 0.000000 0.100000
vn 0.000000 0.000000 0.100000
vn 0.000000 0.000000 0.100000
vn -0.000000 0.000000 -0.100000
vn -0.000000 0.000000 -0.100000
vn -0.000000 0.000000 -0.100000
vn -0.068774 -0.072595 0.000000
vn -0.068774 -0.072595 0.000000
vn -0.068774 -0.072595 0.000000
vn -0.068774 -0.072595 0.000000
vn 0.000000 0.100000 0.000000
vn 0.000000 0.100000 0.000000
vn 0.100000 0.000000 0.000000
vn 0.100000 0.000000 0.000000
vn 0.100000 0.000000 0.000000
vn 0.100000 0.000000 0.000000
vn 0.000000 0.000000 0.100000
vn 0.000000 0.000000 0.100000
vn -0.000000 0.000000 -0.100000
vn -0.000000 0.000000 -0.100000
f 11/31/31 12/32/32 14/33/33
f 14/33/33 12/32/32 13/34/34
f 15/35/35 11/36/36 16/37/37
f 16/37/37 11/36/36 14/38/38
f 12/39/39 15/40/40 13/41/41
f 13/41/41 15/40/40 16/42/42
f 13/43/43 16/44/44 14/45/45
f 15/46/46 12/47/47 11/48/48
f 11/49/49 17/50/50 14/51/51
f 14/51/51 17/50/50 18/52/52
f 19/53/53 11/54/31 20/55/54
f 20/55/54 11/54/31 14/56/33
f 17/57/55 19/58/56 18/59/57
f 18/59/57 19/58/56 20/60/58
f 18/61/59 20/62/60 14/63/45
f 19/64/61 17/65/62 11/66/48
# 20 vertices
# 66 texture params
# 62 normals
# 32 facets

# 2 groups
